<?xml version="1.0" encoding="UTF-8" standalone="no"?>
<!DOCTYPE svg  PUBLIC '-//W3C//DTD SVG 1.1//EN'  'http://www.w3.org/Graphics/SVG/1.1/DTD/svg11.dtd'>
<svg xmlns="http://www.w3.org/2000/svg">
<defs>
<font id="Arvo-Bold" horiz-adv-x="1245">
<font-face underline-position="-50" font-weight="700" descent="-410" panose-1="2 6 9 3 4 2 2 2 3 4" units-per-em="2048" unicode-range="U+0020-FB02" bbox="-209 -512 2605 2028" x-height="1036" underline-thickness="50" font-family="Arvo" ascent="1638" cap-height="1516"/>
<missing-glyph d="M68 0v1365h544v-1365h-544zM136 68h408v1229h-408v-1229z" horiz-adv-x="748"/>
<glyph glyph-name=".notdef" d="M68 0v1365h544v-1365h-544zM136 68h408v1229h-408v-1229z" horiz-adv-x="748"/>
<glyph glyph-name=".null" horiz-adv-x="0"/>
<glyph glyph-name="nonmarkingreturn" horiz-adv-x="0"/>
<glyph glyph-name="space" horiz-adv-x="410" unicode=" "/>
<glyph glyph-name="exclam" horiz-adv-x="696" unicode="!" d="M139 1577h369l-41 -1067h-287zM139 145q0 37 13.5 69.5t37.5 57t56.5 38.5t70.5 14q36 0 68.5 -14t56.5 -38.5t38 -57t14 -69.5t-14 -69.5t-38 -56.5t-56.5 -38t-68.5 -14q-38 0 -70.5 14t-56.5 38t-37.5 56.5t-13.5 69.5z"/>
<glyph glyph-name="quotedbl" horiz-adv-x="651" unicode='&quot;' d="M588 1059h-199l-14 518h260zM289 1059h-207l-41 518h266z"/>
<glyph glyph-name="numbersign" horiz-adv-x="1538" unicode="#" d="M557 561h323l69 354h-324zM166 1198h181l63 318h331l-62 -318h326l62 318h332l-62 -318h160l-63 -283h-152l-69 -354h188l-64 -280h-179l-54 -281h-334l55 281h-322l-54 -281h-338l55 281h-158l64 280h149l70 354h-189z"/>
<glyph glyph-name="dollar" d="M461 -188v322q-54 16 -100.5 42t-82.5 64h-176v301h342q0 -36 12 -65.5t35 -51t56.5 -33.5t77.5 -12q52 0 79 21t27 55q0 16 -10 29.5t-26 24.5t-36.5 19.5t-40.5 14.5l-186 57q-56 17 -105.5 43.5t-86.5 65.5t-58.5 92.5t-21.5 124.5q0 70 22 125.5t62 96.5t95.5 67.5 t121.5 39.5v324h332v-341q42 -14 77 -32t62 -39h180v-301h-342q-1 37 -12 63.5t-32 45.5t-51 30t-69 11q-49 0 -75.5 -18t-26.5 -50q0 -18 11 -31.5t30 -25t45 -21t55 -18.5l178 -57q134 -42 198 -117.5t64 -196.5q0 -64 -20.5 -119t-58.5 -100t-92 -77.5t-121 -51.5v-321 h-332z" unicode="$"/>
<glyph glyph-name="percent" horiz-adv-x="1833" unicode="%" d="M1403 516q-29 0 -54.5 -10t-44.5 -28t-29.5 -43t-10.5 -56q0 -29 10.5 -54t29.5 -44t44.5 -30t54.5 -11t54.5 10.5t44 29.5t29.5 44.5t11 54.5q0 31 -11 56t-29.5 43t-44 28t-54.5 10zM1024 379q0 75 28 142t78.5 117.5t120 80t152.5 29.5t152.5 -29.5t120 -80 t78.5 -117.5t28 -142q0 -74 -27.5 -141t-77 -117.5t-119.5 -80.5t-155 -30t-155 29.5t-119.5 80t-77 117.5t-27.5 142zM1370 1540h266l-1025 -1540h-266zM590 1305q-29 0 -54.5 -10t-44.5 -28t-29.5 -43.5t-10.5 -56.5q0 -28 10.5 -53.5t29.5 -44.5t44.5 -30t54.5 -11 t54.5 11t44 29.5t29.5 44t11 54.5q0 31 -11 56.5t-29.5 43.5t-44 28t-54.5 10zM211 1167q0 75 28 142t78.5 117.5t120 80t152.5 29.5t152.5 -29.5t120 -80t78.5 -117.5t28 -142q0 -74 -27.5 -140.5t-77 -117t-119.5 -80.5t-155 -30q-86 0 -155.5 29.5t-119.5 80t-77 117.5 t-27 141z"/>
<glyph glyph-name="ampersand" horiz-adv-x="1337" unicode="&amp;" d="M674 1063q32 23 45.5 54.5t13.5 74.5q0 27 -10.5 51t-29 42.5t-42.5 29t-51 10.5q-32 0 -58 -10t-45 -28t-29.5 -42.5t-10.5 -52.5q0 -40 14.5 -77.5t40.5 -61.5l56 -55q31 17 58 33t48 32zM406 461q0 -33 13 -63.5t36.5 -54.5t56.5 -38t74 -14q63 0 112.5 21.5 t89.5 57.5l-262 268q-27 -17 -49.5 -35t-38 -39t-24 -46.5t-8.5 -56.5zM1196 -49l-201 206q-82 -78 -185.5 -124.5t-231.5 -46.5q-102 0 -191 36t-155 99t-104 149t-38 185q0 127 59 225t164 172q1 0 3 2l-19 20q-62 66 -95.5 143t-33.5 173q0 82 33 156t91.5 130.5 t137 89.5t170.5 33q97 0 176 -34t135 -90.5t86.5 -130t30.5 -152.5q0 -56 -14.5 -108t-40 -97t-59.5 -82.5t-72 -64.5q-17 -12 -33 -23.5t-33 -22.5l164 -162q14 45 23.5 86.5t15.5 78.5h299q-7 -97 -33.5 -197.5t-72.5 -195.5l255 -250z"/>
<glyph glyph-name="quotesingle" horiz-adv-x="340" unicode="&apos;" d="M256 1059h-219v518l287 16z"/>
<glyph glyph-name="parenleft" horiz-adv-x="721" unicode="(" d="M510 -467q-98 120 -172.5 252t-125.5 273t-77 289t-26 300q0 308 103 594t302 528l246 -172q-77 -101 -137.5 -214t-102.5 -234.5t-64 -248t-22 -253.5q0 -128 22 -255t64 -248.5t102 -235.5t136 -215z"/>
<glyph glyph-name="parenright" horiz-adv-x="721" unicode=")" d="M6 -295q77 100 137.5 213.5t102.5 235t64 248t22 253.5t-22 254.5t-64 249t-102 235.5t-136 216l248 159q196 -241 298.5 -524.5t102.5 -589.5q0 -307 -103 -593t-302 -529z"/>
<glyph glyph-name="asterisk" horiz-adv-x="1008" unicode="*" d="M629 1364l239 78l78 -238l-241 -77l149 -205l-203 -148l-148 206l-147 -206l-202 148l148 205l-241 77l78 238l240 -78v252h250v-252z"/>
<glyph glyph-name="plus" horiz-adv-x="1229" unicode="+" d="M102 733h363v363h297v-363h364v-297h-364v-364h-297v364h-363v297z"/>
<glyph glyph-name="comma" horiz-adv-x="532" unicode="," d="M205 283l305 -107l-285 -541l-205 78z"/>
<glyph glyph-name="hyphen" horiz-adv-x="770" unicode="-" d="M61 449v274h627v-274h-627z"/>
<glyph glyph-name="period" horiz-adv-x="529" unicode="." d="M70 162q0 40 14.5 75t41 62t62.5 42.5t77 15.5q39 0 74.5 -15.5t62 -42t41.5 -62.5t15 -75q0 -40 -15.5 -76t-41.5 -62t-61 -41.5t-75 -15.5q-42 0 -77.5 15.5t-62 41.5t-41 61.5t-14.5 76.5z"/>
<glyph glyph-name="slash" horiz-adv-x="807" unicode="/" d="M633 1556h256l-578 -1556h-262z"/>
<glyph glyph-name="zero" horiz-adv-x="1296" unicode="0" d="M672 293q89 0 141.5 35.5t80.5 98t36 148.5t8 187q0 99 -8 184.5t-35.5 149t-80 99.5t-140.5 36q-89 0 -142 -36t-81 -99.5t-36.5 -149t-8.5 -184.5q0 -101 8.5 -187t36 -148.5t80 -98t141.5 -35.5zM672 -14q-160 0 -272 59t-182.5 162.5t-103 244t-32.5 302.5 q0 160 31 301.5t101 248t183 168.5t277 62q162 0 274.5 -61t182.5 -166t101.5 -245.5t31.5 -299.5q0 -161 -32.5 -302.5t-103 -246.5t-183.5 -166t-273 -61z"/>
<glyph glyph-name="one" horiz-adv-x="815" unicode="1" d="M115 274h159v791l-233 -139v348l418 246l145 -2v-1244h160v-274h-649v274z"/>
<glyph glyph-name="two" horiz-adv-x="1178" unicode="2" d="M127 260l524 557q68 66 105 132t37 134q0 29 -12 57.5t-34.5 51t-55 36t-73.5 13.5q-49 0 -85.5 -15.5t-61 -42.5t-37.5 -63t-14 -76h-301q0 118 39 210.5t107.5 156t160.5 96.5t197 33q99 0 188.5 -30t158 -88t108.5 -143t40 -196q0 -89 -36.5 -164.5t-98.5 -144.5 l-432 -467h565v-307h-989v260z"/>
<glyph glyph-name="three" horiz-adv-x="1087" unicode="3" d="M727 1083q0 30 -13.5 60t-39 54t-61 39t-78.5 15q-37 0 -70.5 -12.5t-59 -33.5t-40.5 -48.5t-15 -93.5l-311 2q1 97 37 185t100.5 155t155.5 106t203 39q106 0 198 -36.5t160 -98.5t106.5 -143t38.5 -170q0 -97 -40 -176.5t-109 -128.5q36 -20 67 -53t54.5 -76t37 -94 t13.5 -107q0 -98 -40 -186t-110.5 -154.5t-166.5 -105.5t-207 -39q-105 0 -195.5 33t-158.5 91.5t-109.5 138t-49 132.5t-8.5 110h314q6 -105 60.5 -154.5t150.5 -49.5q43 0 80.5 14.5t65.5 39t44.5 57.5t16.5 71q0 40 -14.5 74.5t-41.5 59t-66 38.5t-87 14h-140v273h142 q44 0 78.5 12t58.5 33t36.5 50t12.5 64z"/>
<glyph glyph-name="four" horiz-adv-x="1231" unicode="4" d="M10 670l539 846h334l-531 -848h320v293l313 4v-297h211v-254h-211v-140h193v-274h-650v274h144v140h-662v256z"/>
<glyph glyph-name="five" horiz-adv-x="1206" unicode="5" d="M436 926q48 18 103.5 30.5t119.5 12.5q102 0 193.5 -31.5t161 -93t110.5 -151.5t41 -208q0 -127 -45 -223.5t-119 -161.5t-168.5 -98t-193.5 -33q-98 0 -185.5 25.5t-157.5 76.5t-118.5 127.5t-66.5 178.5l309 84q6 -47 25 -84t47.5 -63t66 -40t80.5 -14q48 0 88 18 t68 49.5t43.5 73.5t15.5 91q0 41 -16 80t-46 69t-72 48t-93 18q-65 0 -112.5 -12.5t-96.5 -35.5l-271 50v807h963v-306h-674v-284z"/>
<glyph glyph-name="six" horiz-adv-x="1163" unicode="6" d="M582 694q-61 0 -110.5 -22.5t-81.5 -64.5q-13 -25 -21.5 -54t-8.5 -64t13.5 -71.5t41.5 -67t71 -50t102 -19.5q40 0 81 14t73 40t52.5 64.5t20.5 87.5q0 47 -18.5 85t-50.5 65t-74 42t-90 15zM913 1518l-309 -541q27 2 52.5 -0.5t50.5 -7.5q85 -16 159 -58.5t128.5 -105 t86 -141.5t31.5 -168q0 -109 -41.5 -202t-113.5 -161t-167.5 -106.5t-203.5 -38.5q-106 0 -200.5 38.5t-165.5 105t-112.5 157.5t-41.5 196q0 50 10 95.5t27 89t39 85.5t46 85l375 678h350z"/>
<glyph glyph-name="seven" horiz-adv-x="1190" unicode="7" d="M229 274h106q51 118 105 240t107.5 241t105 232.5t98.5 216.5h-423v-172h-287v484h1108v-226q-118 -242 -240.5 -499.5t-237.5 -516.5h99v-274h-541v274z"/>
<glyph glyph-name="eight" horiz-adv-x="1180" unicode="8" d="M440 1081q0 -34 15 -64.5t42 -53.5t63.5 -36.5t78.5 -13.5t78.5 13.5t63.5 36.5t43 53.5t16 64.5q0 35 -16 66.5t-43 55.5t-63.5 38t-78.5 14t-78.5 -14t-63.5 -38t-42 -55.5t-15 -66.5zM403 465q0 -41 18 -78t50 -64.5t75 -44t93 -16.5q49 0 91.5 16.5t74 44t49.5 64.5 t18 78q0 40 -18 75.5t-49.5 62.5t-74 43t-91.5 16q-50 0 -93 -16t-75 -43t-50 -62.5t-18 -75.5zM639 1544q102 0 192 -36t157 -97t106 -142t39 -171q0 -88 -40.5 -166t-109.5 -137q84 -60 133 -145.5t49 -188.5q0 -98 -40.5 -186t-111 -155.5t-167 -107t-207.5 -39.5 q-74 0 -142 18.5t-126.5 51.5t-106 79t-81 99.5t-52 113.5t-18.5 122q0 106 50 193.5t135 147.5q-69 58 -108.5 134t-39.5 160q0 93 38.5 175t105 143.5t155.5 97.5t190 36z"/>
<glyph glyph-name="nine" horiz-adv-x="1151" unicode="9" d="M637 821q58 0 106 20.5t80 61.5q14 26 23.5 56.5t9.5 66.5q0 34 -13.5 71t-41 68t-70 50.5t-100.5 19.5q-42 0 -82.5 -14t-73 -40.5t-52.5 -65t-20 -87.5q0 -47 18.5 -85t50 -65t74.5 -42t91 -15zM305 -2l307 540q-27 -2 -52 1t-48 8q-85 16 -159 58.5t-129 105 t-86.5 141.5t-31.5 168q0 109 41.5 202t112.5 161t167 106.5t204 38.5q106 0 201 -38.5t166.5 -105.5t113 -158t41.5 -196q0 -50 -10 -95.5t-27.5 -88.5t-39.5 -85t-46 -85l-375 -678h-350z"/>
<glyph glyph-name="colon" horiz-adv-x="539" unicode=":" d="M72 145q0 37 13.5 69.5t37.5 57t56.5 38.5t70.5 14q36 0 68 -14t56 -38.5t38 -57t14 -69.5t-14 -69.5t-38 -56.5t-56 -38t-68 -14q-38 0 -70.5 14t-56.5 38t-37.5 56.5t-13.5 69.5zM72 907q0 37 13.5 69.5t37.5 56.5t56.5 38t70.5 14q36 0 68 -14t56 -38t38 -56.5 t14 -69.5t-14 -69.5t-38 -56.5t-56 -38t-68 -14q-38 0 -70.5 14t-56.5 38t-37.5 56.5t-13.5 69.5z"/>
<glyph glyph-name="semicolon" horiz-adv-x="539" unicode=";" d="M123 283l305 -107l-285 -541l-204 78zM72 907q0 37 13.5 69.5t37.5 56.5t56.5 38t70.5 14q36 0 68 -14t56 -38t38 -56.5t14 -69.5t-14 -69.5t-38 -56.5t-56 -38t-68 -14q-38 0 -70.5 14t-56.5 38t-37.5 56.5t-13.5 69.5z"/>
<glyph glyph-name="less" horiz-adv-x="868" unicode="&lt;" d="M31 674l755 274v-256l-448 -134l448 -144v-250l-755 287v223z"/>
<glyph glyph-name="equal" horiz-adv-x="995" unicode="=" d="M61 997h873v-286h-873v286zM61 567h873v-286h-873v286z"/>
<glyph glyph-name="greater" horiz-adv-x="827" unicode="&gt;" d="M797 451l-756 -287v250l448 144l-448 134v256l756 -274v-223z"/>
<glyph glyph-name="question" horiz-adv-x="1192" unicode="?" d="M324 391q0 70 2 123t8.5 94.5t19 74t33 60.5t50.5 54.5t73 56.5q46 38 76 69.5t47 62.5t24 64t7 74q0 59 -29.5 96t-79.5 37q-31 0 -57.5 -7t-46.5 -26t-31.5 -52t-11.5 -85l-318 31q2 110 38.5 191.5t100 135.5t150 80.5t188.5 26.5q95 0 178 -28t144.5 -83t97 -135 t35.5 -184q0 -109 -50 -200t-153 -172q-53 -38 -88 -71t-56 -72t-29.5 -90t-8.5 -126h-313zM301 145q0 37 13.5 69.5t37.5 57t56.5 38.5t70.5 14q36 0 68 -14t56 -38.5t38 -57t14 -69.5t-14 -69.5t-38 -56.5t-56 -38t-68 -14q-38 0 -70.5 14t-56.5 38t-37.5 56.5t-13.5 69.5 z"/>
<glyph glyph-name="at" horiz-adv-x="2267" unicode="@" d="M1130 276q60 0 110.5 31.5t80.5 88.5v159q-13 29 -32.5 53t-44 41.5t-53 27t-58.5 9.5q-42 0 -80 -16t-66 -44t-44.5 -66t-16.5 -81q0 -45 16 -82.5t44 -64.5t65 -41.5t79 -14.5zM1608 956v-647q0 -43 16.5 -70.5t50.5 -27.5q49 0 81 30t50.5 78t25.5 106.5t7 115.5 q0 86 -24.5 167t-69.5 152.5t-108 131t-140 102.5t-166 66.5t-186 23.5q-96 0 -184 -24.5t-165 -69.5t-139.5 -108.5t-107.5 -140t-69.5 -164.5t-24.5 -183q0 -144 54 -270t147.5 -220t219 -148.5t269.5 -54.5q99 0 197 31.5t192 87.5l137 -227q-124 -75 -258 -115.5 t-268 -40.5q-132 0 -254.5 34t-229 96t-193.5 149.5t-149.5 193.5t-96.5 228.5t-34 255.5q0 132 34 254t96.5 228t149.5 193t193.5 149t229 96t254.5 34q133 0 256 -33t229.5 -92.5t193.5 -143t149 -184t96 -215t34 -237.5q0 -102 -30 -202t-88.5 -180t-145 -129.5 t-199.5 -49.5q-80 0 -140 28t-101 79q-57 -49 -129 -77t-140 -28q-110 0 -203 40t-160.5 108t-105.5 157.5t-38 189.5q0 97 36 186t100.5 156.5t154 107.5t196.5 40q59 0 111 -12t100 -32v31h287z"/>
<glyph glyph-name="A" horiz-adv-x="1491" unicode="A" d="M589 748h306l-154 493zM893 274h151l-68 218h-466l-68 -218h160v-274h-575v274h113l413 1242h401l404 -1242h110v-274h-575v274z"/>
<glyph glyph-name="B" horiz-adv-x="1386" unicode="B" d="M600 1241v-340h238q28 0 53 14t43.5 37.5t29.5 53t11 61.5q0 31 -11 62t-29.5 56t-43.5 40.5t-53 15.5h-238zM600 627v-353h252q29 0 54.5 15t44 39.5t29.5 57t11 67.5q0 37 -11 68.5t-30 55t-44.5 37t-53.5 13.5h-252zM113 274h155v967h-155v277l739 -2 q103 0 188.5 -36.5t147.5 -99t96.5 -146t34.5 -177.5q0 -110 -38.5 -182t-109.5 -116q75 -48 118.5 -118.5t43.5 -171.5q0 -103 -35.5 -189t-97 -148.5t-145.5 -97t-181 -34.5h-761v274z"/>
<glyph glyph-name="C" horiz-adv-x="1554" unicode="C" d="M1106 1055q-56 80 -101 113.5t-97 48t-109 14.5q-84 0 -156 -37.5t-124.5 -102t-82.5 -150t-30 -181.5q0 -97 29.5 -182.5t81.5 -149.5t124 -101.5t158 -37.5q60 0 112 19.5t94.5 51.5t74.5 73.5t50 86.5l322 -90q-31 -98 -91 -181.5t-144.5 -144.5t-190 -96t-227.5 -35 q-103 0 -197 28t-175.5 79t-148 123t-113.5 159.5t-73 188t-26 209.5q0 163 57 305.5t156 249t232.5 168t287.5 61.5q123 0 207 -30.5t185 -120.5h224v-338h-309z"/>
<glyph glyph-name="D" horiz-adv-x="1468" unicode="D" d="M535 1241v-967h127q81 0 153 38t125 103.5t84 154t31 190.5q0 101 -31 189t-84 153t-125 102t-153 37h-127zM82 1516h582q104 0 199.5 -27t178 -76t150 -117.5t115.5 -152.5t74 -181t26 -202t-26 -202t-74 -181.5t-115.5 -154t-150 -119t-178 -76.5t-199.5 -27h-582v274 h121v967h-121v275z"/>
<glyph glyph-name="E" horiz-adv-x="1380" unicode="E" d="M113 1516h1206v-517h-326v215h-389v-299h301v-290h-301v-351h389v269h326v-543h-1206v274h159v940h-159v302z"/>
<glyph glyph-name="F" horiz-adv-x="1286" unicode="F" d="M113 1516h1173v-517h-325v213h-359v-319h311v-291h-311v-328h160v-274h-649v274h157v938h-157v304z"/>
<glyph glyph-name="G" horiz-adv-x="1636" unicode="G" d="M1212 0v260q-62 -109 -121 -160t-133 -82q-72 -30 -192 -30h-8q-62 1 -124 14.5t-120 38t-113.5 59t-100.5 79.5q-111 112 -172.5 259.5t-61.5 321.5q0 107 26 207t73 187t113.5 158.5t148 122.5t175.5 79t197 28q118 0 205 -31.5t187 -117.5h224v-338h-309 q-46 71 -86.5 103t-88 53t-132.5 21q-84 0 -156 -38t-124.5 -102.5t-82.5 -152t-30 -179.5q0 -91 27 -173t82 -147.5t128 -100.5t156 -35q106 0 185 62t114 169h-289v274h702v-809h-299z"/>
<glyph glyph-name="H" horiz-adv-x="1890" unicode="H" d="M1128 1516h650v-275h-160v-967h160v-274h-650v274h158v388h-684v-388h160v-274h-649v274h157v967h-157v275h649v-275h-160v-315h684v315h-158v275z"/>
<glyph glyph-name="I" horiz-adv-x="874" unicode="I" d="M113 1516h649v-274h-160v-968h160v-274h-649v274h157v968h-157v274z"/>
<glyph glyph-name="J" horiz-adv-x="686" unicode="J" d="M82 1516h573v-304h-106v-1040q-22 -81 -64 -148.5t-82.5 -122.5t-113.5 -139l-279 15q59 90 92.5 148.5t67.5 129t53 150.5v1007h-141v304z"/>
<glyph glyph-name="K" horiz-adv-x="1655" unicode="K" d="M113 1516h649v-275h-160v-441l485 423v293h517v-295h-113l-505 -434l484 -490h123v-297h-503v297l-488 488v-511h160v-274h-649v274h157v967h-157v275z"/>
<glyph glyph-name="L" horiz-adv-x="1346" unicode="L" d="M113 1516h649v-275h-160v-967h330q13 0 25.5 7.5t22 19.5t15.5 26t6 27v203h324v-557h-1212v274h157v967h-157v275z"/>
<glyph glyph-name="M" horiz-adv-x="2345" unicode="M" d="M113 274h141v967h-141v275h624l447 -1094l415 1094h633v-275h-141v-967h139v-274h-567v274h104v872l-454 -1128h-281l-462 1098v-842h113v-274h-570v274z"/>
<glyph glyph-name="N" horiz-adv-x="1698" unicode="N" d="M1071 1516h576v-275h-123v-1241h-332l-631 980v-706h127v-274h-575v274h125v967h-123v275h458l627 -993v718h-129v275z"/>
<glyph glyph-name="O" horiz-adv-x="1620" unicode="O" d="M799 287q87 0 159.5 37.5t124.5 102t80.5 150t28.5 181.5q0 97 -29 183t-81.5 150.5t-124.5 102t-158 37.5t-158 -37.5t-124 -102t-81.5 -150.5t-29.5 -183q0 -96 29.5 -181.5t81.5 -150t124 -102t158 -37.5zM799 -27q-103 0 -197 28t-175.5 79t-148 122.5t-113.5 159 t-73 187.5t-26 209t26 209.5t73 188t113.5 159t148 122.5t175.5 79t197 28t197.5 -28t176 -79t148 -122.5t114 -159t73.5 -188t26 -209.5q0 -108 -26 -208.5t-73.5 -188t-114 -159t-148 -122.5t-176 -79t-197.5 -28z"/>
<glyph glyph-name="P" horiz-adv-x="1400" unicode="P" d="M602 1241v-407h137q114 0 181 48t67 152q0 97 -63 152t-185 55h-137zM113 1516h700q117 0 215 -36.5t169 -98.5t111 -143t40 -169q0 -106 -31.5 -198.5t-97.5 -160.5t-167 -107.5t-239 -39.5h-211v-289h139v-274h-628v274h157v967h-157v275z"/>
<glyph glyph-name="Q" horiz-adv-x="1634" unicode="Q" d="M799 287q87 0 159.5 37.5t124.5 102t80.5 150t28.5 181.5q0 97 -29 183t-81.5 150.5t-124.5 102t-158 37.5t-158 -37.5t-124 -102t-81.5 -150.5t-29.5 -183q0 -96 29.5 -181.5t81.5 -150t124 -102t158 -37.5zM659 -12q-128 26 -236.5 95.5t-188 171.5t-124 230.5 t-44.5 272.5q0 109 26 209.5t73 188t113.5 159t148 122.5t175.5 79t197 28t197.5 -28t176 -79t148 -122.5t114 -159t73.5 -188t26 -209.5q0 -146 -46 -276t-127.5 -233t-193.5 -172t-243 -92q31 -13 61.5 -28.5t61.5 -29t61.5 -23t62.5 -10.5q31 0 60.5 8t53.5 25t41.5 44 t23.5 66l223 -111q-9 -73 -41.5 -132t-83.5 -101t-116 -65t-138 -23q-59 0 -118.5 22.5t-115 49t-104.5 49t-86 22.5q-16 0 -28.5 0.5t-24.5 0t-26.5 -3t-33.5 -9.5z"/>
<glyph glyph-name="R" horiz-adv-x="1530" unicode="R" d="M602 1241v-367h199q57 0 102.5 10.5t78 33t50 56.5t17.5 81q0 88 -63 137t-185 49h-199zM113 1516h802q117 0 209 -35t155 -93.5t96.5 -136t33.5 -161.5q0 -77 -16.5 -135t-48 -103t-77.5 -79.5t-105 -62.5q51 -26 90 -79.5t59 -138.5l51 -197h125l2 -295h-440l-60 360 q-9 64 -27.5 110.5t-49.5 76t-75.5 43.5t-105.5 14h-129v-330h139v-274h-628v274h157v967h-157v275z"/>
<glyph glyph-name="S" d="M842 1089q-5 35 -24.5 66t-50 53.5t-69 35.5t-80.5 13q-38 0 -71 -8t-57.5 -24.5t-39 -42.5t-14.5 -62q0 -45 19.5 -71.5t50 -43.5t67.5 -27t72 -22l275 -92q57 -20 107 -55t86.5 -85t57.5 -115t21 -146q0 -110 -40.5 -201t-113.5 -156t-175 -101t-226 -36 q-87 0 -164.5 19.5t-141.5 56.5t-112 88.5t-75 116.5h-103v301h362v-62q0 -45 14.5 -83t43.5 -66t73 -43.5t103 -15.5q90 0 137 41.5t47 115.5q0 38 -16.5 63.5t-42.5 43t-58 29.5t-63 22l-229 74q-65 20 -125.5 56t-107 90t-74 126.5t-27.5 165.5q0 108 40 192.5t112 142.5 t171 88t217 30q93 0 172 -21.5t141.5 -57.5t106 -82.5t66.5 -96.5h100v-302h-362v88z" unicode="S"/>
<glyph glyph-name="T" horiz-adv-x="1419" unicode="T" d="M373 274h157v977h-184v-196h-326v461h1379v-461h-328v196h-209v-977h160v-274h-649v274z"/>
<glyph glyph-name="U" horiz-adv-x="1561" unicode="U" d="M51 1516h608v-275h-139v-629q0 -86 19.5 -146t54.5 -98t83 -55.5t105 -17.5q59 0 107.5 15t83 51.5t53 97.5t18.5 153v629h-161v275h608v-275h-121v-590q0 -160 -46 -284.5t-126.5 -210.5t-189 -131t-232.5 -45q-123 0 -230 44.5t-186.5 129t-125.5 205.5t-46 274v608 h-137v275z"/>
<glyph glyph-name="V" horiz-adv-x="1530" unicode="V" d="M860 1516h649v-275h-135l-405 -1241h-410l-393 1241h-146v275h650v-275h-162l264 -860l263 860h-175v275z"/>
<glyph glyph-name="W" horiz-adv-x="2357" unicode="W" d="M1688 1516h649v-275h-137l-349 -1241h-432l-229 946l-234 -946h-428l-355 1241h-153v275h650v-275h-158l223 -817l269 1089h372l264 -1089l224 817h-176v275z"/>
<glyph glyph-name="X" horiz-adv-x="1577" unicode="X" d="M878 1516h643v-275h-65l-456 -487l454 -480h63v-274h-643v274h158l-240 258l-242 -258h146v-274h-643v274h81l449 480l-455 487h-71v275h643v-275h-158l249 -265l245 265h-158v275z"/>
<glyph glyph-name="Y" horiz-adv-x="1536" unicode="Y" d="M47 1516h649v-275h-127l203 -348l215 348h-145v275h649v-275h-112l-451 -612v-355h184v-274h-676v274h168v359l-424 608h-133v275z"/>
<glyph glyph-name="Z" horiz-adv-x="1290" unicode="Z" d="M1214 1202l-755 -905h428v235h325v-532h-1151v313l737 906h-409v-240h-326v537h1151v-314z"/>
<glyph glyph-name="bracketleft" horiz-adv-x="670" unicode="[" d="M82 1612h547v-246h-223v-1630h223v-248h-547v2124z"/>
<glyph glyph-name="backslash" horiz-adv-x="778" unicode="\" d="M6 1384h236l571 -1677h-242z"/>
<glyph glyph-name="bracketright" horiz-adv-x="670" unicode="]" d="M266 1366h-223v246h547v-2124h-547v248h223v1630z"/>
<glyph glyph-name="asciicircum" horiz-adv-x="1229" unicode="^" d="M771 1513l404 -790h-296l-263 528l-274 -528h-290l416 790h303z"/>
<glyph glyph-name="underscore" horiz-adv-x="1024" unicode="_" d="M0 -90h1024v-256h-1024v256z"/>
<glyph glyph-name="grave" horiz-adv-x="774" unicode="`" d="M461 1178l-293 286v25h326l196 -311h-229z"/>
<glyph glyph-name="a" horiz-adv-x="1280" unicode="a" d="M489 211q71 0 129 23t99 56v132h-240q-23 0 -45 -7t-39.5 -20t-28 -32t-10.5 -44q0 -46 33.5 -77t101.5 -31zM717 56q-35 -22 -64 -37.5t-58 -25t-60 -14t-68 -4.5q-93 0 -166.5 25.5t-124 70t-77.5 105t-27 131.5q0 72 27.5 133t79.5 104.5t127.5 68t172.5 24.5 q71 0 129.5 -7.5t108.5 -18.5v32q0 39 -15 67.5t-42 47t-65 27t-83 8.5q-94 0 -165.5 -18.5t-137.5 -53.5l-96 194q102 70 213.5 107t236.5 37q97 0 179.5 -21.5t141.5 -70t92.5 -126.5t33.5 -190v-377h139v-274h-432v56z"/>
<glyph glyph-name="b" horiz-adv-x="1305" unicode="b" d="M688 791q-66 0 -118.5 -30t-88.5 -86v-310q32 -48 85.5 -77.5t119.5 -29.5q51 0 97 18.5t80.5 53t54.5 83t20 109.5q0 62 -20 112t-54 85t-79.5 53.5t-96.5 18.5zM29 1556h452v-543q54 26 111 40t117 14q115 0 213 -43t169 -117t111.5 -173t40.5 -210q0 -112 -39.5 -211 t-110.5 -172.5t-169 -116t-215 -42.5q-63 0 -120 12t-108 34v-28h-307v1282h-145v274z"/>
<glyph glyph-name="c" horiz-adv-x="1180" unicode="c" d="M856 678q-43 54 -96 82q-46 24 -107 24q-9 0 -18 -1q-10 1 -19 1q-46 0 -86 -17q-48 -20 -82.5 -56t-53.5 -85.5t-19 -111.5q0 -55 20 -104t54.5 -84.5t82 -55.5t103.5 -24q47 4 85.5 19.5t68.5 40t51.5 55t33.5 57.5l275 -76q-17 -60 -58.5 -125t-108 -118.5t-158 -88.5 t-208.5 -35q-119 0 -219 43.5t-172 118.5t-112.5 176t-40.5 217q0 115 41.5 213.5t114.5 172.5q74 73 174 114q92 37 197 37h21q12 1 25 1q71 0 138 -20q79 -23 150 -69h199v-301h-276z"/>
<glyph glyph-name="d" horiz-adv-x="1400" unicode="d" d="M630 256q66 2 119.5 34t88.5 84v305q-34 53 -90 83q-54 29 -114 28h-4h-5q-49 0 -93 -18q-46 -19 -80 -54t-54 -84t-20 -111q0 -61 20 -110.5t54.5 -84t80 -52.5t97.5 -20zM693 1556h453v-1282h202v-274h-510v40q-54 -28 -110.5 -44t-114.5 -16q-119 0 -218.5 42.5 t-171 116.5t-111.5 173.5t-40 213.5t39.5 212.5t110 171.5t169 115t216.5 42q65 0 122 -12.5t109 -35.5v263h-145v274z"/>
<glyph glyph-name="e" horiz-adv-x="1186" unicode="e" d="M588 831q-56 0 -95.5 -13.5t-66.5 -37t-43 -53.5t-25 -63h433q-7 34 -20 64t-36 53t-58.5 36.5t-88.5 13.5zM349 453l3 -31q11 -45 37.5 -79t62.5 -57t80 -34.5t89 -11.5t85.5 5.5t78.5 15t74 22t73 26.5l110 -205q-57 -35 -104.5 -59.5t-95.5 -40.5t-102 -23.5 t-126 -7.5q-135 0 -240 44.5t-176.5 120.5t-109 178t-37.5 216t39.5 214t111.5 174.5t172 117.5t222 43t216.5 -40.5t159.5 -112t100 -168t38 -207.5q4 -25 4 -49v-10q0 -20 -2 -41h-763z"/>
<glyph glyph-name="f" horiz-adv-x="815" unicode="f" d="M530 1036h189v-262h-189v-500h191v-274h-643v274h155v500h-157v262h157v172q0 91 32 160t85.5 116t123.5 71t147 24q57 0 102 -8.5t79 -21.5t57.5 -28t37.5 -28l-115 -211q-23 17 -52 27t-71 10q-27 0 -50.5 -9t-41 -26t-27.5 -42.5t-10 -59.5v-146z"/>
<glyph glyph-name="g" horiz-adv-x="1295" unicode="g" d="M633 271q70 0 126.5 35.5t89.5 93.5l2 252q-34 63 -93 100t-128 38q-49 -1 -96 -19.5t-81.5 -52.5t-54.5 -80.5t-20 -103.5q0 -60 20 -109t54 -83t80.5 -52.5t100.5 -18.5zM849 54q-56 -32 -112 -46t-114 -14q-120 0 -221 41t-174.5 113.5t-114.5 171.5t-41 215 q0 109 39.5 205.5t110.5 169t170 114.5t215 43q71 -1 130.5 -15t111.5 -38v22h303v-993q0 -131 -45 -226.5t-120.5 -158t-175.5 -93t-210 -30.5q-136 0 -251.5 37t-205.5 100l125 222q69 -44 150 -69.5t180 -25.5q54 0 99.5 12t79 40.5t52.5 76.5t19 121v5z"/>
<glyph glyph-name="h" horiz-adv-x="1386" unicode="h" d="M57 1556h467v-616q59 54 129.5 84.5t155.5 30.5q187 0 286 -104.5t99 -305.5v-371h152v-274h-463v575q0 87 -43 137t-111 50q-45 0 -98 -25t-107 -73v-390h152v-274h-619v274h160v1008h-160v274z"/>
<glyph glyph-name="i" horiz-adv-x="790" unicode="i" d="M220 1370q0 37 13.5 69.5t37.5 56.5t56.5 38t70.5 14q36 0 68 -14t56 -38t38 -56.5t14 -69.5t-14 -69.5t-38 -56.5t-56 -38t-68 -14q-38 0 -70.5 14t-56.5 38t-37.5 56.5t-13.5 69.5zM80 1036h465v-762h144v-274h-609v274h156v488h-156v274z"/>
<glyph glyph-name="j" horiz-adv-x="621" unicode="j" d="M182 1370q0 37 13.5 69.5t37.5 56.5t56.5 38t70.5 14q36 0 68.5 -14t57 -38t39 -56.5t14.5 -69.5t-14.5 -69.5t-39 -56.5t-57 -38t-68.5 -14q-38 0 -70.5 14t-56.5 38t-37.5 56.5t-13.5 69.5zM51 1036h455v-1054q0 -119 -29.5 -204t-86 -140t-139.5 -81t-190 -26l-4 227 q72 3 107 57.5t35 145.5v801h-148v274z"/>
<glyph glyph-name="k" horiz-adv-x="1450" unicode="k" d="M57 1556h467v-897h175l72 103v274h536v-274h-186l-193 -223l197 -238h172v-301h-281l-336 444h-156v-170h106v-274h-573v274h160v1008h-160v274z"/>
<glyph glyph-name="l" horiz-adv-x="780" unicode="l" d="M59 1556h467v-1282h160v-274h-627v274h160v1008h-160v274z"/>
<glyph glyph-name="m" horiz-adv-x="2156" unicode="m" d="M82 1036h474v-90q64 51 144 81t165 30q118 0 202.5 -41.5t132.5 -126.5q33 37 74.5 67.5t88.5 53t98.5 35t105.5 12.5q190 0 292 -105t102 -307v-371h147v-274h-473v594q0 88 -45.5 138t-126.5 50q-56 0 -105.5 -26.5t-98.5 -91.5q1 -11 1 -22.5v-23.5v-344h150v-274 h-473v596q0 42 -13 76t-36 58t-54.5 37.5t-69.5 14.5h-4q-48 0 -100.5 -22.5t-101.5 -84.5v-401h166v-274h-644v274h154v488h-152v274z"/>
<glyph glyph-name="n" horiz-adv-x="1460" unicode="n" d="M932 596q0 87 -46 136.5t-122 49.5q-52 0 -105 -23t-103 -86v-399h168v-274h-644v274h152v488h-150v274h472v-91q65 51 145.5 80.5t169.5 29.5q187 0 288 -104.5t101 -305.5v-371h147v-274h-473v596z"/>
<glyph glyph-name="o" d="M371 522q0 -59 20 -108.5t54.5 -85.5t80 -56t97.5 -20q53 0 98.5 19.5t79 55.5t52.5 85.5t19 109.5q0 62 -19 112t-53 85q-32 35 -78 53q-43 18 -94 18h-5.5h-4.5q-48 0 -92 -18q-46 -18 -80.5 -53t-54.5 -85t-20 -112zM72 522q0 113 41 212t114 173t174 117t222 43 t222.5 -43t174.5 -117t113.5 -173t40.5 -212t-39.5 -212.5t-112 -174t-174 -117.5t-225.5 -43q-125 0 -226.5 43t-173.5 117t-111.5 173.5t-39.5 213.5z" unicode="o"/>
<glyph glyph-name="p" horiz-adv-x="1368" unicode="p" d="M750 791q-63 0 -118 -33t-93 -93v-292q32 -51 87 -83t124 -32q51 0 97 19.5t80 55t54 84t20 105.5q0 63 -19.5 113t-53.5 84.5t-80 53t-98 18.5zM119 1036h452v-15q48 21 98 33.5t103 12.5q114 0 212 -43t170 -117t112.5 -173t40.5 -210q0 -112 -39.5 -211t-110.5 -172.5 t-169.5 -116t-215.5 -42.5q-66 0 -123 12.5t-110 35.5v-227h198v-274h-676v274h170v959h-112v274z"/>
<glyph glyph-name="q" horiz-adv-x="1333" unicode="q" d="M621 258q62 0 113.5 28.5t86.5 78.5v321q-35 49 -89 77t-114 28q-51 0 -97 -19t-80 -54t-54 -84t-20 -110q0 -62 20 -111.5t54.5 -84t80.5 -52.5t99 -18zM606 -197h215v234q-53 -26 -107.5 -41.5t-111.5 -15.5q-119 0 -218.5 42.5t-171 117t-111.5 174.5t-40 214 q0 111 39.5 209t110 171.5t169 116t216.5 42.5q63 0 118.5 -12t106.5 -34v46h307v-1264h154v-274h-676v274z"/>
<glyph glyph-name="r" horiz-adv-x="1110" unicode="r" d="M1020 659h-281v107q-41 0 -75 -5.5t-59.5 -18.5t-43 -36t-24.5 -57v-375h211v-274h-676v274h155v488h-153v274h461v-73q44 35 99 54t120 19q66 0 136 -1t130 -1v-375z"/>
<glyph glyph-name="s" horiz-adv-x="1102" unicode="s" d="M725.5 765q-15.5 22 -45.5 38.5t-73.5 26.5t-98.5 10q-21 0 -45 -3.5t-44.5 -12.5t-34 -24.5t-13.5 -39.5q0 -12 3.5 -23t13.5 -21t27.5 -18.5t45.5 -13.5l188 -37q102 -20 171 -50t111 -70t60.5 -89t18.5 -106q0 -89 -41.5 -156t-109 -111.5t-152 -67t-170.5 -22.5 q-56 0 -101.5 7t-82 19t-65 28.5t-52.5 36.5h-181v278h283v-6q1 -29 18 -50.5t44.5 -36.5t62.5 -22.5t74 -7.5q90 0 131 23.5t41 60.5q0 29 -20 49.5t-71 32.5l-192 41q-181 35 -273 116.5t-92 209.5q0 75 35 136.5t95 105t140.5 67.5t172.5 24q63 0 112 -7.5t88 -19.5 t68.5 -28.5t52.5 -34.5h174v-278h-258q0 24 -15.5 46z"/>
<glyph glyph-name="t" horiz-adv-x="800" unicode="t" d="M471 1036h207v-262h-209l-2 -438q0 -38 6 -61.5t17.5 -37.5t27.5 -19t37 -5q38 0 67 7.5t58 17.5l43 -193q-51 -32 -113.5 -51t-148.5 -19q-61 0 -116.5 21t-97.5 63.5t-67 106.5q-24 62 -24 142v7l3 459h-149v262h150l2 248l311 148z"/>
<glyph glyph-name="u" horiz-adv-x="1410" unicode="u" d="M723 1036h490v-762h125v-274h-439v88q-53 -48 -124 -74t-164 -26q-86 0 -162 27t-132.5 81.5t-89 136.5t-32.5 193v336h-135v274h458v-610q0 -104 53 -155.5t138 -51.5q60 0 109 37t71 100v406h-166v274z"/>
<glyph glyph-name="v" horiz-adv-x="1257" unicode="v" d="M41 1036h541v-274h-126l169 -445l163 445h-112v274h541v-274h-138l-309 -766h-305l-309 766h-115v274z"/>
<glyph glyph-name="w" horiz-adv-x="1898" unicode="w" d="M41 1036h541v-274h-117l110 -369l213 643h293l215 -676l132 402h-111v274h541v-274h-139l-277 -766h-299l-217 661l-221 -661h-291l-257 766h-116v274z"/>
<glyph glyph-name="x" horiz-adv-x="1235" unicode="x" d="M686 274h59l-129 123l-134 -123h67v-274h-488v274h103l257 252l-238 236h-122v274h488v-274h-47l121 -107l116 107h-55v274h487v-274h-114l-239 -237l253 -251h103v-274h-488v274z"/>
<glyph glyph-name="y" horiz-adv-x="1241" unicode="y" d="M51 1036h508v-274h-80l149 -388l153 388h-89v274h508v-274h-113l-401 -959h178v-274h-643v274h181l78 197l-324 762h-105v274z"/>
<glyph glyph-name="z" horiz-adv-x="1140" unicode="z" d="M94 164l429 606h-201v-156h-261v422h908v-180l-451 -588h230v199h262v-467h-916v164z"/>
<glyph glyph-name="braceleft" horiz-adv-x="897" unicode="{" d="M102 797q35 6 66.5 7t58 5t47.5 14t35.5 33.5t22.5 63t8 102.5v401q0 97 19 164t57 108t94 59t131 18q47 0 83 -1.5t61 -3.5q29 -2 51 -4v-307q-47 -2 -75.5 -9.5t-44.5 -24.5t-21 -46t-5 -73v-410q0 -33 -4.5 -60.5t-16.5 -50.5t-34 -42.5t-57 -35.5q36 -15 58 -36.5 t34 -47.5t16 -55.5t4 -60.5v-371q0 -51 5 -82.5t21 -48.5t44.5 -24t75.5 -9v-327q-22 -3 -51 -5q-25 -2 -61 -3t-83 -1q-75 0 -131 18t-94 59t-57 107.5t-19 164.5v475q-7 62 -28 90.5t-53 39.5t-72 11.5t-85 7.5v191z"/>
<glyph glyph-name="bar" horiz-adv-x="594" unicode="|" d="M123 1729h252v-1999h-252v1999z"/>
<glyph glyph-name="braceright" horiz-adv-x="897" unicode="}" d="M61 -358v327q47 2 75.5 9t44.5 24t21 48.5t5 82.5v371q0 31 4 60.5t16 55.5t34 47.5t58 36.5q-35 16 -57 35.5t-34 42.5t-16.5 50.5t-4.5 60.5v410q0 44 -5 73t-21 46t-44.5 24.5t-75.5 9.5v307q22 2 51 4q25 2 60.5 3.5t83.5 1.5q62 0 111.5 -12.5t86.5 -40t60.5 -71.5 t34.5 -108q5 -26 6.5 -55.5t1.5 -61.5v-321q0 -86 6 -140t18.5 -85.5t31.5 -45.5t45.5 -19.5t60.5 -7t76 -7.5v-191q-45 -7 -85 -7.5t-72 -11.5t-53 -39.5t-28 -90.5v-475q0 -32 -1.5 -61.5t-6.5 -55.5q-11 -64 -34.5 -108t-60.5 -71.5t-86.5 -40t-111.5 -12.5 q-48 0 -83.5 1t-60.5 3q-29 2 -51 5z"/>
<glyph glyph-name="asciitilde" horiz-adv-x="905" unicode="~" d="M-8 512q0 30 5 66t16.5 72.5t31.5 70.5t50 60.5t72 42.5t97 16q24 0 55.5 -11t66.5 -27t72 -35t71.5 -35t64 -26t51.5 -10q47 0 69.5 27.5t30.5 87.5l185 -41q0 -45 -12.5 -100.5t-45.5 -104.5t-90 -84t-147 -35q-55 0 -108 23.5t-101.5 50t-90.5 48.5t-75 22 q-19 0 -36 -5.5t-30 -19t-21 -35.5t-9 -55z"/>
<glyph glyph-name="NOBREAKSPACE" horiz-adv-x="410" unicode=" "/>
<glyph glyph-name="exclamdown" horiz-adv-x="696" unicode="¡" d="M180 596h287l41 -1067h-369zM139 985q0 37 13.5 69.5t37.5 56.5t56.5 38t70.5 14q36 0 68 -14t56 -38t38 -56.5t14 -69.5t-14 -69.5t-38 -56.5t-56 -38t-68 -14q-38 0 -70.5 14t-56.5 38t-37.5 56.5t-13.5 69.5z"/>
<glyph glyph-name="cent" d="M461 -188v348q-88 24 -159.5 74.5t-122.5 120.5t-79 156.5t-28 182.5q0 97 28 183t79.5 155t123 118.5t158.5 73.5v355h332v-361q35 -11 69.5 -26t66.5 -35h199v-301h-276q-43 50 -96 77.5t-125 27.5q-58 0 -105.5 -20t-82 -56t-53.5 -85.5t-19 -107.5q0 -59 20 -108 t54.5 -84.5t82 -55.5t103.5 -20q47 0 85.5 15.5t68.5 40t51.5 55t33.5 61.5l275 -80q-14 -48 -42.5 -100.5t-72.5 -100.5t-103.5 -87.5t-133.5 -62.5v-353h-332z" unicode="¢"/>
<glyph glyph-name="sterling" horiz-adv-x="1065" unicode="£" d="M41 829h100q-9 43 -14.5 90.5t-5.5 104.5q0 100 34.5 180t94.5 136.5t140.5 87t172.5 30.5q209 0 326.5 -111t134.5 -329l-336 -12q-3 80 -35.5 119.5t-83.5 39.5q-46 0 -79 -33t-33 -106q0 -31 5.5 -65t16 -64.5t24.5 -67.5h269v-245h-173q7 -39 7.5 -62.5t0.5 -27.5 q0 -38 -4.5 -77t-14.5 -76.5t-23 -66.5h420v-274h-899v274h160q15 54 16.5 92t1.5 49q0 48 -10 80.5t-16 51t-14 37.5h-183v245z"/>
<glyph glyph-name="currency" horiz-adv-x="1438" unicode="¤" d="M469 750q0 -53 19.5 -99t53.5 -80t80 -53.5t99 -19.5q52 0 98 19.5t80 53.5t54 80t20 99t-20 99t-54 79.5t-80 53t-98 19.5q-53 0 -99 -19.5t-80 -53.5t-53.5 -80t-19.5 -98zM182 741q0 69 16.5 132.5t47.5 120.5l-195 212l264 242l194 -212q49 21 102 32.5t110 11.5 q56 0 109 -11.5t101 -31.5l193 211l265 -242l-194 -211q31 -57 48 -121t17 -133t-17 -133.5t-48 -121.5l179 -191l-264 -240l-178 191q-100 -43 -211 -43q-57 0 -111 11.5t-104 33.5l-176 -193l-264 240l178 195q-29 57 -45.5 119.5t-16.5 131.5z"/>
<glyph glyph-name="yen" horiz-adv-x="1536" unicode="¥" d="M842 1516h649v-275h-113l-246 -313h160v-258h-362l-2 -3v-57h364v-258h-364v-78h184v-274h-676v274h168v78h-360v258h360v60h-360v258h169l-232 313h-134v275h649v-275h-125l201 -307l214 307h-144v275z"/>
<glyph glyph-name="brokenbar" horiz-adv-x="594" unicode="¦" d="M123 487h252v-757h-252v757zM123 1729h252v-758h-252v758z"/>
<glyph glyph-name="section" horiz-adv-x="1169" unicode="§" d="M432 571q0 -38 16.5 -61t42.5 -37t58 -23t63 -20l31 -11q35 9 57 29q37 35 37 95q0 30 -13.5 50t-34.5 33.5t-47 23t-51 18.5l-31 10q-21 -1 -43 -5.5t-41.5 -17t-31.5 -33t-12 -51.5zM49 72h348v-91q3 -20 12 -46t33.5 -50.5t62.5 -38.5t90 -14q75 0 113.5 34t38.5 93 q0 30 -14 50t-36 33.5t-49 23t-53 18.5l-213 68q-57 18 -111.5 51t-97 82.5t-68.5 116t-26 151.5q0 100 33.5 169.5t82.5 115.5q-15 14 -43.5 47t-54.5 99t-26 151q0 101 38 178.5t104.5 129.5t158 78.5t199.5 26.5q95 0 174 -23.5t138.5 -62t89.5 -77.5t44 -68h95v-295 h-349v49h-2q2 12 2 23q0 25 -11 54.5t-37 55.5t-63 42t-79 16q-29 0 -56 -5t-48 -17.5t-33.5 -33t-12.5 -51.5q0 -39 17 -62t44 -37t59.5 -23t64.5 -19l264 -88q46 -16 87.5 -47.5t72.5 -76.5t49 -104t18 -131q0 -102 -31.5 -174t-74.5 -121q26 -23 53 -60.5t45.5 -96 t18.5 -129.5q0 -102 -37 -186t-104.5 -144t-162 -92.5t-208.5 -32.5q-90 0 -172 24t-146.5 68.5t-93 87.5t-39.5 66h-98v295z"/>
<glyph glyph-name="dieresis" horiz-adv-x="940" unicode="¨" d="M526 1343q0 37 14 69.5t38 57t56.5 38.5t70.5 14q36 0 68 -14t56 -38.5t38 -57t14 -69.5t-14 -69.5t-38 -56.5t-56 -38t-68 -14q-38 0 -70.5 14t-56.5 38t-38 56.5t-14 69.5zM47 1343q0 37 13.5 69.5t37.5 57t56.5 38.5t70.5 14q36 0 68 -14t56 -38.5t38 -57t14 -69.5 t-14 -69.5t-38 -56.5t-56 -38t-68 -14q-38 0 -70.5 14t-56.5 38t-37.5 56.5t-13.5 69.5z"/>
<glyph glyph-name="copyright" horiz-adv-x="1919" unicode="©" d="M1148 973q-32 42 -78.5 64.5t-100.5 22.5q-49 0 -90 -17.5t-71.5 -49t-48.5 -73.5t-18 -89t18 -89t48.5 -73t71.5 -48.5t90 -17.5q53 0 99 20.5t81 62.5l190 -191q-70 -74 -164.5 -117.5t-205.5 -43.5q-103 0 -193.5 39t-158 106.5t-106.5 157.5t-39 194t39 194.5 t106.5 157.5t158 106t193.5 39q112 0 207.5 -43t164.5 -117zM330 831q0 -88 22 -169t62.5 -151t97.5 -127.5t127 -98t150.5 -62.5t168.5 -22t169 22t150.5 62.5t126.5 98t97.5 127.5t62.5 151t22 169t-22 169t-62.5 150.5t-97.5 127t-126.5 98t-150.5 62.5t-169 22 q-87 0 -168 -22t-151 -62.5t-127 -98t-97.5 -127t-62.5 -150.5t-22 -169zM102 831q0 118 30.5 227.5t86 204.5t133.5 173t173 133.5t204.5 86t228.5 30.5q118 0 228 -30.5t205.5 -86t174 -133.5t134.5 -173t86.5 -204.5t30.5 -227.5q0 -119 -30.5 -228.5t-86.5 -204.5 t-134.5 -173t-174 -133.5t-205.5 -86t-228 -30.5q-119 0 -228.5 30.5t-204.5 86t-173 133.5t-133.5 173t-86 204.5t-30.5 228.5z"/>
<glyph glyph-name="ordfeminine" horiz-adv-x="1006" unicode="ª" d="M432 1050q85 0 138 33v70h-160q-11 0 -26 -7.5t-15 -32.5q0 -34 14 -48.5t49 -14.5zM571 909q-35 -18 -71 -25t-76 -7q-65 0 -114.5 16t-84 44.5t-52 67t-17.5 103.5q0 44 13 79t43 63.5t78.5 46.5t119.5 18q45 0 84 -5t74 -10q-4 52 -38.5 65t-87.5 13q-58 0 -102.5 -8 t-93.5 -33l-72 141q74 50 148.5 74.5t162.5 24.5q65 0 121 -13.5t97 -43.5t64.5 -79.5t23.5 -121.5v-224h94v-203h-314v17z"/>
<glyph glyph-name="guillemotleft" horiz-adv-x="1038" unicode="«" d="M1008 223h-230l-256 370v74l260 369h224l-211 -406zM567 223h-229l-256 370v74l260 369h223l-211 -406z"/>
<glyph glyph-name="logicalnot" horiz-adv-x="1597" unicode="¬" d="M1526 1036v-788h-287v534h-1188v254h1475z"/>
<glyph glyph-name="SOFTHYPHEN" horiz-adv-x="0" unicode="­"/>
<glyph glyph-name="registered" horiz-adv-x="1919" unicode="®" d="M317 831q0 -90 22.5 -172.5t64 -154t99.5 -130t129.5 -100t153.5 -64t172 -22.5t172.5 22.5t153.5 64t129 100t99.5 130t64 154t22.5 172.5t-22.5 172.5t-64 153.5t-99.5 129.5t-129 100t-153.5 64t-172.5 22.5q-89 0 -171.5 -22.5t-154 -64t-129.5 -100t-99.5 -129.5 t-64 -153.5t-22.5 -172.5zM102 831q0 118 30.5 227.5t86 204.5t133.5 173t173 133.5t204.5 86t228.5 30.5q118 0 228 -30.5t205.5 -86t174 -133.5t134.5 -173t86.5 -204.5t30.5 -227.5q0 -119 -30.5 -228.5t-86.5 -204.5t-134.5 -173t-174 -133.5t-205.5 -86t-228 -30.5 q-119 0 -228.5 30.5t-204.5 86t-173 133.5t-133.5 173t-86 204.5t-30.5 228.5zM881 1082v-182h66q69 0 109 19.5t40 69.5q0 44 -38 68.5t-102 24.5h-75zM528 585h95v497h-91v211h532q79 0 138 -25t98.5 -64.5t59.5 -87.5t20 -93q0 -52 -17.5 -96t-55.5 -79t-86 -54 q35 -14 56 -41t33 -88l15 -80h78v-212h-328l-15 194q-5 63 -14.5 85t-29.5 34t-69 12h-66v-113h79v-212h-432v212z"/>
<glyph glyph-name="macron" horiz-adv-x="831" unicode="¯" d="M770 1176h-688v215h688v-215z"/>
<glyph glyph-name="degree" horiz-adv-x="815" unicode="°" d="M258 1389q0 -29 12 -56t32 -47.5t46 -32.5t55 -12q34 0 62.5 11t48.5 31t31.5 48t11.5 62t-11 63t-31 49t-47.5 31.5t-59.5 11.5t-59 -12t-47.5 -33.5t-32 -50.5t-11.5 -63zM410 1706q64 0 120 -23.5t97 -65t64.5 -98.5t23.5 -124q0 -65 -23.5 -121.5t-64.5 -99t-97 -67 t-120 -24.5q-65 0 -121.5 24.5t-98 67t-65 100t-23.5 122.5q0 64 24 120t66 98t98 66.5t120 24.5z"/>
<glyph glyph-name="plusminus" horiz-adv-x="1229" unicode="±" d="M102 274h1024v-274h-1024v274zM102 948h363v363h297v-363h364v-297h-364v-323h-297v323h-363v297z"/>
<glyph glyph-name="twosuperior" horiz-adv-x="721" unicode="²" d="M86 1034l270 201q22 17 33.5 30.5t17 24.5t6.5 19.5t1 15.5q0 17 -13 29t-39 12q-20 0 -31.5 -7.5t-17 -18t-7 -21t-1.5 -16.5h-225v6q0 67 22 118t62 85t94.5 50.5t118.5 16.5q50 0 100 -14t90.5 -43t66 -72.5t25.5 -103.5q0 -30 -6.5 -53.5t-18.5 -43t-28.5 -36 t-36.5 -33.5l-159 -133h249v-205h-573v192z"/>
<glyph glyph-name="threesuperior" horiz-adv-x="721" unicode="³" d="M410 1339q0 19 -14 36t-42 17q-25 0 -43 -15.5t-18 -55.5h-219v12q0 50 16 97t52 83.5t91 57t128 20.5q55 0 106 -18.5t90 -50.5t62 -75.5t23 -93.5q0 -46 -15.5 -78.5t-32.5 -52.5q18 -16 33.5 -39.5t22 -51t6.5 -56.5q0 -48 -22 -94t-62 -81.5t-94.5 -56t-118.5 -20.5 q-74 0 -130 21.5t-94 59t-57.5 88.5t-19.5 110h219q0 -24 7.5 -41t23 -29t45.5 -12q26 0 41 9.5t22.5 24.5t7.5 33q0 29 -19 44.5t-52 15.5h-99v133h108q20 0 34 16t14 43z"/>
<glyph glyph-name="acute" horiz-adv-x="680" unicode="´" d="M256 1489h326v-25l-306 -286h-235z"/>
<glyph glyph-name="mu" horiz-adv-x="1350" unicode="µ" d="M1183 274h125v-274h-438v88q-53 -48 -124.5 -74t-164.5 -26q-50 0 -95 9v-468h-332v1507h335v-610q0 -104 53 -155.5t137 -51.5q60 0 109.5 37.5t71.5 99.5v680h323v-762z"/>
<glyph glyph-name="paragraph" horiz-adv-x="1417" unicode="¶" d="M436 532q-77 21 -145 62t-119 101.5t-81 140t-30 178.5q0 105 42 196.5t119 159.5t186 107t243 39h684v-275h-141v-1603h-293v1603h-172v-1603h-293v894z"/>
<glyph glyph-name="periodcentered" horiz-adv-x="721" unicode="·" d="M201 633q0 37 13.5 69.5t37.5 56.5t56.5 38t70.5 14q36 0 68 -14t56 -38t38 -56.5t14 -69.5t-14 -69.5t-38 -56.5t-56 -38t-68 -14q-38 0 -70.5 14t-56.5 38t-37.5 56.5t-13.5 69.5z"/>
<glyph glyph-name="cedilla" horiz-adv-x="926" unicode="¸" d="M182 -293q41 3 77.5 19.5t66 46.5t51 73.5t31.5 100.5l243 -86q-23 -79 -65 -138t-100 -98t-128.5 -59t-150.5 -21z"/>
<glyph glyph-name="onesuperior" horiz-adv-x="539" unicode="¹" d="M51 1034h131v250l-141 -67v233l238 127h112v-543h121v-194h-461v194z"/>
<glyph glyph-name="ordmasculine" horiz-adv-x="883" unicode="º" d="M287 1210q0 -25 12 -50t33 -44.5t49.5 -32t60.5 -12.5t60 12.5t48.5 32t32 44.5t11.5 50q0 28 -11.5 52.5t-32 43t-48.5 29.5t-60 11t-60.5 -11t-49.5 -29.5t-33 -43t-12 -52.5zM61 1210q0 73 28.5 139.5t79 117t120.5 80.5t153 30q82 0 152 -30t120 -81t78.5 -117.5 t28.5 -138.5q0 -73 -27.5 -139.5t-77.5 -117.5t-119.5 -81t-154.5 -30q-86 0 -156 30t-120 81t-77.5 117.5t-27.5 139.5z"/>
<glyph glyph-name="guillemotright" horiz-adv-x="1100" unicode="»" d="M684 630l-211 406h223l260 -369v-74l-256 -370h-229zM244 630l-211 406h223l260 -369v-74l-256 -370h-229z"/>
<glyph glyph-name="onequarter" horiz-adv-x="2145" unicode="¼" d="M1517 1577h256l-1245 -1638h-262zM1264 348l280 416h215l-282 -422h168v166h202v-166h105v-160h-105v-182h-202v182h-379zM290 1034h129v248l-139 -65v233l237 129l113 -2v-543h121v-194h-461v194z"/>
<glyph glyph-name="onehalf" horiz-adv-x="2145" unicode="½" d="M1517 1577h256l-1245 -1638h-262zM290 1034h129v248l-139 -65v233l237 129l113 -2v-543h121v-194h-461v194zM1291 193l270 221q43 35 50.5 54t7.5 26q0 22 -11.5 32.5t-36.5 10.5q-34 0 -47.5 -20.5t-13.5 -43.5h-225q0 72 21.5 124t61.5 86t95 50.5t119 16.5 q49 0 100 -13.5t91 -42t65.5 -74t25.5 -110.5q0 -53 -20.5 -78.5t-26.5 -32.5l-203 -174h250v-225h-573v193z"/>
<glyph glyph-name="threequarters" horiz-adv-x="2145" unicode="¾" d="M1517 1577h256l-1245 -1638h-262zM1249 348l280 416h215l-282 -422h168v166h202v-166h105v-160h-105v-182h-202v182h-379zM590 1386q0 21 -11 37t-48 16q-23 0 -40.5 -15t-17.5 -56h-219v12q0 50 16 94q18 49 53.5 86t89.5 57.5t128 20.5q55 0 106.5 -18.5t89 -50 t61.5 -75.5t24 -94q0 -47 -15.5 -79.5t-32.5 -53.5q25 -20 43.5 -62t18.5 -83q0 -47 -22.5 -93t-61.5 -81t-94.5 -56.5t-118.5 -21.5q-74 0 -130 21.5t-94 58.5t-57.5 88t-19.5 111h219q0 -29 19.5 -55.5t56.5 -26.5q35 0 53 23.5t18 47.5q0 17 -13 36.5t-54 19.5h-103v133 h113q25 0 34 18.5t9 40.5z"/>
<glyph glyph-name="questiondown" horiz-adv-x="1100" unicode="¿" d="M748 709q0 -70 -2 -123t-8.5 -94.5t-19 -74t-33 -60.5t-51 -54.5t-72.5 -56.5q-46 -38 -76 -69.5t-47 -62.5t-24 -64t-7 -74q0 -59 29.5 -96t79.5 -37q31 0 57.5 7t46.5 26t31.5 52t11.5 85l318 -31q-2 -110 -38.5 -191.5t-100 -135.5t-150 -80.5t-188.5 -26.5 q-95 0 -178 28t-144.5 83t-97 135t-35.5 184q0 109 50 200t153 172q53 38 88 71t56 72t29.5 90t8.5 126h313zM380 964q0 37 13.5 69.5t37.5 56.5t56.5 38t70.5 14q36 0 68 -14t56 -38t38 -56.5t14 -69.5t-14 -69.5t-38 -56.5t-56 -38t-68 -14q-38 0 -70.5 14t-56.5 38 t-37.5 56.5t-13.5 69.5z"/>
<glyph glyph-name="Agrave" horiz-adv-x="1491" unicode="À" d="M589 748h306l-154 493zM893 274h151l-68 218h-466l-68 -218h160v-274h-575v274h113l413 1242h401l404 -1242h110v-274h-575v274zM658 1657l-293 286v25h326l196 -311h-229z"/>
<glyph glyph-name="Aacute" horiz-adv-x="1491" unicode="Á" d="M589 748h306l-154 493zM893 274h151l-68 218h-466l-68 -218h160v-274h-575v274h113l413 1242h401l404 -1242h110v-274h-575v274zM852 1968h326v-25l-306 -286h-235z"/>
<glyph glyph-name="Acircumflex" horiz-adv-x="1491" unicode="Â" d="M589 748h306l-154 493zM893 274h151l-68 218h-466l-68 -218h160v-274h-575v274h113l413 1242h401l404 -1242h110v-274h-575v274zM383 1655l272 325h240l274 -325h-245l-148 153l-145 -153h-248z"/>
<glyph glyph-name="Atilde" horiz-adv-x="1491" unicode="Ã" d="M589 748h306l-154 493zM893 274h151l-68 218h-466l-68 -218h160v-274h-575v274h113l413 1242h401l404 -1242h110v-274h-575v274zM571 1958q42 0 81 -14.5t76.5 -32t73 -32t70.5 -14.5q42 0 74.5 15t58.5 53l158 -70q-15 -45 -42.5 -84t-63.5 -68.5t-79 -46t-90 -16.5 q-52 0 -94 13.5t-79.5 30t-73.5 30.5t-76 14q-45 0 -76 -18.5t-51 -44.5l-152 70q14 54 47.5 94t74.5 67t84.5 40.5t78.5 13.5z"/>
<glyph glyph-name="Adieresis" horiz-adv-x="1491" unicode="Ä" d="M589 748h306l-154 493zM893 274h151l-68 218h-466l-68 -218h160v-274h-575v274h113l413 1242h401l404 -1242h110v-274h-575v274zM802 1820q0 37 14 69.5t38 57t56.5 38.5t70.5 14q36 0 68 -14t56 -38.5t38 -57t14 -69.5t-14 -69.5t-38 -56.5t-56 -38t-68 -14 q-38 0 -70.5 14t-56.5 38t-38 56.5t-14 69.5zM323 1820q0 37 13.5 69.5t37.5 57t56.5 38.5t70.5 14q36 0 68 -14t56 -38.5t38 -57t14 -69.5t-14 -69.5t-38 -56.5t-56 -38t-68 -14q-38 0 -70.5 14t-56.5 38t-37.5 56.5t-13.5 69.5z"/>
<glyph glyph-name="Aring" horiz-adv-x="1491" unicode="Å" d="M618 1708q0 -53 36 -89t89 -36q54 0 88.5 36t34.5 89t-34.5 88t-88.5 35q-53 0 -89 -35t-36 -88zM588 748h307l-154 493zM893 274h151l-69 218h-465l-68 -218h160v-274h-575v274h112l398 1192q-52 45 -81.5 107.5t-29.5 134.5q0 66 25.5 123t68.5 100t100.5 68.5 t122.5 25.5q66 0 123.5 -25.5t100.5 -68.5t68.5 -100t25.5 -123t-25.5 -125t-70.5 -102l393 -1207h110v-274h-575v274z"/>
<glyph glyph-name="AE" horiz-adv-x="2093" unicode="Æ" d="M671 686h333v568zM-34 274h126l791 1242h1149v-517h-326v215h-370v-305h290v-274h-290v-361h370v269h326v-543h-1149v274h121v138h-497l-83 -138h116v-274h-574v274z"/>
<glyph glyph-name="Ccedilla" horiz-adv-x="1554" unicode="Ç" d="M1106 1055q-56 80 -101 113.5t-97 48t-109 14.5q-84 0 -156 -37.5t-124.5 -102t-82.5 -150t-30 -181.5q0 -97 29.5 -182.5t81.5 -149.5t124 -101.5t158 -37.5q60 0 112 19.5t94.5 51.5t74.5 73.5t50 86.5l322 -90q-31 -98 -91 -181.5t-144.5 -144.5t-190 -96t-227.5 -35 q-103 0 -197 28t-175.5 79t-148 123t-113.5 159.5t-73 188t-26 209.5q0 163 57 305.5t156 249t232.5 168t287.5 61.5q123 0 207 -30.5t185 -120.5h224v-338h-309zM475 -293q41 3 77.5 19.5t66 46.5t51 73.5t31.5 100.5l243 -86q-23 -79 -65 -138t-100 -98t-128.5 -59 t-150.5 -21z"/>
<glyph glyph-name="Egrave" horiz-adv-x="1380" unicode="È" d="M113 1516h1206v-517h-326v215h-389v-299h301v-290h-301v-351h389v269h326v-543h-1206v274h159v940h-159v302zM660 1657l-293 286v25h326l196 -311h-229z"/>
<glyph glyph-name="Eacute" horiz-adv-x="1380" unicode="É" d="M113 1516h1206v-517h-326v215h-389v-299h301v-290h-301v-351h389v269h326v-543h-1206v274h159v940h-159v302zM854 1968h326v-25l-306 -286h-235z"/>
<glyph glyph-name="Ecircumflex" horiz-adv-x="1380" unicode="Ê" d="M113 1516h1206v-517h-326v215h-389v-299h301v-290h-301v-351h389v269h326v-543h-1206v274h159v940h-159v302zM385 1655l272 325h240l274 -325h-245l-148 153l-145 -153h-248z"/>
<glyph glyph-name="Edieresis" horiz-adv-x="1380" unicode="Ë" d="M113 1516h1206v-517h-326v215h-389v-299h301v-290h-301v-351h389v269h326v-543h-1206v274h159v940h-159v302zM805 1820q0 37 14 69.5t38 57t56.5 38.5t70.5 14q36 0 68 -14t56 -38.5t38 -57t14 -69.5t-14 -69.5t-38 -56.5t-56 -38t-68 -14q-38 0 -70.5 14t-56.5 38 t-38 56.5t-14 69.5zM326 1820q0 37 13.5 69.5t37.5 57t56.5 38.5t70.5 14q36 0 68 -14t56 -38.5t38 -57t14 -69.5t-14 -69.5t-38 -56.5t-56 -38t-68 -14q-38 0 -70.5 14t-56.5 38t-37.5 56.5t-13.5 69.5z"/>
<glyph glyph-name="Igrave" horiz-adv-x="874" unicode="Ì" d="M113 1516h649v-274h-160v-968h160v-274h-649v274h157v968h-157v274zM349 1657l-293 286v25h326l196 -311h-229z"/>
<glyph glyph-name="Iacute" horiz-adv-x="874" unicode="Í" d="M113 1516h649v-274h-160v-968h160v-274h-649v274h157v968h-157v274zM543 1968h326v-25l-306 -286h-235z"/>
<glyph glyph-name="Icircumflex" horiz-adv-x="874" unicode="Î" d="M113 1516h649v-274h-160v-968h160v-274h-649v274h157v968h-157v274zM75 1655l272 325h240l274 -325h-245l-148 153l-145 -153h-248z"/>
<glyph glyph-name="Idieresis" horiz-adv-x="874" unicode="Ï" d="M113 1516h649v-274h-160v-968h160v-274h-649v274h157v968h-157v274zM460 1820q0 66 46 113t113 47q33 0 61.5 -12t50 -33.5t34 -51.5t12.5 -63q0 -32 -12.5 -62t-34 -51.5t-50 -33.5t-61.5 -12q-67 0 -113 47t-46 112zM83 1820q0 66 46 113t113 47q33 0 62 -12 t50.5 -33.5t33.5 -51.5t12 -63q0 -32 -12 -62t-33.5 -51.5t-50.5 -33.5t-62 -12q-67 0 -113 47t-46 112z"/>
<glyph glyph-name="Eth" horiz-adv-x="1468" unicode="Ð" d="M535 621v-347h127q81 0 153 38t125 103.5t84 154t31 190.5q0 101 -31 189t-84 153t-125 102t-153 37h-127v-346h157v-274h-157zM82 1516h582q104 0 199.5 -27t178 -76t150 -117.5t115.5 -152.5t74 -181t26 -202t-26 -202t-74 -181.5t-115.5 -154t-150 -119t-178 -76.5 t-199.5 -27h-582v274h121v347h-138v274h138v346h-121v275z"/>
<glyph glyph-name="Ntilde" horiz-adv-x="1698" unicode="Ñ" d="M1071 1516h576v-275h-123v-1241h-332l-631 980v-706h127v-274h-575v274h125v967h-123v275h458l627 -993v718h-129v275zM686 1958q42 0 81 -14.5t76.5 -32t73 -32t70.5 -14.5q42 0 74.5 15t58.5 53l158 -70q-15 -45 -42.5 -84t-63.5 -68.5t-79 -46t-90 -16.5 q-52 0 -94 13.5t-79.5 30t-73.5 30.5t-76 14q-45 0 -76 -18.5t-51 -44.5l-152 70q14 54 47.5 94t74.5 67t84.5 40.5t78.5 13.5z"/>
<glyph glyph-name="Ograve" horiz-adv-x="1599" unicode="Ò" d="M799 287q87 0 159.5 37.5t124.5 102t80.5 150t28.5 181.5q0 97 -29 183t-81.5 150.5t-124.5 102t-158 37.5t-158 -37.5t-124 -102t-81.5 -150.5t-29.5 -183q0 -96 29.5 -181.5t81.5 -150t124 -102t158 -37.5zM799 -27q-103 0 -197 28t-175.5 79t-148 122.5t-113.5 159 t-73 187.5t-26 209t26 209.5t73 188t113.5 159t148 122.5t175.5 79t197 28t197.5 -28t176 -79t148 -122.5t114 -159t73.5 -188t26 -209.5q0 -108 -26 -208.5t-73.5 -188t-114 -159t-148 -122.5t-176 -79t-197.5 -28zM711 1657l-293 286v25h326l196 -311h-229z"/>
<glyph glyph-name="Oacute" horiz-adv-x="1599" unicode="Ó" d="M799 287q87 0 159.5 37.5t124.5 102t80.5 150t28.5 181.5q0 97 -29 183t-81.5 150.5t-124.5 102t-158 37.5t-158 -37.5t-124 -102t-81.5 -150.5t-29.5 -183q0 -96 29.5 -181.5t81.5 -150t124 -102t158 -37.5zM799 -27q-103 0 -197 28t-175.5 79t-148 122.5t-113.5 159 t-73 187.5t-26 209t26 209.5t73 188t113.5 159t148 122.5t175.5 79t197 28t197.5 -28t176 -79t148 -122.5t114 -159t73.5 -188t26 -209.5q0 -108 -26 -208.5t-73.5 -188t-114 -159t-148 -122.5t-176 -79t-197.5 -28zM905 1968h326v-25l-306 -286h-235z"/>
<glyph glyph-name="Ocircumflex" horiz-adv-x="1599" unicode="Ô" d="M799 287q87 0 159.5 37.5t124.5 102t80.5 150t28.5 181.5q0 97 -29 183t-81.5 150.5t-124.5 102t-158 37.5t-158 -37.5t-124 -102t-81.5 -150.5t-29.5 -183q0 -96 29.5 -181.5t81.5 -150t124 -102t158 -37.5zM799 -27q-103 0 -197 28t-175.5 79t-148 122.5t-113.5 159 t-73 187.5t-26 209t26 209.5t73 188t113.5 159t148 122.5t175.5 79t197 28t197.5 -28t176 -79t148 -122.5t114 -159t73.5 -188t26 -209.5q0 -108 -26 -208.5t-73.5 -188t-114 -159t-148 -122.5t-176 -79t-197.5 -28zM436 1655l272 325h240l274 -325h-245l-148 153l-145 -153 h-248z"/>
<glyph glyph-name="Otilde" horiz-adv-x="1599" unicode="Õ" d="M799 287q87 0 159.5 37.5t124.5 102t80.5 150t28.5 181.5q0 97 -29 183t-81.5 150.5t-124.5 102t-158 37.5t-158 -37.5t-124 -102t-81.5 -150.5t-29.5 -183q0 -96 29.5 -181.5t81.5 -150t124 -102t158 -37.5zM799 -27q-103 0 -197 28t-175.5 79t-148 122.5t-113.5 159 t-73 187.5t-26 209t26 209.5t73 188t113.5 159t148 122.5t175.5 79t197 28t197.5 -28t176 -79t148 -122.5t114 -159t73.5 -188t26 -209.5q0 -108 -26 -208.5t-73.5 -188t-114 -159t-148 -122.5t-176 -79t-197.5 -28zM625 1958q42 0 81 -14.5t76.5 -32t73 -32t70.5 -14.5 q42 0 74.5 15t58.5 53l158 -70q-15 -45 -42.5 -84t-63.5 -68.5t-79 -46t-90 -16.5q-52 0 -94 13.5t-79.5 30t-73.5 30.5t-76 14q-45 0 -76 -18.5t-51 -44.5l-152 70q14 54 47.5 94t74.5 67t84.5 40.5t78.5 13.5z"/>
<glyph glyph-name="Odieresis" horiz-adv-x="1599" unicode="Ö" d="M799 287q87 0 159.5 37.5t124.5 102t80.5 150t28.5 181.5q0 97 -29 183t-81.5 150.5t-124.5 102t-158 37.5t-158 -37.5t-124 -102t-81.5 -150.5t-29.5 -183q0 -96 29.5 -181.5t81.5 -150t124 -102t158 -37.5zM799 -27q-103 0 -197 28t-175.5 79t-148 122.5t-113.5 159 t-73 187.5t-26 209t26 209.5t73 188t113.5 159t148 122.5t175.5 79t197 28t197.5 -28t176 -79t148 -122.5t114 -159t73.5 -188t26 -209.5q0 -108 -26 -208.5t-73.5 -188t-114 -159t-148 -122.5t-176 -79t-197.5 -28zM856 1820q0 37 14 69.5t38 57t56.5 38.5t70.5 14 q36 0 68 -14t56 -38.5t38 -57t14 -69.5t-14 -69.5t-38 -56.5t-56 -38t-68 -14q-38 0 -70.5 14t-56.5 38t-38 56.5t-14 69.5zM377 1820q0 37 13.5 69.5t37.5 57t56.5 38.5t70.5 14q36 0 68 -14t56 -38.5t38 -57t14 -69.5t-14 -69.5t-38 -56.5t-56 -38t-68 -14q-38 0 -70.5 14 t-56.5 38t-37.5 56.5t-13.5 69.5z"/>
<glyph glyph-name="multiply" horiz-adv-x="1239" unicode="×" d="M417 666l-356 387l222 200l336 -366l337 366l222 -200l-356 -387l343 -373l-221 -199l-325 352l-324 -352l-221 199z"/>
<glyph glyph-name="Oslash" horiz-adv-x="1591" unicode="Ø" d="M406 758q0 -70 15.5 -134.5t44.5 -119.5l516 675q-41 25 -86.5 38.5t-96.5 13.5q-86 0 -158 -37.5t-124 -102t-81.5 -150.5t-29.5 -183zM799 287q87 0 159.5 37.5t124.5 102t80.5 150t28.5 181.5q0 75 -18 143.5t-50 126.5l-519 -683q42 -28 91 -43t103 -15zM256 229 q-90 105 -140 240t-50 289q0 109 26 209.5t73 188t113.5 159t148 122.5t175.5 79t197 28q105 0 199.5 -29t177.5 -81l130 170h256l-230 -303q94 -106 148 -245t54 -298q0 -108 -26 -208.5t-73.5 -188t-114 -159t-148 -122.5t-176 -79t-197.5 -28q-108 0 -205.5 30.5 t-182.5 86.5l-94 -124h-262z"/>
<glyph glyph-name="Ugrave" horiz-adv-x="1561" unicode="Ù" d="M51 1516h608v-275h-139v-629q0 -86 19.5 -146t54.5 -98t83 -55.5t105 -17.5q59 0 107.5 15t83 51.5t53 97.5t18.5 153v629h-161v275h608v-275h-121v-590q0 -160 -46 -284.5t-126.5 -210.5t-189 -131t-232.5 -45q-123 0 -230 44.5t-186.5 129t-125.5 205.5t-46 274v608 h-137v275zM694 1657l-293 286v25h326l196 -311h-229z"/>
<glyph glyph-name="Uacute" horiz-adv-x="1561" unicode="Ú" d="M51 1516h608v-275h-139v-629q0 -86 19.5 -146t54.5 -98t83 -55.5t105 -17.5q59 0 107.5 15t83 51.5t53 97.5t18.5 153v629h-161v275h608v-275h-121v-590q0 -160 -46 -284.5t-126.5 -210.5t-189 -131t-232.5 -45q-123 0 -230 44.5t-186.5 129t-125.5 205.5t-46 274v608 h-137v275zM889 1968h326v-25l-306 -286h-235z"/>
<glyph glyph-name="Ucircumflex" horiz-adv-x="1561" unicode="Û" d="M51 1516h608v-275h-139v-629q0 -86 19.5 -146t54.5 -98t83 -55.5t105 -17.5q59 0 107.5 15t83 51.5t53 97.5t18.5 153v629h-161v275h608v-275h-121v-590q0 -160 -46 -284.5t-126.5 -210.5t-189 -131t-232.5 -45q-123 0 -230 44.5t-186.5 129t-125.5 205.5t-46 274v608 h-137v275zM420 1655l272 325h240l274 -325h-245l-148 153l-145 -153h-248z"/>
<glyph glyph-name="Udieresis" horiz-adv-x="1561" unicode="Ü" d="M51 1516h608v-275h-139v-629q0 -86 19.5 -146t54.5 -98t83 -55.5t105 -17.5q59 0 107.5 15t83 51.5t53 97.5t18.5 153v629h-161v275h608v-275h-121v-590q0 -160 -46 -284.5t-126.5 -210.5t-189 -131t-232.5 -45q-123 0 -230 44.5t-186.5 129t-125.5 205.5t-46 274v608 h-137v275zM839 1820q0 37 14 69.5t38 57t56.5 38.5t70.5 14q36 0 68 -14t56 -38.5t38 -57t14 -69.5t-14 -69.5t-38 -56.5t-56 -38t-68 -14q-38 0 -70.5 14t-56.5 38t-38 56.5t-14 69.5zM360 1820q0 37 13.5 69.5t37.5 57t56.5 38.5t70.5 14q36 0 68 -14t56 -38.5t38 -57 t14 -69.5t-14 -69.5t-38 -56.5t-56 -38t-68 -14q-38 0 -70.5 14t-56.5 38t-37.5 56.5t-13.5 69.5z"/>
<glyph glyph-name="Yacute" horiz-adv-x="1536" unicode="Ý" d="M47 1516h649v-275h-127l203 -348l215 348h-145v275h649v-275h-112l-451 -612v-355h184v-274h-676v274h168v359l-424 608h-133v275zM899 1968h326v-25l-306 -286h-235z"/>
<glyph glyph-name="Thorn" horiz-adv-x="1450" unicode="Þ" d="M603 920v-326h136q114 0 181 38.5t67 121.5q0 78 -63 122t-185 44h-136zM112 1516h649v-275h-158v-47h210q117 0 215 -33.5t169 -92.5t111 -139t40 -173q0 -85 -31.5 -163t-97.5 -138t-167 -95.5t-239 -35.5h-210v-50h158v-274h-649v274h159v967h-159v275z"/>
<glyph glyph-name="germandbls" horiz-adv-x="1354" unicode="ß" d="M682 979h72q37 1 59 16.5t37.5 37.5t24 47.5t8.5 47.5q0 79 -46.5 128t-129.5 49q-36 0 -65.5 -12.5t-50.5 -36t-32.5 -56.5t-11.5 -74v-1124h-37v-2h-473v274h207v908q0 70 31 141t90 128t145 92.5t197 35.5q107 0 193.5 -32.5t147 -88.5t93.5 -130.5t33 -158.5 q0 -50 -8.5 -91t-23.5 -74.5t-34.5 -59.5t-41.5 -46q105 -64 163.5 -168t58.5 -236q0 -128 -41 -223t-112.5 -158t-169 -94t-211.5 -31q-20 0 -37 1.5t-37 4.5l14 276q16 -3 28 -3.5t28 -0.5q45 0 84 16.5t67.5 45.5t45 68.5t16.5 86.5q0 44 -16.5 82.5t-45 67t-67 45 t-82.5 16.5h-68z"/>
<glyph glyph-name="agrave" horiz-adv-x="1280" unicode="à" d="M489 211q71 0 129 23t99 56v132h-240q-23 0 -45 -7t-39.5 -20t-28 -32t-10.5 -44q0 -46 33.5 -77t101.5 -31zM717 56q-35 -22 -64 -37.5t-58 -25t-60 -14t-68 -4.5q-93 0 -166.5 25.5t-124 70t-77.5 105t-27 131.5q0 72 27.5 133t79.5 104.5t127.5 68t172.5 24.5 q71 0 129.5 -7.5t108.5 -18.5v32q0 39 -15 67.5t-42 47t-65 27t-83 8.5q-94 0 -165.5 -18.5t-137.5 -53.5l-96 194q102 70 213.5 107t236.5 37q97 0 179.5 -21.5t141.5 -70t92.5 -126.5t33.5 -190v-377h139v-274h-432v56zM439 1178l-293 286v25h326l196 -311h-229z"/>
<glyph glyph-name="aacute" horiz-adv-x="1280" unicode="á" d="M489 211q71 0 129 23t99 56v132h-240q-23 0 -45 -7t-39.5 -20t-28 -32t-10.5 -44q0 -46 33.5 -77t101.5 -31zM717 56q-35 -22 -64 -37.5t-58 -25t-60 -14t-68 -4.5q-93 0 -166.5 25.5t-124 70t-77.5 105t-27 131.5q0 72 27.5 133t79.5 104.5t127.5 68t172.5 24.5 q71 0 129.5 -7.5t108.5 -18.5v32q0 39 -15 67.5t-42 47t-65 27t-83 8.5q-94 0 -165.5 -18.5t-137.5 -53.5l-96 194q102 70 213.5 107t236.5 37q97 0 179.5 -21.5t141.5 -70t92.5 -126.5t33.5 -190v-377h139v-274h-432v56zM633 1489h326v-25l-306 -286h-235z"/>
<glyph glyph-name="acircumflex" horiz-adv-x="1280" unicode="â" d="M489 211q71 0 129 23t99 56v132h-240q-23 0 -45 -7t-39.5 -20t-28 -32t-10.5 -44q0 -46 33.5 -77t101.5 -31zM717 56q-35 -22 -64 -37.5t-58 -25t-60 -14t-68 -4.5q-93 0 -166.5 25.5t-124 70t-77.5 105t-27 131.5q0 72 27.5 133t79.5 104.5t127.5 68t172.5 24.5 q71 0 129.5 -7.5t108.5 -18.5v32q0 39 -15 67.5t-42 47t-65 27t-83 8.5q-94 0 -165.5 -18.5t-137.5 -53.5l-96 194q102 70 213.5 107t236.5 37q97 0 179.5 -21.5t141.5 -70t92.5 -126.5t33.5 -190v-377h139v-274h-432v56zM164 1176l272 325h240l274 -325h-245l-148 153 l-145 -153h-248z"/>
<glyph glyph-name="atilde" horiz-adv-x="1280" unicode="ã" d="M489 211q71 0 129 23t99 56v132h-240q-23 0 -45 -7t-39.5 -20t-28 -32t-10.5 -44q0 -46 33.5 -77t101.5 -31zM717 56q-35 -22 -64 -37.5t-58 -25t-60 -14t-68 -4.5q-93 0 -166.5 25.5t-124 70t-77.5 105t-27 131.5q0 72 27.5 133t79.5 104.5t127.5 68t172.5 24.5 q71 0 129.5 -7.5t108.5 -18.5v32q0 39 -15 67.5t-42 47t-65 27t-83 8.5q-94 0 -165.5 -18.5t-137.5 -53.5l-96 194q102 70 213.5 107t236.5 37q97 0 179.5 -21.5t141.5 -70t92.5 -126.5t33.5 -190v-377h139v-274h-432v56zM352 1479q42 0 81 -14.5t76.5 -32t73 -32 t70.5 -14.5q42 0 74.5 15t58.5 53l158 -70q-15 -45 -42.5 -84t-63.5 -68.5t-79 -46t-90 -16.5q-52 0 -94 13.5t-79.5 30t-73.5 30.5t-76 14q-45 0 -76 -18.5t-51 -44.5l-152 70q14 54 47.5 94t74.5 67t84.5 40.5t78.5 13.5z"/>
<glyph glyph-name="adieresis" horiz-adv-x="1280" unicode="ä" d="M489 211q71 0 129 23t99 56v132h-240q-23 0 -45 -7t-39.5 -20t-28 -32t-10.5 -44q0 -46 33.5 -77t101.5 -31zM717 56q-35 -22 -64 -37.5t-58 -25t-60 -14t-68 -4.5q-93 0 -166.5 25.5t-124 70t-77.5 105t-27 131.5q0 72 27.5 133t79.5 104.5t127.5 68t172.5 24.5 q71 0 129.5 -7.5t108.5 -18.5v32q0 39 -15 67.5t-42 47t-65 27t-83 8.5q-94 0 -165.5 -18.5t-137.5 -53.5l-96 194q102 70 213.5 107t236.5 37q97 0 179.5 -21.5t141.5 -70t92.5 -126.5t33.5 -190v-377h139v-274h-432v56zM583 1342q0 37 14 69.5t38 57t56.5 38.5t70.5 14 q36 0 68 -14t56 -38.5t38 -57t14 -69.5t-14 -69.5t-38 -56.5t-56 -38t-68 -14q-38 0 -70.5 14t-56.5 38t-38 56.5t-14 69.5zM104 1342q0 37 13.5 69.5t37.5 57t56.5 38.5t70.5 14q36 0 68 -14t56 -38.5t38 -57t14 -69.5t-14 -69.5t-38 -56.5t-56 -38t-68 -14q-38 0 -70.5 14 t-56.5 38t-37.5 56.5t-13.5 69.5z"/>
<glyph glyph-name="aring" horiz-adv-x="1280" unicode="å" d="M489 211q71 0 129 23t99 56v132h-240q-23 0 -45 -7t-39.5 -20t-28 -32t-10.5 -44q0 -46 33.5 -77t101.5 -31zM717 56q-35 -22 -64 -37.5t-58 -25t-60 -14t-68 -4.5q-93 0 -166.5 25.5t-124 70t-77.5 105t-27 131.5q0 72 27.5 133t79.5 104.5t127.5 68t172.5 24.5 q71 0 129.5 -7.5t108.5 -18.5v32q0 39 -15 67.5t-42 47t-65 27t-83 8.5q-94 0 -165.5 -18.5t-137.5 -53.5l-96 194q102 70 213.5 107t236.5 37q97 0 179.5 -21.5t141.5 -70t92.5 -126.5t33.5 -190v-377h139v-274h-432v56zM400 1419q0 -26 10 -49t27 -40t39.5 -26.5 t48.5 -9.5t48.5 9.5t39 26.5t26 40t9.5 49t-9.5 48.5t-26 39t-39 26t-48.5 9.5t-48.5 -9.5t-39.5 -26t-27 -39t-10 -48.5zM525 1736q65 0 123 -25t101.5 -68t68.5 -101t25 -123t-25 -123t-68.5 -101.5t-101.5 -68.5t-123 -25t-123 25t-101 68.5t-68 101.5t-25 123t25 123 t68 101t101 68t123 25z"/>
<glyph glyph-name="ae" horiz-adv-x="1851" unicode="æ" d="M1245 831q-56 0 -95.5 -13.5t-66.5 -37t-43 -53.5t-25 -63h433q-7 34 -20 64t-36 53t-58.5 36.5t-88.5 13.5zM432 415q-22 -7 -39.5 -20t-28 -32t-10.5 -44q0 -46 33.5 -77t101.5 -31q93 0 159 30q55 26 101 64q-2 5 -4 11q-19 51 -28 106h-240q-23 0 -45 -7zM711 643 q0 79 -54 114.5t-145 35.5q-94 0 -165.5 -18.5t-137.5 -53.5l-96 194q102 70 213.5 107t236.5 37q97 0 178 -21.5t153 -83.5q60 51 137 84q100 43 222 43t216.5 -40.5t159.5 -112t100 -168t38 -164.5t3.5 -82.5t0.5 -19.5q0 -20 -2 -41h-763l3 -31q11 -45 37.5 -79t62.5 -57 t80 -34.5t89 -11.5t85.5 5.5t78.5 15t74 22t73 26.5l110 -205q-57 -35 -104.5 -59.5t-95.5 -40.5t-102 -23.5t-126 -7.5q-135 0 -240 44.5t-176 119.5q-28 -28 -64 -56.5t-84.5 -52.5t-108 -38.5t-131.5 -14.5q-93 0 -166.5 25.5t-124 70t-77.5 105t-27 131.5q0 72 27.5 133 t79.5 104.5t127.5 68t172.5 24.5q76 0 138 -8q50 -7 94 -16v30z"/>
<glyph glyph-name="ccedilla" horiz-adv-x="1180" unicode="ç" d="M856 678q-43 54 -96 82q-46 24 -107 24q-9 0 -18 -1q-10 1 -19 1q-46 0 -86 -17q-48 -20 -82.5 -56t-53.5 -85.5t-19 -111.5q0 -55 20 -104t54.5 -84.5t82 -55.5t103.5 -24q47 4 85.5 19.5t68.5 40t51.5 55t33.5 57.5l275 -76q-17 -60 -58.5 -125t-108 -118.5t-158 -88.5 t-208.5 -35q-119 0 -219 43.5t-172 118.5t-112.5 176t-40.5 217q0 115 41.5 213.5t114.5 172.5q74 73 174 114q92 37 197 37h21q12 1 25 1q71 0 138 -20q79 -23 150 -69h199v-301h-276zM295 -293q41 3 77.5 19.5t66 46.5t51 73.5t31.5 100.5l243 -86q-23 -79 -65 -138 t-100 -98t-128.5 -59t-150.5 -21z"/>
<glyph glyph-name="egrave" horiz-adv-x="1186" unicode="è" d="M588 831q-56 0 -95.5 -13.5t-66.5 -37t-43 -53.5t-25 -63h433q-7 34 -20 64t-36 53t-58.5 36.5t-88.5 13.5zM349 453l3 -31q11 -45 37.5 -79t62.5 -57t80 -34.5t89 -11.5t85.5 5.5t78.5 15t74 22t73 26.5l110 -205q-57 -35 -104.5 -59.5t-95.5 -40.5t-102 -23.5 t-126 -7.5q-135 0 -240 44.5t-176.5 120.5t-109 178t-37.5 216t39.5 214t111.5 174.5t172 117.5t222 43t216.5 -40.5t159.5 -112t100 -168t38 -207.5q4 -25 4 -49v-10q0 -20 -2 -41h-763zM500 1178l-293 286v25h326l196 -311h-229z"/>
<glyph glyph-name="eacute" horiz-adv-x="1186" unicode="é" d="M588 831q-56 0 -95.5 -13.5t-66.5 -37t-43 -53.5t-25 -63h433q-7 34 -20 64t-36 53t-58.5 36.5t-88.5 13.5zM349 453l3 -31q11 -45 37.5 -79t62.5 -57t80 -34.5t89 -11.5t85.5 5.5t78.5 15t74 22t73 26.5l110 -205q-57 -35 -104.5 -59.5t-95.5 -40.5t-102 -23.5 t-126 -7.5q-135 0 -240 44.5t-176.5 120.5t-109 178t-37.5 216t39.5 214t111.5 174.5t172 117.5t222 43t216.5 -40.5t159.5 -112t100 -168t38 -207.5q4 -25 4 -49v-10q0 -20 -2 -41h-763zM694 1489h326v-25l-306 -286h-235z"/>
<glyph glyph-name="ecircumflex" horiz-adv-x="1186" unicode="ê" d="M588 831q-56 0 -95.5 -13.5t-66.5 -37t-43 -53.5t-25 -63h433q-7 34 -20 64t-36 53t-58.5 36.5t-88.5 13.5zM349 453l3 -31q11 -45 37.5 -79t62.5 -57t80 -34.5t89 -11.5t85.5 5.5t78.5 15t74 22t73 26.5l110 -205q-57 -35 -104.5 -59.5t-95.5 -40.5t-102 -23.5 t-126 -7.5q-135 0 -240 44.5t-176.5 120.5t-109 178t-37.5 216t39.5 214t111.5 174.5t172 117.5t222 43t216.5 -40.5t159.5 -112t100 -168t38 -207.5q4 -25 4 -49v-10q0 -20 -2 -41h-763zM225 1176l272 325h240l274 -325h-245l-148 153l-145 -153h-248z"/>
<glyph glyph-name="edieresis" horiz-adv-x="1186" unicode="ë" d="M588 831q-56 0 -95.5 -13.5t-66.5 -37t-43 -53.5t-25 -63h433q-7 34 -20 64t-36 53t-58.5 36.5t-88.5 13.5zM349 453l3 -31q11 -45 37.5 -79t62.5 -57t80 -34.5t89 -11.5t85.5 5.5t78.5 15t74 22t73 26.5l110 -205q-57 -35 -104.5 -59.5t-95.5 -40.5t-102 -23.5 t-126 -7.5q-135 0 -240 44.5t-176.5 120.5t-109 178t-37.5 216t39.5 214t111.5 174.5t172 117.5t222 43t216.5 -40.5t159.5 -112t100 -168t38 -207.5q4 -25 4 -49v-10q0 -20 -2 -41h-763zM645 1342q0 37 14 69.5t38 57t56.5 38.5t70.5 14q36 0 68 -14t56 -38.5t38 -57 t14 -69.5t-14 -69.5t-38 -56.5t-56 -38t-68 -14q-38 0 -70.5 14t-56.5 38t-38 56.5t-14 69.5zM166 1342q0 37 13.5 69.5t37.5 57t56.5 38.5t70.5 14q36 0 68 -14t56 -38.5t38 -57t14 -69.5t-14 -69.5t-38 -56.5t-56 -38t-68 -14q-38 0 -70.5 14t-56.5 38t-37.5 56.5 t-13.5 69.5z"/>
<glyph glyph-name="igrave" horiz-adv-x="791" unicode="ì" d="M80 1037l467 -1v-762h142v-274h-608v274h156v488h-157v275zM335 1178l-293 286v25h326l196 -311h-229z"/>
<glyph glyph-name="iacute" horiz-adv-x="791" unicode="í" d="M80 1037l467 -1v-762h142v-274h-608v274h156v488h-157v275zM528 1489h326v-25l-306 -286h-235z"/>
<glyph glyph-name="icircumflex" horiz-adv-x="791" unicode="î" d="M80 1037l467 -1v-762h142v-274h-608v274h156v488h-157v275zM40 1176l229 325h203l232 -325h-207l-125 153l-123 -153h-209z"/>
<glyph glyph-name="idieresis" horiz-adv-x="791" unicode="ï" d="M80 1037l467 -1v-762h142v-274h-608v274h156v488h-157v275zM405 1342q0 66 46 113t113 47q33 0 61.5 -12t50 -33.5t34 -51.5t12.5 -63q0 -32 -12.5 -62t-34 -51.5t-50 -33.5t-61.5 -12q-67 0 -113 47t-46 112zM28 1342q0 66 46 113t113 47q33 0 62 -12t50.5 -33.5 t33.5 -51.5t12 -63q0 -32 -12 -62t-33.5 -51.5t-50.5 -33.5t-62 -12q-67 0 -113 47t-46 112z"/>
<glyph glyph-name="eth" horiz-adv-x="1220" unicode="ð" d="M607 711q-48 0 -91 -15t-74.5 -42t-50 -65t-18.5 -85q0 -49 20 -87.5t52.5 -65t73 -40.5t82.5 -14q58 0 100.5 19.5t70 50.5t41 67.5t13.5 71.5q0 50 -17 88.5t-46 64.5t-69.5 39t-86.5 13zM955 1213l-135 -33l180 -324q24 -43 46 -85t39.5 -85t27.5 -88.5t10 -95.5 q0 -105 -41.5 -196t-113 -158t-166.5 -105.5t-201 -38.5q-108 0 -204 38.5t-167 106.5t-112.5 161t-41.5 202q0 89 31.5 168t86.5 141.5t129 105t159 58.5q23 5 48 7.5t52 1.5l-65 114l-219 -53l-64 268l142 34l-101 177h350l57 -104l209 50z"/>
<glyph glyph-name="ntilde" horiz-adv-x="1460" unicode="ñ" d="M932 596q0 87 -46 136.5t-122 49.5q-52 0 -105 -23t-103 -86v-399h168v-274h-644v274h152v488h-150v274h472v-91q65 51 145.5 80.5t169.5 29.5q187 0 288 -104.5t101 -305.5v-371h147v-274h-473v596zM666 1479q42 0 81 -14.5t76.5 -32t73 -32t70.5 -14.5q42 0 74.5 15 t58.5 53l158 -70q-15 -45 -42.5 -84t-63.5 -68.5t-79 -46t-90 -16.5q-52 0 -94 13.5t-79.5 30t-73.5 30.5t-76 14q-45 0 -76 -18.5t-51 -44.5l-152 70q14 54 47.5 94t74.5 67t84.5 40.5t78.5 13.5z"/>
<glyph glyph-name="ograve" d="M371 522q0 -59 20 -108.5t54.5 -85.5t80 -56t97.5 -20q53 0 98.5 19.5t79 55.5t52.5 85.5t19 109.5q0 62 -19 112t-53 85q-32 35 -78 53q-43 18 -94 18h-5.5h-4.5q-48 0 -92 -18q-46 -18 -80.5 -53t-54.5 -85t-20 -112zM72 522q0 113 41 212t114 173t174 117t222 43 t222.5 -43t174.5 -117t113.5 -173t40.5 -212t-39.5 -212.5t-112 -174t-174 -117.5t-225.5 -43q-125 0 -226.5 43t-173.5 117t-111.5 173.5t-39.5 213.5zM529 1178l-293 286v25h326l196 -311h-229z" unicode="ò"/>
<glyph glyph-name="oacute" d="M371 522q0 -59 20 -108.5t54.5 -85.5t80 -56t97.5 -20q53 0 98.5 19.5t79 55.5t52.5 85.5t19 109.5q0 62 -19 112t-53 85q-32 35 -78 53q-43 18 -94 18h-5.5h-4.5q-48 0 -92 -18q-46 -18 -80.5 -53t-54.5 -85t-20 -112zM72 522q0 113 41 212t114 173t174 117t222 43 t222.5 -43t174.5 -117t113.5 -173t40.5 -212t-39.5 -212.5t-112 -174t-174 -117.5t-225.5 -43q-125 0 -226.5 43t-173.5 117t-111.5 173.5t-39.5 213.5zM723 1489h326v-25l-306 -286h-235z" unicode="ó"/>
<glyph glyph-name="ocircumflex" d="M371 522q0 -59 20 -108.5t54.5 -85.5t80 -56t97.5 -20q53 0 98.5 19.5t79 55.5t52.5 85.5t19 109.5q0 62 -19 112t-53 85q-32 35 -78 53q-43 18 -94 18h-5.5h-4.5q-48 0 -92 -18q-46 -18 -80.5 -53t-54.5 -85t-20 -112zM72 522q0 113 41 212t114 173t174 117t222 43 t222.5 -43t174.5 -117t113.5 -173t40.5 -212t-39.5 -212.5t-112 -174t-174 -117.5t-225.5 -43q-125 0 -226.5 43t-173.5 117t-111.5 173.5t-39.5 213.5zM254 1176l272 325h240l274 -325h-245l-148 153l-145 -153h-248z" unicode="ô"/>
<glyph glyph-name="otilde" d="M371 522q0 -59 20 -108.5t54.5 -85.5t80 -56t97.5 -20q53 0 98.5 19.5t79 55.5t52.5 85.5t19 109.5q0 62 -19 112t-53 85q-32 35 -78 53q-43 18 -94 18h-5.5h-4.5q-48 0 -92 -18q-46 -18 -80.5 -53t-54.5 -85t-20 -112zM72 522q0 113 41 212t114 173t174 117t222 43 t222.5 -43t174.5 -117t113.5 -173t40.5 -212t-39.5 -212.5t-112 -174t-174 -117.5t-225.5 -43q-125 0 -226.5 43t-173.5 117t-111.5 173.5t-39.5 213.5zM442 1479q42 0 81 -14.5t76.5 -32t73 -32t70.5 -14.5q42 0 74.5 15t58.5 53l158 -70q-15 -45 -42.5 -84t-63.5 -68.5 t-79 -46t-90 -16.5q-52 0 -94 13.5t-79.5 30t-73.5 30.5t-76 14q-45 0 -76 -18.5t-51 -44.5l-152 70q14 54 47.5 94t74.5 67t84.5 40.5t78.5 13.5z" unicode="õ"/>
<glyph glyph-name="odieresis" d="M371 522q0 -59 20 -108.5t54.5 -85.5t80 -56t97.5 -20q53 0 98.5 19.5t79 55.5t52.5 85.5t19 109.5q0 62 -19 112t-53 85q-32 35 -78 53q-43 18 -94 18h-5.5h-4.5q-48 0 -92 -18q-46 -18 -80.5 -53t-54.5 -85t-20 -112zM72 522q0 113 41 212t114 173t174 117t222 43 t222.5 -43t174.5 -117t113.5 -173t40.5 -212t-39.5 -212.5t-112 -174t-174 -117.5t-225.5 -43q-125 0 -226.5 43t-173.5 117t-111.5 173.5t-39.5 213.5zM673 1342q0 37 14 69.5t38 57t56.5 38.5t70.5 14q36 0 68 -14t56 -38.5t38 -57t14 -69.5t-14 -69.5t-38 -56.5t-56 -38 t-68 -14q-38 0 -70.5 14t-56.5 38t-38 56.5t-14 69.5zM194 1342q0 37 13.5 69.5t37.5 57t56.5 38.5t70.5 14q36 0 68 -14t56 -38.5t38 -57t14 -69.5t-14 -69.5t-38 -56.5t-56 -38t-68 -14q-38 0 -70.5 14t-56.5 38t-37.5 56.5t-13.5 69.5z" unicode="ö"/>
<glyph glyph-name="divide" horiz-adv-x="1270" unicode="÷" d="M445 145q0 37 13.5 69.5t37.5 57t56.5 38.5t70.5 14q36 0 68 -14t56 -38.5t38 -57t14 -69.5t-14 -69.5t-38 -56.5t-56 -38t-68 -14q-38 0 -70.5 14t-56.5 38t-37.5 56.5t-13.5 69.5zM445 907q0 37 13.5 69.5t37.5 56.5t56.5 38t70.5 14q36 0 68 -14t56 -38t38 -56.5 t14 -69.5t-14 -69.5t-38 -56.5t-56 -38t-68 -14q-38 0 -70.5 14t-56.5 38t-37.5 56.5t-13.5 69.5zM99 668h1125v-274h-1125v274z"/>
<glyph glyph-name="oslash" horiz-adv-x="1196" unicode="ø" d="M361 522q0 -66 24 -118l289 380q-26 7 -61 7q-52 0 -97.5 -18.5t-80 -53.5t-54.5 -85t-20 -112zM862 522q0 74 -28 133l-296 -392q36 -11 75 -11q53 0 98.5 19.5t79 55.5t52.5 85.5t19 109.5zM194 155q-63 73 -97.5 166.5t-34.5 200.5q0 113 41 212t114 173t174 117 t222 43q66 0 125.5 -13t113.5 -37l114 150h256l-204 -269q69 -74 107.5 -170t38.5 -206q0 -113 -39.5 -212.5t-112 -174t-174 -117.5t-225.5 -43q-71 0 -134 14t-119 40l-68 -90h-262z"/>
<glyph glyph-name="ugrave" horiz-adv-x="1409" unicode="ù" d="M723 1036h490v-762h125v-274h-439v88q-53 -48 -124 -74t-164 -26q-86 0 -162 27t-132.5 81.5t-89 136.5t-32.5 193v336h-135v274h458v-610q0 -104 53 -155.5t138 -51.5q60 0 109 37t71 100v406h-166v274zM559 1178l-293 286v25h326l196 -311h-229z"/>
<glyph glyph-name="uacute" horiz-adv-x="1409" unicode="ú" d="M723 1036h490v-762h125v-274h-439v88q-53 -48 -124 -74t-164 -26q-86 0 -162 27t-132.5 81.5t-89 136.5t-32.5 193v336h-135v274h458v-610q0 -104 53 -155.5t138 -51.5q60 0 109 37t71 100v406h-166v274zM754 1489h326v-25l-306 -286h-235z"/>
<glyph glyph-name="ucircumflex" horiz-adv-x="1409" unicode="û" d="M723 1036h490v-762h125v-274h-439v88q-53 -48 -124 -74t-164 -26q-86 0 -162 27t-132.5 81.5t-89 136.5t-32.5 193v336h-135v274h458v-610q0 -104 53 -155.5t138 -51.5q60 0 109 37t71 100v406h-166v274zM285 1176l272 325h240l274 -325h-245l-148 153l-145 -153h-248z "/>
<glyph glyph-name="udieresis" horiz-adv-x="1409" unicode="ü" d="M723 1036h490v-762h125v-274h-439v88q-53 -48 -124 -74t-164 -26q-86 0 -162 27t-132.5 81.5t-89 136.5t-32.5 193v336h-135v274h458v-610q0 -104 53 -155.5t138 -51.5q60 0 109 37t71 100v406h-166v274zM704 1342q0 37 14 69.5t38 57t56.5 38.5t70.5 14q36 0 68 -14 t56 -38.5t38 -57t14 -69.5t-14 -69.5t-38 -56.5t-56 -38t-68 -14q-38 0 -70.5 14t-56.5 38t-38 56.5t-14 69.5zM225 1342q0 37 13.5 69.5t37.5 57t56.5 38.5t70.5 14q36 0 68 -14t56 -38.5t38 -57t14 -69.5t-14 -69.5t-38 -56.5t-56 -38t-68 -14q-38 0 -70.5 14t-56.5 38 t-37.5 56.5t-13.5 69.5z"/>
<glyph glyph-name="yacute" horiz-adv-x="1241" unicode="ý" d="M51 1036h508v-274h-80l149 -388l153 388h-89v274h508v-274h-113l-401 -959h178v-274h-643v274h181l78 197l-324 762h-105v274zM731 1489h326v-25l-306 -286h-235z"/>
<glyph glyph-name="thorn" horiz-adv-x="1305" unicode="þ" d="M687 786q-63 0 -116.5 -28.5t-90.5 -79.5v-307q32 -48 85.5 -77.5t119.5 -29.5q51 0 97 19.5t80.5 54.5t54.5 83.5t20 106.5q0 59 -20 107t-54 81.5t-79.5 51.5t-96.5 18zM29 1556h451v-538q54 27 109 43t108 16q119 0 219 -43.5t172.5 -118t113 -174t40.5 -211.5 q0 -113 -39.5 -212.5t-110.5 -173.5t-169 -117t-215 -43q-124 0 -228 46v-227h225v-274h-676v274h144v1478h-144v275z"/>
<glyph glyph-name="ydieresis" horiz-adv-x="1241" unicode="ÿ" d="M51 1036h508v-274h-80l149 -388l153 388h-89v274h508v-274h-113l-401 -959h178v-274h-643v274h181l78 197l-324 762h-105v274zM682 1342q0 37 14 69.5t38 57t56.5 38.5t70.5 14q36 0 68 -14t56 -38.5t38 -57t14 -69.5t-14 -69.5t-38 -56.5t-56 -38t-68 -14 q-38 0 -70.5 14t-56.5 38t-38 56.5t-14 69.5zM203 1342q0 37 13.5 69.5t37.5 57t56.5 38.5t70.5 14q36 0 68 -14t56 -38.5t38 -57t14 -69.5t-14 -69.5t-38 -56.5t-56 -38t-68 -14q-38 0 -70.5 14t-56.5 38t-37.5 56.5t-13.5 69.5z"/>
<glyph glyph-name="Amacron" horiz-adv-x="1491" unicode="Ā" d="M589 748h306l-154 493zM893 274h151l-68 218h-466l-68 -218h160v-274h-575v274h113l413 1242h401l404 -1242h110v-274h-575v274zM1087 1655h-688v215h688v-215z"/>
<glyph glyph-name="amacron" horiz-adv-x="1280" unicode="ā" d="M489 211q71 0 129 23t99 56v132h-240q-23 0 -45 -7t-39.5 -20t-28 -32t-10.5 -44q0 -46 33.5 -77t101.5 -31zM717 56q-35 -22 -64 -37.5t-58 -25t-60 -14t-68 -4.5q-93 0 -166.5 25.5t-124 70t-77.5 105t-27 131.5q0 72 27.5 133t79.5 104.5t127.5 68t172.5 24.5 q71 0 129.5 -7.5t108.5 -18.5v32q0 39 -15 67.5t-42 47t-65 27t-83 8.5q-94 0 -165.5 -18.5t-137.5 -53.5l-96 194q102 70 213.5 107t236.5 37q97 0 179.5 -21.5t141.5 -70t92.5 -126.5t33.5 -190v-377h139v-274h-432v56zM868 1176h-688v215h688v-215z"/>
<glyph glyph-name="Abreve" horiz-adv-x="1491" unicode="Ă" d="M589 748h306l-154 493zM893 274h151l-68 218h-466l-68 -218h160v-274h-575v274h113l413 1242h401l404 -1242h110v-274h-575v274zM743 1636q-95 0 -167 21.5t-125 63t-89.5 101.5t-60.5 138h252q20 -60 67.5 -91.5t122.5 -31.5q72 0 118 29t71 94h250q-22 -77 -58 -137 t-89.5 -101.5t-125.5 -63.5t-166 -22z"/>
<glyph glyph-name="abreve" horiz-adv-x="1280" unicode="ă" d="M489 211q71 0 129 23t99 56v132h-240q-23 0 -45 -7t-39.5 -20t-28 -32t-10.5 -44q0 -46 33.5 -77t101.5 -31zM717 56q-35 -22 -64 -37.5t-58 -25t-60 -14t-68 -4.5q-93 0 -166.5 25.5t-124 70t-77.5 105t-27 131.5q0 72 27.5 133t79.5 104.5t127.5 68t172.5 24.5 q71 0 129.5 -7.5t108.5 -18.5v32q0 39 -15 67.5t-42 47t-65 27t-83 8.5q-94 0 -165.5 -18.5t-137.5 -53.5l-96 194q102 70 213.5 107t236.5 37q97 0 179.5 -21.5t141.5 -70t92.5 -126.5t33.5 -190v-377h139v-274h-432v56zM524 1157q-95 0 -167 21.5t-125 63t-89.5 101.5 t-60.5 138h252q20 -60 67.5 -91.5t122.5 -31.5q72 0 118 29t71 94h250q-22 -77 -58 -137t-89.5 -101.5t-125.5 -63.5t-166 -22z"/>
<glyph glyph-name="Aogonek" horiz-adv-x="1491" unicode="Ą" d="M588 748h307l-154 493zM27 274h112l414 1242h401l404 -1242h110v-274h-178q-45 0 -80.5 -13.5t-61.5 -36t-39 -52t-13 -62.5q0 -59 45 -88t104 -29q27 0 54.5 6.5t48.5 16.5l49 -186q-23 -13 -77 -27t-101 -14q-97 0 -168.5 21.5t-119.5 58t-71.5 88t-23.5 110.5 q0 68 27.5 120t64.5 77v284h116l-69 218h-465l-68 -218h160v-274h-575v274z"/>
<glyph glyph-name="aogonek" horiz-adv-x="1280" unicode="ą" d="M489 211q70 0 128.5 22.5t99.5 55.5v133h-193q-28 0 -58 -3t-54.5 -13.5t-41 -31t-16.5 -55.5q0 -47 34 -77.5t101 -30.5zM1098 0q-66 0 -113 -18.5t-76.5 -48t-44 -65.5t-14.5 -71q0 -53 29.5 -75.5t70.5 -22.5q33 0 58.5 6t46.5 16l49 -165q-10 -7 -30.5 -14t-46.5 -13 t-52.5 -10t-48.5 -4q-62 0 -113 14t-88 44t-58.5 77t-21.5 112q0 39 10.5 74t28.5 64.5t45 55.5t59 44v92q-57 -45 -140 -81t-181 -36q-92 0 -166 26t-125 70t-77.5 104.5t-26.5 131.5q0 72 27.5 132.5t79.5 104.5t128 68.5t172 24.5q23 0 44.5 -1t43.5 -3q41 -4 78 -9.5 t72 -13.5v33q0 78 -56.5 114t-148.5 36q-94 0 -166 -18.5t-137 -53.5l-96 194q102 70 213.5 107t236.5 37q99 0 180.5 -21.5t141 -69.5t92.5 -126t33 -191v-188v-189h137v-274h-49z"/>
<glyph glyph-name="Cacute" horiz-adv-x="1554" unicode="Ć" d="M1106 1055q-56 80 -101 113.5t-97 48t-109 14.5q-84 0 -156 -37.5t-124.5 -102t-82.5 -150t-30 -181.5q0 -97 29.5 -182.5t81.5 -149.5t124 -101.5t158 -37.5q60 0 112 19.5t94.5 51.5t74.5 73.5t50 86.5l322 -90q-31 -98 -91 -181.5t-144.5 -144.5t-190 -96t-227.5 -35 q-103 0 -197 28t-175.5 79t-148 123t-113.5 159.5t-73 188t-26 209.5q0 163 57 305.5t156 249t232.5 168t287.5 61.5q123 0 207 -30.5t185 -120.5h224v-338h-309zM905 1968h326v-25l-306 -286h-235z"/>
<glyph glyph-name="cacute" horiz-adv-x="1180" unicode="ć" d="M856 678q-43 54 -96 82q-46 24 -107 24q-9 0 -18 -1q-10 1 -19 1q-46 0 -86 -17q-48 -20 -82.5 -56t-53.5 -85.5t-19 -111.5q0 -55 20 -104t54.5 -84.5t82 -55.5t103.5 -24q47 4 85.5 19.5t68.5 40t51.5 55t33.5 57.5l275 -76q-17 -60 -58.5 -125t-108 -118.5t-158 -88.5 t-208.5 -35q-119 0 -219 43.5t-172 118.5t-112.5 176t-40.5 217q0 115 41.5 213.5t114.5 172.5q74 73 174 114q92 37 197 37h21q12 1 25 1q71 0 138 -20q79 -23 150 -69h199v-301h-276zM727 1489h326v-25l-306 -286h-235z"/>
<glyph glyph-name="Ccaron" horiz-adv-x="1554" unicode="Č" d="M1106 1055q-56 80 -101 113.5t-97 48t-109 14.5q-84 0 -156 -37.5t-124.5 -102t-82.5 -150t-30 -181.5q0 -97 29.5 -182.5t81.5 -149.5t124 -101.5t158 -37.5q60 0 112 19.5t94.5 51.5t74.5 73.5t50 86.5l322 -90q-31 -98 -91 -181.5t-144.5 -144.5t-190 -96t-227.5 -35 q-103 0 -197 28t-175.5 79t-148 123t-113.5 159.5t-73 188t-26 209.5q0 163 57 305.5t156 249t232.5 168t287.5 61.5q123 0 207 -30.5t185 -120.5h224v-338h-309zM1189 1941l-272 -325h-240l-274 325h246l147 -153l146 153h247z"/>
<glyph glyph-name="ccaron" horiz-adv-x="1180" unicode="č" d="M856 678q-43 54 -96 82q-46 24 -107 24q-9 0 -18 -1q-10 1 -19 1q-46 0 -86 -17q-48 -20 -82.5 -56t-53.5 -85.5t-19 -111.5q0 -55 20 -104t54.5 -84.5t82 -55.5t103.5 -24q47 4 85.5 19.5t68.5 40t51.5 55t33.5 57.5l275 -76q-17 -60 -58.5 -125t-108 -118.5t-158 -88.5 t-208.5 -35q-119 0 -219 43.5t-172 118.5t-112.5 176t-40.5 217q0 115 41.5 213.5t114.5 172.5q74 73 174 114q92 37 197 37h21q12 1 25 1q71 0 138 -20q79 -23 150 -69h199v-301h-276zM1011 1462l-272 -325h-240l-274 325h246l147 -153l146 153h247z"/>
<glyph glyph-name="Dcaron" horiz-adv-x="1468" unicode="Ď" d="M535 1241v-967h127q81 0 153 38t125 103.5t84 154t31 190.5q0 101 -31 189t-84 153t-125 102t-153 37h-127zM82 1516h582q104 0 199.5 -27t178 -76t150 -117.5t115.5 -152.5t74 -181t26 -202t-26 -202t-74 -181.5t-115.5 -154t-150 -119t-178 -76.5t-199.5 -27h-582v274 h121v967h-121v275zM1110 1859l-272 -325h-240l-274 325h246l147 -153l146 153h247z"/>
<glyph glyph-name="dcaron" horiz-adv-x="1741" unicode="ď" d="M630 256q66 2 119.5 34t88.5 84v305q-34 53 -90 83q-54 29 -114 28h-4h-5q-49 0 -93 -18q-46 -19 -80 -54t-54 -84t-20 -111q0 -61 20 -110.5t54.5 -84t80 -52.5t97.5 -20zM693 1556h453v-1282h202v-274h-510v40q-54 -28 -110.5 -44t-114.5 -16q-119 0 -218.5 42.5 t-171 116.5t-111.5 173.5t-40 213.5t39.5 212.5t110 171.5t169 115t216.5 42q65 0 122 -12.5t109 -35.5v263h-145v274zM1495 1059h-219v518l287 16z"/>
<glyph glyph-name="Dcroat" horiz-adv-x="1468" unicode="Đ" d="M535 621v-347h127q81 0 153 38t125 103.5t84 154t31 190.5q0 101 -31 189t-84 153t-125 102t-153 37h-127v-346h157v-274h-157zM82 1516h582q104 0 199.5 -27t178 -76t150 -117.5t115.5 -152.5t74 -181t26 -202t-26 -202t-74 -181.5t-115.5 -154t-150 -119t-178 -76.5 t-199.5 -27h-582v274h121v347h-138v274h138v346h-121v275z"/>
<glyph glyph-name="dcroat" horiz-adv-x="1401" unicode="đ" d="M629 258q65 0 119.5 32t89.5 85v303q-35 53 -91.5 83t-117.5 30q-51 0 -97.5 -18.5t-80 -53.5t-54 -84t-20.5 -111q0 -61 20.5 -111.5t54 -84t80 -52t97.5 -18.5zM1145 1174v-900h203v-274h-510v39q-54 -29 -110 -44t-116 -15q-118 0 -217.5 43t-171 116.5t-111.5 173 t-40 213.5q0 113 39 212.5t109.5 172t168.5 114.5t217 42q66 0 122 -13.5t110 -35.5v156h-207v208h207v86v88h307v-174h203v-208h-203z"/>
<glyph glyph-name="Emacron" horiz-adv-x="1380" unicode="Ē" d="M113 1516h1206v-517h-326v215h-389v-299h301v-290h-301v-351h389v269h326v-543h-1206v274h159v940h-159v302zM1089 1655h-688v215h688v-215z"/>
<glyph glyph-name="emacron" horiz-adv-x="1186" unicode="ē" d="M588 831q-56 0 -95.5 -13.5t-66.5 -37t-43 -53.5t-25 -63h433q-7 34 -20 64t-36 53t-58.5 36.5t-88.5 13.5zM349 453l3 -31q11 -45 37.5 -79t62.5 -57t80 -34.5t89 -11.5t85.5 5.5t78.5 15t74 22t73 26.5l110 -205q-57 -35 -104.5 -59.5t-95.5 -40.5t-102 -23.5 t-126 -7.5q-135 0 -240 44.5t-176.5 120.5t-109 178t-37.5 216t39.5 214t111.5 174.5t172 117.5t222 43t216.5 -40.5t159.5 -112t100 -168t38 -207.5q4 -25 4 -49v-10q0 -20 -2 -41h-763zM930 1176h-688v215h688v-215z"/>
<glyph glyph-name="Edotaccent" horiz-adv-x="1380" unicode="Ė" d="M113 1516h1206v-517h-326v215h-389v-299h301v-290h-301v-351h389v269h326v-543h-1206v274h159v940h-159v302zM565 1849q0 37 13.5 69.5t37.5 56.5t56.5 38t70.5 14q36 0 68 -14t56 -38t38 -56.5t14 -69.5t-14 -69.5t-38 -56.5t-56 -38t-68 -14q-38 0 -70.5 14t-56.5 38 t-37.5 56.5t-13.5 69.5z"/>
<glyph glyph-name="edotaccent" horiz-adv-x="1186" unicode="ė" d="M588 831q-56 0 -95.5 -13.5t-66.5 -37t-43 -53.5t-25 -63h433q-7 34 -20 64t-36 53t-58.5 36.5t-88.5 13.5zM349 453l3 -31q11 -45 37.5 -79t62.5 -57t80 -34.5t89 -11.5t85.5 5.5t78.5 15t74 22t73 26.5l110 -205q-57 -35 -104.5 -59.5t-95.5 -40.5t-102 -23.5 t-126 -7.5q-135 0 -240 44.5t-176.5 120.5t-109 178t-37.5 216t39.5 214t111.5 174.5t172 117.5t222 43t216.5 -40.5t159.5 -112t100 -168t38 -207.5q4 -25 4 -49v-10q0 -20 -2 -41h-763zM405 1370q0 37 13.5 69.5t37.5 56.5t56.5 38t70.5 14q36 0 68 -14t56 -38t38 -56.5 t14 -69.5t-14 -69.5t-38 -56.5t-56 -38t-68 -14q-38 0 -70.5 14t-56.5 38t-37.5 56.5t-13.5 69.5z"/>
<glyph glyph-name="Eogonek" horiz-adv-x="1380" unicode="Ę" d="M113 1516h1206v-517h-326v215h-389v-299h301v-290h-301v-351h389v269h326v-543h-23q-102 -53 -156.5 -100t-54.5 -115q0 -39 25 -53.5t47 -14.5q39 0 65.5 6.5t47.5 16.5l49 -170q-23 -12 -74 -26.5t-104 -14.5q-62 0 -114 14.5t-92 41t-62.5 65.5t-22.5 90 q0 86 42 150.5t105 109.5h-884v274h159v940h-159v302z"/>
<glyph glyph-name="eogonek" horiz-adv-x="1186" unicode="ę" d="M588 831q-56 0 -95.5 -14t-67.5 -36.5t-43 -53.5t-24 -63h433q-7 32 -20 63t-35.5 54.5t-58.5 36.5t-89 13zM936 37q-49 -35 -88 -71t-61.5 -74.5t-22.5 -79.5q0 -50 33.5 -72.5t74.5 -22.5q29 0 54.5 8.5t46.5 18.5q12 -43 24.5 -85t24.5 -85q-23 -12 -76 -28.5 t-123 -16.5q-145 0 -220 57.5t-75 159.5q0 59 27 116.5t70 110.5h-11q-135 0 -239.5 44t-177 121t-109.5 178.5t-37 215.5q0 113 40 213.5t111.5 175t172 117.5t221.5 43q137 0 237.5 -49t165 -135t90 -188t25.5 -200q0 -28 -2 -56h-764q10 -54 34 -92.5t59.5 -66.5 t80.5 -41t99 -13q92 0 164.5 20.5t146.5 48.5q29 -51 55.5 -102t54.5 -103q-24 -14 -46 -27q-31 -19 -60 -40z"/>
<glyph glyph-name="Ecaron" horiz-adv-x="1380" unicode="Ě" d="M113 1516h1206v-517h-326v215h-389v-299h301v-290h-301v-351h389v269h326v-543h-1206v274h159v940h-159v302zM1138 1941l-272 -325h-240l-274 325h246l147 -153l146 153h247z"/>
<glyph glyph-name="ecaron" horiz-adv-x="1186" unicode="ě" d="M588 831q-56 0 -95.5 -13.5t-66.5 -37t-43 -53.5t-25 -63h433q-7 34 -20 64t-36 53t-58.5 36.5t-88.5 13.5zM349 453l3 -31q11 -45 37.5 -79t62.5 -57t80 -34.5t89 -11.5t85.5 5.5t78.5 15t74 22t73 26.5l110 -205q-57 -35 -104.5 -59.5t-95.5 -40.5t-102 -23.5 t-126 -7.5q-135 0 -240 44.5t-176.5 120.5t-109 178t-37.5 216t39.5 214t111.5 174.5t172 117.5t222 43t216.5 -40.5t159.5 -112t100 -168t38 -207.5q4 -25 4 -49v-10q0 -20 -2 -41h-763zM978 1462l-272 -325h-240l-274 325h246l147 -153l146 153h247z"/>
<glyph glyph-name="Gbreve" horiz-adv-x="1636" unicode="Ğ" d="M1212 0v260q-62 -109 -121 -160t-133 -82q-72 -30 -192 -30h-8q-62 1 -124 14.5t-120 38t-113.5 59t-100.5 79.5q-111 112 -172.5 259.5t-61.5 321.5q0 107 26 207t73 187t113.5 158.5t148 122.5t175.5 79t197 28q118 0 205 -31.5t187 -117.5h224v-338h-309 q-46 71 -86.5 103t-88 53t-132.5 21q-84 0 -156 -38t-124.5 -102.5t-82.5 -152t-30 -179.5q0 -91 27 -173t82 -147.5t128 -100.5t156 -35q106 0 185 62t114 169h-289v274h702v-809h-299zM819 1636q-95 0 -167 21.5t-125 63t-89.5 101.5t-60.5 138h252q20 -60 67.5 -91.5 t122.5 -31.5q72 0 118 29t71 94h250q-22 -77 -58 -137t-89.5 -101.5t-125.5 -63.5t-166 -22z"/>
<glyph glyph-name="gbreve" horiz-adv-x="1284" unicode="ğ" d="M633 271q70 0 126.5 35.5t89.5 93.5l2 252q-34 63 -93 100t-128 38q-49 -1 -96 -19.5t-81.5 -52.5t-54.5 -80.5t-20 -103.5q0 -60 20 -109t54 -83t80.5 -52.5t100.5 -18.5zM849 54q-56 -32 -112 -46t-114 -14q-120 0 -221 41t-174.5 113.5t-114.5 171.5t-41 215 q0 109 39.5 205.5t110.5 169t170 114.5t215 43q71 -1 130.5 -15t111.5 -38v22h303v-993q0 -131 -45 -226.5t-120.5 -158t-175.5 -93t-210 -30.5q-136 0 -251.5 37t-205.5 100l125 222q69 -44 150 -69.5t180 -25.5q54 0 99.5 12t79 40.5t52.5 76.5t19 121v5zM643 1157 q-95 0 -167 21.5t-125 63t-89.5 101.5t-60.5 138h252q20 -60 67.5 -91.5t122.5 -31.5q72 0 118 29t71 94h250q-22 -77 -58 -137t-89.5 -101.5t-125.5 -63.5t-166 -22z"/>
<glyph glyph-name="Gcommaaccent" horiz-adv-x="1636" unicode="Ģ" d="M1212 0v260q-62 -109 -121 -160t-133 -82q-72 -30 -192 -30h-8q-62 1 -124 14.5t-120 38t-113.5 59t-100.5 79.5q-111 112 -172.5 259.5t-61.5 321.5q0 107 26 207t73 187t113.5 158.5t148 122.5t175.5 79t197 28q118 0 205 -31.5t187 -117.5h224v-338h-309 q-46 71 -86.5 103t-88 53t-132.5 21q-84 0 -156 -38t-124.5 -102.5t-82.5 -152t-30 -179.5q0 -91 27 -173t82 -147.5t128 -100.5t156 -35q106 0 185 62t114 169h-289v274h702v-809h-299zM731 -29l289 -104l-197 -338l-206 72z"/>
<glyph glyph-name="gcommaaccent" horiz-adv-x="1284" unicode="ģ" d="M633 271q70 0 126.5 35.5t89.5 93.5l2 252q-34 63 -93 100t-128 38q-49 -1 -96 -19.5t-81.5 -52.5t-54.5 -80.5t-20 -103.5q0 -60 20 -109t54 -83t80.5 -52.5t100.5 -18.5zM849 54q-56 -32 -112 -46t-114 -14q-120 0 -221 41t-174.5 113.5t-114.5 171.5t-41 215 q0 109 39.5 205.5t110.5 169t170 114.5t215 43q71 -1 130.5 -15t111.5 -38v22h303v-993q0 -131 -45 -226.5t-120.5 -158t-175.5 -93t-210 -30.5q-136 0 -251.5 37t-205.5 100l125 222q69 -44 150 -69.5t180 -25.5q54 0 99.5 12t79 40.5t52.5 76.5t19 121v5zM770 1109 l-289 105l197 337l206 -71z"/>
<glyph glyph-name="Imacron" horiz-adv-x="874" unicode="Ī" d="M113 1516h649v-274h-160v-968h160v-274h-649v274h157v968h-157v274zM778 1655h-688v215h688v-215z"/>
<glyph glyph-name="imacron" horiz-adv-x="791" unicode="ī" d="M80 1037l467 -1v-762h142v-274h-608v274h156v488h-157v275zM724 1176h-688v215h688v-215z"/>
<glyph glyph-name="Iogonek" horiz-adv-x="874" unicode="Į" d="M119 1516h676v-275h-193v-967h193v-274h-25q-39 0 -82 -14.5t-80 -41t-61.5 -62.5t-24.5 -81q0 -47 30 -65.5t58 -18.5q31 0 56.5 6.5t46.5 16.5l49 -170q-23 -12 -74 -26.5t-104 -14.5q-131 0 -211 54.5t-80 156.5q0 86 42 150.5t105 109.5h-321v274h151v967h-151v275z "/>
<glyph glyph-name="iogonek" horiz-adv-x="791" unicode="į" d="M82 1036h465v-762h144v-274h-86q-39 -2 -81 -16.5t-78 -41t-58.5 -62.5t-22.5 -79q0 -47 29.5 -65.5t58.5 -18.5q31 0 56.5 6.5t46.5 16.5l49 -170q-23 -12 -74 -26.5t-104 -14.5q-132 0 -211.5 54.5t-79.5 156.5q0 86 42 150.5t105 109.5h-201v274h156v488h-156v274z "/>
<glyph glyph-name="Idotaccent" horiz-adv-x="874" unicode="İ" d="M113 1516h649v-274h-160v-968h160v-274h-649v274h157v968h-157v274zM254 1849q0 37 13.5 69.5t37.5 56.5t56.5 38t70.5 14q36 0 68 -14t56 -38t38 -56.5t14 -69.5t-14 -69.5t-38 -56.5t-56 -38t-68 -14q-38 0 -70.5 14t-56.5 38t-37.5 56.5t-13.5 69.5z"/>
<glyph glyph-name="dotlessi" horiz-adv-x="790" unicode="ı" d="M80 1037l467 -1v-762h142v-274h-608v274h156v488h-157v275z"/>
<glyph glyph-name="Kcommaaccent" horiz-adv-x="1655" unicode="Ķ" d="M113 1516h649v-275h-160v-441l485 423v293h517v-295h-113l-505 -434l484 -490h123v-297h-503v297l-488 488v-511h160v-274h-649v274h157v967h-157v275zM739 -29l289 -104l-197 -338l-206 72z"/>
<glyph glyph-name="kcommaaccent" horiz-adv-x="1450" unicode="ķ" d="M57 1556h467v-897h175l72 103v274h536v-274h-186l-193 -223l197 -238h172v-301h-281l-336 444h-156v-170h106v-274h-573v274h160v1008h-160v274zM637 -29l289 -104l-197 -338l-206 72z"/>
<glyph glyph-name="Lacute" horiz-adv-x="1346" unicode="Ĺ" d="M113 1516h649v-275h-160v-967h330q13 0 25.5 7.5t22 19.5t15.5 26t6 27v203h324v-557h-1212v274h157v967h-157v275zM537 1886h326v-25l-306 -286h-235z"/>
<glyph glyph-name="lacute" horiz-adv-x="780" unicode="ĺ" d="M59 1556h467v-1282h160v-274h-627v274h160v1008h-160v274zM414 1940h326v-25l-306 -286h-235z"/>
<glyph glyph-name="Lcommaaccent" horiz-adv-x="1346" unicode="Ļ" d="M113 1516h649v-275h-160v-967h330q13 0 25.5 7.5t22 19.5t15.5 26t6 27v203h324v-557h-1212v274h157v967h-157v275zM585 -29l289 -104l-197 -338l-206 72z"/>
<glyph glyph-name="lcommaaccent" horiz-adv-x="780" unicode="ļ" d="M59 1556h467v-1282h160v-274h-627v274h160v1008h-160v274zM303 -29l289 -104l-197 -338l-206 72z"/>
<glyph glyph-name="Lcaron" horiz-adv-x="1686" unicode="Ľ" d="M113 1516h649v-275h-160v-967h330q13 0 25.5 7.5t22 19.5t15.5 26t6 27v203h324v-557h-1212v274h157v967h-157v275zM1233 1013h-219v518l287 16z"/>
<glyph glyph-name="lcaron" horiz-adv-x="1016" unicode="ľ" d="M59 1556h467v-1282h160v-274h-627v274h160v1008h-160v274zM887 1059h-219v518l287 16z"/>
<glyph glyph-name="Lslash" horiz-adv-x="1346" unicode="Ł" d="M113 1516h649v-275h-160v-274l490 231v-315l-490 -232v-377h330q26 0 47.5 27t21.5 53v203h324v-557h-1212v274h157v222l-159 -76v315l159 76v430h-157v275z"/>
<glyph glyph-name="lslash" horiz-adv-x="737" unicode="ł" d="M61 1556h467v-274h-2v-207l158 113v-336l-158 -113v-465h160v-274h-623v274h156v244l-153 -108v335l153 109v428h-158v274z"/>
<glyph glyph-name="Nacute" horiz-adv-x="1698" unicode="Ń" d="M1071 1516h576v-275h-123v-1241h-332l-631 980v-706h127v-274h-575v274h125v967h-123v275h458l627 -993v718h-129v275zM967 1968h326v-25l-306 -286h-235z"/>
<glyph glyph-name="nacute" horiz-adv-x="1460" unicode="ń" d="M932 596q0 87 -46 136.5t-122 49.5q-52 0 -105 -23t-103 -86v-399h168v-274h-644v274h152v488h-150v274h472v-91q65 51 145.5 80.5t169.5 29.5q187 0 288 -104.5t101 -305.5v-371h147v-274h-473v596zM846 1489h326v-25l-306 -286h-235z"/>
<glyph glyph-name="Ncommaaccent" horiz-adv-x="1698" unicode="Ņ" d="M1071 1516h576v-275h-123v-1241h-332l-631 980v-706h127v-274h-575v274h125v967h-123v275h458l627 -993v718h-129v275zM762 -29l289 -104l-197 -338l-206 72z"/>
<glyph glyph-name="ncommaaccent" horiz-adv-x="1460" unicode="ņ" d="M932 596q0 87 -46 136.5t-122 49.5q-52 0 -105 -23t-103 -86v-399h168v-274h-644v274h152v488h-150v274h472v-91q65 51 145.5 80.5t169.5 29.5q187 0 288 -104.5t101 -305.5v-371h147v-274h-473v596zM643 -29l289 -104l-197 -338l-206 72z"/>
<glyph glyph-name="Ncaron" horiz-adv-x="1698" unicode="Ň" d="M1071 1516h576v-275h-123v-1241h-332l-631 980v-706h127v-274h-575v274h125v967h-123v275h458l627 -993v718h-129v275zM1251 1941l-272 -325h-240l-274 325h246l147 -153l146 153h247z"/>
<glyph glyph-name="ncaron" horiz-adv-x="1460" unicode="ň" d="M932 596q0 87 -46 136.5t-122 49.5q-52 0 -105 -23t-103 -86v-399h168v-274h-644v274h152v488h-150v274h472v-91q65 51 145.5 80.5t169.5 29.5q187 0 288 -104.5t101 -305.5v-371h147v-274h-473v596zM1151 1462l-272 -325h-240l-274 325h246l147 -153l146 153h247z"/>
<glyph glyph-name="napostrophe" horiz-adv-x="1460" unicode="ŉ" d="M932 596q0 87 -46 136.5t-122 49.5q-52 0 -105 -23t-103 -86v-399h168v-274h-644v274h152v488h-150v274h472v-91q65 51 145.5 80.5t169.5 29.5q187 0 288 -104.5t101 -305.5v-371h147v-274h-473v596zM385 1561l288 -104l-196 -338l-207 71z"/>
<glyph glyph-name="Omacron" horiz-adv-x="1599" unicode="Ō" d="M799 287q87 0 159.5 37.5t124.5 102t80.5 150t28.5 181.5q0 97 -29 183t-81.5 150.5t-124.5 102t-158 37.5t-158 -37.5t-124 -102t-81.5 -150.5t-29.5 -183q0 -96 29.5 -181.5t81.5 -150t124 -102t158 -37.5zM799 -27q-103 0 -197 28t-175.5 79t-148 122.5t-113.5 159 t-73 187.5t-26 209t26 209.5t73 188t113.5 159t148 122.5t175.5 79t197 28t197.5 -28t176 -79t148 -122.5t114 -159t73.5 -188t26 -209.5q0 -108 -26 -208.5t-73.5 -188t-114 -159t-148 -122.5t-176 -79t-197.5 -28zM1141 1655h-688v215h688v-215z"/>
<glyph glyph-name="omacron" d="M371 522q0 -59 20 -108.5t54.5 -85.5t80 -56t97.5 -20q53 0 98.5 19.5t79 55.5t52.5 85.5t19 109.5q0 62 -19 112t-53 85q-32 35 -78 53q-43 18 -94 18h-5.5h-4.5q-48 0 -92 -18q-46 -18 -80.5 -53t-54.5 -85t-20 -112zM72 522q0 113 41 212t114 173t174 117t222 43 t222.5 -43t174.5 -117t113.5 -173t40.5 -212t-39.5 -212.5t-112 -174t-174 -117.5t-225.5 -43q-125 0 -226.5 43t-173.5 117t-111.5 173.5t-39.5 213.5zM958 1176h-688v215h688v-215z" unicode="ō"/>
<glyph glyph-name="Ohungarumlaut" horiz-adv-x="1599" unicode="Ő" d="M799 287q87 0 159.5 37.5t124.5 102t80.5 150t28.5 181.5q0 97 -29 183t-81.5 150.5t-124.5 102t-158 37.5t-158 -37.5t-124 -102t-81.5 -150.5t-29.5 -183q0 -96 29.5 -181.5t81.5 -150t124 -102t158 -37.5zM799 -27q-103 0 -197 28t-175.5 79t-148 122.5t-113.5 159 t-73 187.5t-26 209t26 209.5t73 188t113.5 159t148 122.5t175.5 79t197 28t197.5 -28t176 -79t148 -122.5t114 -159t73.5 -188t26 -209.5q0 -108 -26 -208.5t-73.5 -188t-114 -159t-148 -122.5t-176 -79t-197.5 -28zM963 1990l-256 -319h-186l184 319h258zM1360 1990 l-280 -319h-189l209 319h260z"/>
<glyph glyph-name="ohungarumlaut" d="M371 522q0 -59 20 -108.5t54.5 -85.5t80 -56t97.5 -20q53 0 98.5 19.5t79 55.5t52.5 85.5t19 109.5q0 62 -19 112t-53 85q-32 35 -78 53q-43 18 -94 18h-5.5h-4.5q-48 0 -92 -18q-46 -18 -80.5 -53t-54.5 -85t-20 -112zM72 522q0 113 41 212t114 173t174 117t222 43 t222.5 -43t174.5 -117t113.5 -173t40.5 -212t-39.5 -212.5t-112 -174t-174 -117.5t-225.5 -43q-125 0 -226.5 43t-173.5 117t-111.5 173.5t-39.5 213.5zM780 1511l-256 -319h-186l184 319h258zM1177 1511l-280 -319h-189l209 319h260z" unicode="ő"/>
<glyph glyph-name="OE" horiz-adv-x="2314" unicode="Œ" d="M799 287q88 0 159.5 37.5t124 102.5t81 150t28.5 181t-29.5 182t-82 150.5t-124 102.5t-157.5 38t-158 -38t-124 -102.5t-81.5 -150.5t-29.5 -182t29.5 -181t81.5 -150t124 -102.5t158 -37.5zM799 -27q-154 0 -288 61.5t-232.5 168t-155.5 249t-57 306.5t57 307 t155.5 249.5t232.5 168t288 61.5q112 0 214.5 -33.5t190.5 -95.5v101h1049v-517h-326v215h-389v-299h301v-290h-301v-351h389v269h326v-543h-1049v100q-88 -59 -190.5 -93t-214.5 -34z"/>
<glyph glyph-name="oe" horiz-adv-x="2015" unicode="œ" d="M1417 831q-56 0 -95.5 -13.5t-66.5 -37t-43 -53.5t-24 -63h432q-7 34 -19.5 64t-35.5 53t-59 36.5t-89 13.5zM371 522q0 -59 20 -108.5t54.5 -85.5t80 -56t97.5 -20q53 0 99.5 19.5t81.5 55.5t55.5 85.5t20.5 109.5q0 62 -20.5 112t-55.5 85t-81.5 53.5t-99.5 18.5 q-52 0 -97.5 -18.5t-80 -53.5t-54.5 -85t-20 -112zM72 522q0 113 41 212t114 173t174 117t222 43q123 0 222.5 -43.5t171.5 -119.5q36 41 80.5 73.5t96 55.5t109.5 35.5t122 12.5q93 0 168.5 -23.5t135 -65.5t102 -100.5t69.5 -128.5t35.5 -135.5t8.5 -119.5q0 -27 -2 -55 h-763q4 -49 28 -88.5t61 -67t84 -42.5t98 -15q45 0 85.5 5.5t78.5 15t74 22t73 26.5l111 -205q-58 -35 -105.5 -59.5t-95.5 -40.5t-102 -23.5t-125 -7.5q-138 0 -243.5 45.5t-177.5 123.5q-71 -78 -171.5 -122.5t-228.5 -44.5q-125 0 -226.5 43t-173.5 117t-111.5 173.5 t-39.5 213.5z"/>
<glyph glyph-name="Racute" horiz-adv-x="1530" unicode="Ŕ" d="M602 1241v-367h199q57 0 102.5 10.5t78 33t50 56.5t17.5 81q0 88 -63 137t-185 49h-199zM113 1516h802q117 0 209 -35t155 -93.5t96.5 -136t33.5 -161.5q0 -77 -16.5 -135t-48 -103t-77.5 -79.5t-105 -62.5q51 -26 90 -79.5t59 -138.5l51 -197h125l2 -295h-440l-60 360 q-9 64 -27.5 110.5t-49.5 76t-75.5 43.5t-105.5 14h-129v-330h139v-274h-628v274h157v967h-157v275zM864 1970h326v-25l-306 -286h-235z"/>
<glyph glyph-name="racute" horiz-adv-x="1110" unicode="ŕ" d="M1020 659h-281v107q-41 0 -75 -5.5t-59.5 -18.5t-43 -36t-24.5 -57v-375h211v-274h-676v274h155v488h-153v274h461v-73q44 35 99 54t120 19q66 0 136 -1t130 -1v-375zM662 1489h326v-25l-306 -286h-235z"/>
<glyph glyph-name="Rcommaaccent" horiz-adv-x="1530" unicode="Ŗ" d="M602 1241v-367h199q57 0 102.5 10.5t78 33t50 56.5t17.5 81q0 88 -63 137t-185 49h-199zM113 1516h802q117 0 209 -35t155 -93.5t96.5 -136t33.5 -161.5q0 -77 -16.5 -135t-48 -103t-77.5 -79.5t-105 -62.5q51 -26 90 -79.5t59 -138.5l51 -197h125l2 -295h-440l-60 360 q-9 64 -27.5 110.5t-49.5 76t-75.5 43.5t-105.5 14h-129v-330h139v-274h-628v274h157v967h-157v275zM678 -29l289 -104l-197 -338l-206 72z"/>
<glyph glyph-name="rcommaaccent" horiz-adv-x="1110" unicode="ŗ" d="M1020 659h-281v107q-41 0 -75 -5.5t-59.5 -18.5t-43 -36t-24.5 -57v-375h211v-274h-676v274h155v488h-153v274h461v-73q44 35 99 54t120 19q66 0 136 -1t130 -1v-375zM332 -29l289 -104l-197 -338l-206 72z"/>
<glyph glyph-name="Rcaron" horiz-adv-x="1530" unicode="Ř" d="M602 1241v-367h199q57 0 102.5 10.5t78 33t50 56.5t17.5 81q0 88 -63 137t-185 49h-199zM113 1516h802q117 0 209 -35t155 -93.5t96.5 -136t33.5 -161.5q0 -77 -16.5 -135t-48 -103t-77.5 -79.5t-105 -62.5q51 -26 90 -79.5t59 -138.5l51 -197h125l2 -295h-440l-60 360 q-9 64 -27.5 110.5t-49.5 76t-75.5 43.5t-105.5 14h-129v-330h139v-274h-628v274h157v967h-157v275zM1148 1943l-272 -325h-240l-274 325h246l147 -153l146 153h247z"/>
<glyph glyph-name="rcaron" horiz-adv-x="1110" unicode="ř" d="M1020 659h-281v107q-41 0 -75 -5.5t-59.5 -18.5t-43 -36t-24.5 -57v-375h211v-274h-676v274h155v488h-153v274h461v-73q44 35 99 54t120 19q66 0 136 -1t130 -1v-375zM946 1462l-272 -325h-240l-274 325h246l147 -153l146 153h247z"/>
<glyph glyph-name="Sacute" d="M842 1089q-5 35 -24.5 66t-50 53.5t-69 35.5t-80.5 13q-38 0 -71 -8t-57.5 -24.5t-39 -42.5t-14.5 -62q0 -45 19.5 -71.5t50 -43.5t67.5 -27t72 -22l275 -92q57 -20 107 -55t86.5 -85t57.5 -115t21 -146q0 -110 -40.5 -201t-113.5 -156t-175 -101t-226 -36 q-87 0 -164.5 19.5t-141.5 56.5t-112 88.5t-75 116.5h-103v301h362v-62q0 -45 14.5 -83t43.5 -66t73 -43.5t103 -15.5q90 0 137 41.5t47 115.5q0 38 -16.5 63.5t-42.5 43t-58 29.5t-63 22l-229 74q-65 20 -125.5 56t-107 90t-74 126.5t-27.5 165.5q0 108 40 192.5t112 142.5 t171 88t217 30q93 0 172 -21.5t141.5 -57.5t106 -82.5t66.5 -96.5h100v-302h-362v88zM731 1968h326v-25l-306 -286h-235z" unicode="Ś"/>
<glyph glyph-name="sacute" horiz-adv-x="1102" unicode="ś" d="M725.5 765q-15.5 22 -45.5 38.5t-73.5 26.5t-98.5 10q-21 0 -45 -3.5t-44.5 -12.5t-34 -24.5t-13.5 -39.5q0 -12 3.5 -23t13.5 -21t27.5 -18.5t45.5 -13.5l188 -37q102 -20 171 -50t111 -70t60.5 -89t18.5 -106q0 -89 -41.5 -156t-109 -111.5t-152 -67t-170.5 -22.5 q-56 0 -101.5 7t-82 19t-65 28.5t-52.5 36.5h-181v278h283v-6q1 -29 18 -50.5t44.5 -36.5t62.5 -22.5t74 -7.5q90 0 131 23.5t41 60.5q0 29 -20 49.5t-71 32.5l-192 41q-181 35 -273 116.5t-92 209.5q0 75 35 136.5t95 105t140.5 67.5t172.5 24q63 0 112 -7.5t88 -19.5 t68.5 -28.5t52.5 -34.5h174v-278h-258q0 24 -15.5 46zM600 1489h326v-25l-306 -286h-235z"/>
<glyph glyph-name="Scedilla" d="M842 1089q-5 35 -24.5 66t-50 53.5t-69 35.5t-80.5 13q-38 0 -71 -8t-57.5 -24.5t-39 -42.5t-14.5 -62q0 -45 19.5 -71.5t50 -43.5t67.5 -27t72 -22l275 -92q57 -20 107 -55t86.5 -85t57.5 -115t21 -146q0 -110 -40.5 -201t-113.5 -156t-175 -101t-226 -36 q-87 0 -164.5 19.5t-141.5 56.5t-112 88.5t-75 116.5h-103v301h362v-62q0 -45 14.5 -83t43.5 -66t73 -43.5t103 -15.5q90 0 137 41.5t47 115.5q0 38 -16.5 63.5t-42.5 43t-58 29.5t-63 22l-229 74q-65 20 -125.5 56t-107 90t-74 126.5t-27.5 165.5q0 108 40 192.5t112 142.5 t171 88t217 30q93 0 172 -21.5t141.5 -57.5t106 -82.5t66.5 -96.5h100v-302h-362v88zM329 -293q41 3 77.5 19.5t66 46.5t51 73.5t31.5 100.5l243 -86q-23 -79 -65 -138t-100 -98t-128.5 -59t-150.5 -21z" unicode="Ş"/>
<glyph glyph-name="scedilla" horiz-adv-x="1102" unicode="ş" d="M725.5 765q-15.5 22 -45.5 38.5t-73.5 26.5t-98.5 10q-21 0 -45 -3.5t-44.5 -12.5t-34 -24.5t-13.5 -39.5q0 -12 3.5 -23t13.5 -21t27.5 -18.5t45.5 -13.5l188 -37q102 -20 171 -50t111 -70t60.5 -89t18.5 -106q0 -89 -41.5 -156t-109 -111.5t-152 -67t-170.5 -22.5 q-56 0 -101.5 7t-82 19t-65 28.5t-52.5 36.5h-181v278h283v-6q1 -29 18 -50.5t44.5 -36.5t62.5 -22.5t74 -7.5q90 0 131 23.5t41 60.5q0 29 -20 49.5t-71 32.5l-192 41q-181 35 -273 116.5t-92 209.5q0 75 35 136.5t95 105t140.5 67.5t172.5 24q63 0 112 -7.5t88 -19.5 t68.5 -28.5t52.5 -34.5h174v-278h-258q0 24 -15.5 46zM315 -293q41 3 77.5 19.5t66 46.5t51 73.5t31.5 100.5l243 -86q-23 -79 -65 -138t-100 -98t-128.5 -59t-150.5 -21z"/>
<glyph glyph-name="Scaron" d="M842 1089q-5 35 -24.5 66t-50 53.5t-69 35.5t-80.5 13q-38 0 -71 -8t-57.5 -24.5t-39 -42.5t-14.5 -62q0 -45 19.5 -71.5t50 -43.5t67.5 -27t72 -22l275 -92q57 -20 107 -55t86.5 -85t57.5 -115t21 -146q0 -110 -40.5 -201t-113.5 -156t-175 -101t-226 -36 q-87 0 -164.5 19.5t-141.5 56.5t-112 88.5t-75 116.5h-103v301h362v-62q0 -45 14.5 -83t43.5 -66t73 -43.5t103 -15.5q90 0 137 41.5t47 115.5q0 38 -16.5 63.5t-42.5 43t-58 29.5t-63 22l-229 74q-65 20 -125.5 56t-107 90t-74 126.5t-27.5 165.5q0 108 40 192.5t112 142.5 t171 88t217 30q93 0 172 -21.5t141.5 -57.5t106 -82.5t66.5 -96.5h100v-302h-362v88zM1015 1941l-272 -325h-240l-274 325h246l147 -153l146 153h247z" unicode="Š"/>
<glyph glyph-name="scaron" horiz-adv-x="1102" unicode="š" d="M725.5 765q-15.5 22 -45.5 38.5t-73.5 26.5t-98.5 10q-21 0 -45 -3.5t-44.5 -12.5t-34 -24.5t-13.5 -39.5q0 -12 3.5 -23t13.5 -21t27.5 -18.5t45.5 -13.5l188 -37q102 -20 171 -50t111 -70t60.5 -89t18.5 -106q0 -89 -41.5 -156t-109 -111.5t-152 -67t-170.5 -22.5 q-56 0 -101.5 7t-82 19t-65 28.5t-52.5 36.5h-181v278h283v-6q1 -29 18 -50.5t44.5 -36.5t62.5 -22.5t74 -7.5q90 0 131 23.5t41 60.5q0 29 -20 49.5t-71 32.5l-192 41q-181 35 -273 116.5t-92 209.5q0 75 35 136.5t95 105t140.5 67.5t172.5 24q63 0 112 -7.5t88 -19.5 t68.5 -28.5t52.5 -34.5h174v-278h-258q0 24 -15.5 46zM884 1462l-272 -325h-240l-274 325h246l147 -153l146 153h247z"/>
<glyph glyph-name="Tcommaaccent" horiz-adv-x="1419" unicode="Ţ" d="M373 274h157v977h-184v-196h-326v461h1379v-461h-328v196h-209v-977h160v-274h-649v274zM622 -29l289 -104l-197 -338l-206 72z"/>
<glyph glyph-name="tcommaaccent" horiz-adv-x="801" unicode="ţ" d="M471 1036h207v-262h-209l-2 -438q0 -38 6 -61.5t17.5 -37.5t27.5 -19t37 -5q38 0 67 7.5t58 17.5l43 -193q-51 -32 -113.5 -51t-148.5 -19q-61 0 -116.5 21t-97.5 63.5t-67 106.5q-24 62 -24 142v7l3 459h-149v262h150l2 248l311 148zM313 -29l289 -104l-197 -338 l-206 72z"/>
<glyph glyph-name="Tcaron" horiz-adv-x="1419" unicode="Ť" d="M373 274h157v977h-184v-196h-326v461h1379v-461h-328v196h-209v-977h160v-274h-649v274zM1097 1941l-272 -325h-240l-274 325h246l147 -153l146 153h247z"/>
<glyph glyph-name="tcaron" horiz-adv-x="963" unicode="ť" d="M471 1036h207v-262h-209l-2 -438q0 -38 6 -61.5t17.5 -37.5t27.5 -19t37 -5q38 0 67 7.5t58 17.5l43 -193q-51 -32 -113.5 -51t-148.5 -19q-61 0 -116.5 21t-97.5 63.5t-67 106.5q-24 62 -24 142v7l3 459h-149v262h150l2 248l311 148zM791 1079h-219v518l287 16z"/>
<glyph glyph-name="Umacron" horiz-adv-x="1561" unicode="Ū" d="M51 1516h608v-275h-139v-629q0 -86 19.5 -146t54.5 -98t83 -55.5t105 -17.5q59 0 107.5 15t83 51.5t53 97.5t18.5 153v629h-161v275h608v-275h-121v-590q0 -160 -46 -284.5t-126.5 -210.5t-189 -131t-232.5 -45q-123 0 -230 44.5t-186.5 129t-125.5 205.5t-46 274v608 h-137v275zM1124 1655h-688v215h688v-215z"/>
<glyph glyph-name="umacron" horiz-adv-x="1409" unicode="ū" d="M723 1036h490v-762h125v-274h-439v88q-53 -48 -124 -74t-164 -26q-86 0 -162 27t-132.5 81.5t-89 136.5t-32.5 193v336h-135v274h458v-610q0 -104 53 -155.5t138 -51.5q60 0 109 37t71 100v406h-166v274zM989 1176h-688v215h688v-215z"/>
<glyph glyph-name="Uring" horiz-adv-x="1561" unicode="Ů" d="M660 1726q0 -53 36 -89t89 -36t88 36t35 89q0 54 -35 88.5t-88 34.5t-89 -34.5t-36 -88.5zM785 2028q63 0 117 -24t95 -65.5t65.5 -95.5t24.5 -117q0 -62 -24.5 -116.5t-65.5 -95.5t-95 -65t-117 -24q-62 0 -116.5 24t-95.5 65t-65 95.5t-24 116.5q0 63 24 117t65 95.5 t95.5 65.5t116.5 24zM51 1516h471v-275h-2v-629q0 -86 19.5 -146t54.5 -98t83 -55.5t105 -17.5q60 0 108 15.5t83 51t53 97t18 153.5v629h2v275h445v-275h-121v-590q0 -159 -46 -284t-126 -211t-188.5 -131t-233.5 -45q-123 0 -230.5 45t-186 129t-125 204.5t-46.5 274.5 v608h-137v275z"/>
<glyph glyph-name="uring" horiz-adv-x="1409" unicode="ů" d="M723 1036h490v-762h125v-274h-439v88q-53 -48 -124 -74t-164 -26q-86 0 -162 27t-132.5 81.5t-89 136.5t-32.5 193v336h-135v274h458v-610q0 -104 53 -155.5t138 -51.5q60 0 109 37t71 100v406h-166v274zM520 1542q0 -26 10 -49t27 -40t39.5 -26.5t48.5 -9.5t48.5 9.5 t39 26.5t26 40t9.5 49t-9.5 48.5t-26 39t-39 26t-48.5 9.5t-48.5 -9.5t-39.5 -26t-27 -39t-10 -48.5zM645 1859q65 0 123 -25t101.5 -68t68.5 -101t25 -123t-25 -123t-68.5 -101.5t-101.5 -68.5t-123 -25t-123 25t-101 68.5t-68 101.5t-25 123t25 123t68 101t101 68t123 25z "/>
<glyph glyph-name="Uhungarumlaut" horiz-adv-x="1561" unicode="Ű" d="M51 1516h608v-275h-139v-629q0 -86 19.5 -146t54.5 -98t83 -55.5t105 -17.5q59 0 107.5 15t83 51.5t53 97.5t18.5 153v629h-161v275h608v-275h-121v-590q0 -160 -46 -284.5t-126.5 -210.5t-189 -131t-232.5 -45q-123 0 -230 44.5t-186.5 129t-125.5 205.5t-46 274v608 h-137v275zM946 1990l-256 -319h-186l184 319h258zM1343 1990l-280 -319h-189l209 319h260z"/>
<glyph glyph-name="uhungarumlaut" horiz-adv-x="1409" unicode="ű" d="M723 1036h490v-762h125v-274h-439v88q-53 -48 -124 -74t-164 -26q-86 0 -162 27t-132.5 81.5t-89 136.5t-32.5 193v336h-135v274h458v-610q0 -104 53 -155.5t138 -51.5q60 0 109 37t71 100v406h-166v274zM811 1511l-256 -319h-186l184 319h258zM1208 1511l-280 -319h-189 l209 319h260z"/>
<glyph glyph-name="Uogonek" horiz-adv-x="1561" unicode="Ų" d="M883 1516h608v-275h-121v-590q0 -186 -60.5 -322t-164.5 -223q-37 -36 -67.5 -70t-53.5 -69t-35 -74.5t-12 -87.5q0 -47 30.5 -67.5t67.5 -20.5q39 0 70 11.5t51 21.5l49 -166q-26 -18 -81.5 -36.5t-125.5 -18.5q-53 0 -106 11t-95 39t-69 72t-27 111q0 60 22.5 115 t59.5 105q-12 0 -23.5 -1t-23.5 -1q-123 0 -230.5 45t-186 129t-125 204.5t-46.5 274.5v608h-137v275h608v-275h-139v-629q0 -86 19.5 -146t54.5 -98t83 -55.5t105 -17.5q60 0 108 15.5t83 51t53 97t18 153.5v629h-161v275z"/>
<glyph glyph-name="uogonek" horiz-adv-x="1384" unicode="ų" d="M31 1036h458v-610q0 -104 52.5 -155.5t138.5 -51.5q59 0 108.5 37t71.5 100v406h-166v274h490v-762h125v-274h-138q-102 -53 -156 -100t-54 -115q0 -39 24.5 -53.5t46.5 -14.5q39 0 65.5 6.5t47.5 16.5l49 -170q-10 -6 -29.5 -13.5t-44.5 -13.5q-24 -6 -51 -10t-53 -4 q-62 0 -114 14.5t-92 41t-62.5 65.5t-22.5 90q0 86 42 150.5t105 109.5h-2v88q-53 -47 -124.5 -73.5t-163.5 -26.5q-86 0 -162 26.5t-132.5 82t-89 137t-32.5 192.5v336h-135v274z"/>
<glyph glyph-name="Ydieresis" horiz-adv-x="1536" unicode="Ÿ" d="M47 1516h649v-275h-127l203 -348l215 348h-145v275h649v-275h-112l-451 -612v-355h184v-274h-676v274h168v359l-424 608h-133v275zM850 1820q0 37 14 69.5t38 57t56.5 38.5t70.5 14q36 0 68 -14t56 -38.5t38 -57t14 -69.5t-14 -69.5t-38 -56.5t-56 -38t-68 -14 q-38 0 -70.5 14t-56.5 38t-38 56.5t-14 69.5zM371 1820q0 37 13.5 69.5t37.5 57t56.5 38.5t70.5 14q36 0 68 -14t56 -38.5t38 -57t14 -69.5t-14 -69.5t-38 -56.5t-56 -38t-68 -14q-38 0 -70.5 14t-56.5 38t-37.5 56.5t-13.5 69.5z"/>
<glyph glyph-name="Zacute" horiz-adv-x="1290" unicode="Ź" d="M1214 1202l-755 -905h428v235h325v-532h-1151v313l737 906h-409v-240h-326v537h1151v-314zM784 1968h326v-25l-306 -286h-235z"/>
<glyph glyph-name="zacute" horiz-adv-x="1141" unicode="ź" d="M94 164l429 606h-201v-156h-261v422h908v-180l-451 -588h230v199h262v-467h-916v164zM625 1489h326v-25l-306 -286h-235z"/>
<glyph glyph-name="Zdotaccent" horiz-adv-x="1290" unicode="Ż" d="M1214 1202l-755 -905h428v235h325v-532h-1151v313l737 906h-409v-240h-326v537h1151v-314zM495 1849q0 37 13.5 69.5t37.5 56.5t56.5 38t70.5 14q36 0 68 -14t56 -38t38 -56.5t14 -69.5t-14 -69.5t-38 -56.5t-56 -38t-68 -14q-38 0 -70.5 14t-56.5 38t-37.5 56.5 t-13.5 69.5z"/>
<glyph glyph-name="zdotaccent" horiz-adv-x="1141" unicode="ż" d="M94 164l429 606h-201v-156h-261v422h908v-180l-451 -588h230v199h262v-467h-916v164zM336 1370q0 37 13.5 69.5t37.5 56.5t56.5 38t70.5 14q36 0 68 -14t56 -38t38 -56.5t14 -69.5t-14 -69.5t-38 -56.5t-56 -38t-68 -14q-38 0 -70.5 14t-56.5 38t-37.5 56.5t-13.5 69.5z "/>
<glyph glyph-name="Zcaron" horiz-adv-x="1290" unicode="Ž" d="M1214 1202l-755 -905h428v235h325v-532h-1151v313l737 906h-409v-240h-326v537h1151v-314zM1069 1941l-272 -325h-240l-274 325h246l147 -153l146 153h247z"/>
<glyph glyph-name="zcaron" horiz-adv-x="1141" unicode="ž" d="M94 164l429 606h-201v-156h-261v422h908v-180l-451 -588h230v199h262v-467h-916v164zM909 1462l-272 -325h-240l-274 325h246l147 -153l146 153h247z"/>
<glyph glyph-name="florin" horiz-adv-x="815" unicode="ƒ" d="M258 1036h158l30 172q17 90 61 160t105.5 117t135 70.5t151.5 23.5q115 0 177.5 -29.5t84.5 -56.5l-153 -211q-21 16 -47.5 26.5t-67.5 10.5q-53 0 -98 -35t-56 -102l-26 -146h188l-45 -262h-190l-154 -874q-16 -90 -59 -160t-105.5 -117t-137.5 -70.5t-151 -23.5 q-114 0 -175.5 29.5t-84.5 56.5l152 211q20 -16 48 -26.5t69 -10.5q53 0 97 35t56 102l148 848h-156z"/>
<glyph glyph-name="Scommaaccent" d="M842 1089q-5 35 -24.5 66t-50 53.5t-69 35.5t-80.5 13q-38 0 -71 -8t-57.5 -24.5t-39 -42.5t-14.5 -62q0 -45 19.5 -71.5t50 -43.5t67.5 -27t72 -22l275 -92q57 -20 107 -55t86.5 -85t57.5 -115t21 -146q0 -110 -40.5 -201t-113.5 -156t-175 -101t-226 -36 q-87 0 -164.5 19.5t-141.5 56.5t-112 88.5t-75 116.5h-103v301h362v-62q0 -45 14.5 -83t43.5 -66t73 -43.5t103 -15.5q90 0 137 41.5t47 115.5q0 38 -16.5 63.5t-42.5 43t-58 29.5t-63 22l-229 74q-65 20 -125.5 56t-107 90t-74 126.5t-27.5 165.5q0 108 40 192.5t112 142.5 t171 88t217 30q93 0 172 -21.5t141.5 -57.5t106 -82.5t66.5 -96.5h100v-302h-362v88zM534 -29l289 -104l-197 -338l-206 72z" unicode="Ș"/>
<glyph glyph-name="scommaaccent" horiz-adv-x="1102" unicode="ș" d="M725.5 765q-15.5 22 -45.5 38.5t-73.5 26.5t-98.5 10q-21 0 -45 -3.5t-44.5 -12.5t-34 -24.5t-13.5 -39.5q0 -12 3.5 -23t13.5 -21t27.5 -18.5t45.5 -13.5l188 -37q102 -20 171 -50t111 -70t60.5 -89t18.5 -106q0 -89 -41.5 -156t-109 -111.5t-152 -67t-170.5 -22.5 q-56 0 -101.5 7t-82 19t-65 28.5t-52.5 36.5h-181v278h283v-6q1 -29 18 -50.5t44.5 -36.5t62.5 -22.5t74 -7.5q90 0 131 23.5t41 60.5q0 29 -20 49.5t-71 32.5l-192 41q-181 35 -273 116.5t-92 209.5q0 75 35 136.5t95 105t140.5 67.5t172.5 24q63 0 112 -7.5t88 -19.5 t68.5 -28.5t52.5 -34.5h174v-278h-258q0 24 -15.5 46zM463 -29l289 -104l-197 -338l-206 72z"/>
<glyph glyph-name="uni021A" horiz-adv-x="1419" unicode="Ț" d="M373 274h157v977h-184v-196h-326v461h1379v-461h-328v196h-209v-977h160v-274h-649v274zM622 -29l289 -104l-197 -338l-206 72z"/>
<glyph glyph-name="uni021B" horiz-adv-x="801" unicode="ț" d="M471 1036h207v-262h-209l-2 -438q0 -38 6 -61.5t17.5 -37.5t27.5 -19t37 -5q38 0 67 7.5t58 17.5l43 -193q-51 -32 -113.5 -51t-148.5 -19q-61 0 -116.5 21t-97.5 63.5t-67 106.5q-24 62 -24 142v7l3 459h-149v262h150l2 248l311 148zM313 -29l289 -104l-197 -338 l-206 72z"/>
<glyph glyph-name="apostrophe" horiz-adv-x="340" unicode="ʼ" d="M111 1493l288 -104l-196 -338l-207 71z"/>
<glyph glyph-name="circumflex" horiz-adv-x="827" unicode="ˆ" d="M86 1176l272 325h240l274 -325h-245l-148 153l-145 -153h-248z"/>
<glyph glyph-name="caron" horiz-adv-x="1100" unicode="ˇ" d="M872 1462l-272 -325h-240l-274 325h246l147 -153l146 153h247z"/>
<glyph glyph-name="breve" horiz-adv-x="987" unicode="˘" d="M483 1157q-95 0 -167 21.5t-125 63t-89.5 101.5t-60.5 138h252q20 -60 67.5 -91.5t122.5 -31.5q72 0 118 29t71 94h250q-22 -77 -58 -137t-89.5 -101.5t-125.5 -63.5t-166 -22z"/>
<glyph glyph-name="dotaccent" horiz-adv-x="539" unicode="˙" d="M92 1370q0 37 13.5 69.5t37.5 56.5t56.5 38t70.5 14q36 0 68 -14t56 -38t38 -56.5t14 -69.5t-14 -69.5t-38 -56.5t-56 -38t-68 -14q-38 0 -70.5 14t-56.5 38t-37.5 56.5t-13.5 69.5z"/>
<glyph glyph-name="ring" horiz-adv-x="1200" unicode="˚" d="M481 1419q0 -26 10 -49t27 -40t39.5 -26.5t48.5 -9.5t48.5 9.5t39 26.5t26 40t9.5 49t-9.5 48.5t-26 39t-39 26t-48.5 9.5t-48.5 -9.5t-39.5 -26t-27 -39t-10 -48.5zM606 1736q65 0 123 -25t101.5 -68t68.5 -101t25 -123t-25 -123t-68.5 -101.5t-101.5 -68.5t-123 -25 t-123 25t-101 68.5t-68 101.5t-25 123t25 123t68 101t101 68t123 25z"/>
<glyph glyph-name="ogonek" horiz-adv-x="0" unicode="˛" d="M469 29q-66 -29 -111 -56t-73 -55.5t-40 -58.5t-12 -64q0 -19 8 -32t21 -20.5t29.5 -11t34.5 -3.5q38 0 65 6.5t47 15.5l49 -166q-11 -6 -31 -13t-45 -13.5t-52 -10.5t-50 -4q-61 0 -112 13.5t-88.5 39.5t-58.5 64.5t-21 89.5t18 95.5t47.5 81.5t67.5 66.5t77.5 52 t77 37.5t66.5 23z"/>
<glyph glyph-name="tilde" horiz-adv-x="903" unicode="˜" d="M295 1479q42 0 81 -14.5t76.5 -32t73 -32t70.5 -14.5q42 0 74.5 15t58.5 53l158 -70q-15 -45 -42.5 -84t-63.5 -68.5t-79 -46t-90 -16.5q-52 0 -94 13.5t-79.5 30t-73.5 30.5t-76 14q-45 0 -76 -18.5t-51 -44.5l-152 70q14 54 47.5 94t74.5 67t84.5 40.5t78.5 13.5z"/>
<glyph glyph-name="hungarumlaut" horiz-adv-x="1317" unicode="˝" d="M770 1511l-256 -319h-186l184 319h258zM1167 1511l-280 -319h-189l209 319h260z"/>
<glyph glyph-name="Gamma" horiz-adv-x="1305" unicode="Γ" d="M113 274h157v977h-157v265h1185v-461h-327v196h-369v-977h160v-274h-649v274z"/>
<glyph glyph-name="Pi" horiz-adv-x="1829" unicode="Π" d="M113 1516h1603v-273h-160v-969h160v-274h-649v274h158v969h-623v-969h160v-274h-649v274h157v969h-157v273z"/>
<glyph glyph-name="pi" horiz-adv-x="1450" unicode="π" d="M1130 -18q-77 0 -135.5 14t-97.5 54t-59.5 107.5t-20.5 176.5v428h-242v-488h144v-274h-608v274h155v488h-155v274h1171v-274h-158v-404q0 -28 6.5 -48.5t17.5 -33t27.5 -18.5t36.5 -6q21 0 38.5 3t29.5 7l47 -254q-29 -10 -82 -18t-115 -8z"/>
<glyph glyph-name="uni0400" horiz-adv-x="1380" unicode="Ѐ" d="M113 1516h1206v-517h-326v215h-389v-299h301v-290h-301v-351h389v269h326v-543h-1206v274h159v940h-159v302zM660 1657l-293 286v25h326l196 -311h-229z"/>
<glyph glyph-name="uni0401" horiz-adv-x="1380" unicode="Ё" d="M113 1516h1206v-517h-326v215h-389v-299h301v-290h-301v-351h389v269h326v-543h-1206v274h159v940h-159v302zM325 1821q0 37 13.5 69.5t37.5 56.5t56.5 38t70.5 14q36 0 68 -14t56 -38t38 -56.5t14 -69.5t-14 -69.5t-38 -56.5t-56 -38t-68 -14q-38 0 -70.5 14t-56.5 38 t-37.5 56.5t-13.5 69.5zM805 1821q0 37 13.5 69.5t37.5 56.5t56.5 38t70.5 14q36 0 68 -14t56 -38t38 -56.5t14 -69.5t-14 -69.5t-38 -56.5t-56 -38t-68 -14q-38 0 -70.5 14t-56.5 38t-37.5 56.5t-13.5 69.5z"/>
<glyph glyph-name="uni0402" horiz-adv-x="1784" unicode="Ђ" d="M1743 444q0 -116 -41 -203t-105.5 -144.5t-144.5 -86t-160 -28.5h-32.5t-30.5 2v288h14h14q31 0 64 7.5t60.5 26t46 51t18.5 85.5q0 52 -21.5 87.5t-56.5 58t-77 32t-81 9.5q-80 0 -159.5 -20.5t-143.5 -47.5v-287h158v-274h-649v274h159v977h-208v-196h-326v461h1391 v-461h-328v196h-197v-403q76 24 159 40.5t165 16.5q123 0 219 -39t160.5 -102.5t98.5 -147.5t34 -172z"/>
<glyph glyph-name="uni0403" horiz-adv-x="1305" unicode="Ѓ" d="M113 274h157v977h-157v265h1185v-461h-327v196h-369v-977h160v-274h-649v274zM713 1886h326v-25l-306 -286h-235z"/>
<glyph glyph-name="uni0404" horiz-adv-x="1554" unicode="Є" d="M1106 1055q-41 71 -122 123.5t-185 52.5q-66 0 -124.5 -22.5t-105.5 -63.5t-82.5 -97.5t-56.5 -121.5h635v-264h-651q12 -80 46 -149t85 -118t115.5 -77.5t138.5 -28.5q59 0 111.5 19.5t95.5 51t74.5 73.5t49.5 87l322 -90q-31 -98 -91.5 -181t-144 -144.5t-189 -96.5 t-228.5 -35q-154 0 -288 61.5t-232.5 168t-155.5 250t-57 307.5q0 162 57 305t155.5 249.5t232.5 168t288 61.5q59 0 120.5 -11t118 -31.5t108.5 -48.5t93 -60h176v-338h-309z"/>
<glyph glyph-name="uni0405" d="M842 1089q-5 35 -24.5 66t-50 53.5t-69 35.5t-80.5 13q-38 0 -71 -8t-57.5 -24.5t-39 -42.5t-14.5 -62q0 -45 19.5 -71.5t50 -43.5t67.5 -27t72 -22l275 -92q57 -20 107 -55t86.5 -85t57.5 -115t21 -146q0 -110 -40.5 -201t-113.5 -156t-175 -101t-226 -36 q-87 0 -164.5 19.5t-141.5 56.5t-112 88.5t-75 116.5h-103v301h362v-62q0 -45 14.5 -83t43.5 -66t73 -43.5t103 -15.5q90 0 137 41.5t47 115.5q0 38 -16.5 63.5t-42.5 43t-58 29.5t-63 22l-229 74q-65 20 -125.5 56t-107 90t-74 126.5t-27.5 165.5q0 108 40 192.5t112 142.5 t171 88t217 30q93 0 172 -21.5t141.5 -57.5t106 -82.5t66.5 -96.5h100v-302h-362v88z" unicode="Ѕ"/>
<glyph glyph-name="uni0406" horiz-adv-x="874" unicode="І" d="M113 1516h649v-274h-160v-968h160v-274h-649v274h157v968h-157v274z"/>
<glyph glyph-name="uni0407" horiz-adv-x="874" unicode="Ї" d="M113 1516h649v-274h-160v-968h160v-274h-649v274h157v968h-157v274zM460 1820q0 66 46 113t113 47q33 0 61.5 -12t50 -33.5t34 -51.5t12.5 -63q0 -32 -12.5 -62t-34 -51.5t-50 -33.5t-61.5 -12q-67 0 -113 47t-46 112zM83 1820q0 66 46 113t113 47q33 0 62 -12 t50.5 -33.5t33.5 -51.5t12 -63q0 -32 -12 -62t-33.5 -51.5t-50.5 -33.5t-62 -12q-67 0 -113 47t-46 112z"/>
<glyph glyph-name="uni0408" horiz-adv-x="686" unicode="Ј" d="M82 1516h573v-304h-106v-1040q-22 -81 -64 -148.5t-82.5 -122.5t-113.5 -139l-279 15q59 90 92.5 148.5t67.5 129t53 150.5v1007h-141v304z"/>
<glyph glyph-name="uni0409" horiz-adv-x="2257" unicode="Љ" d="M1470 678v-404h140q61 0 107 13.5t77 40t47.5 64.5t16.5 87q0 51 -17.5 89t-50.5 62.5t-78 36t-102 11.5h-140zM983 274h156v969h-332v-475q0 -137 -21.5 -274.5t-74 -247t-142.5 -178t-229 -68.5h-268v414h278v-152q49 23 81 63t48.5 94t22.5 122.5t6 152.5v549h-205 v273h1411v-273h-244v-291h213q138 0 239 -39t166.5 -103.5t97.5 -148t32 -176.5q0 -102 -40 -191t-110.5 -154.5t-169 -102.5t-215.5 -37h-700v274z"/>
<glyph glyph-name="uni040A" horiz-adv-x="2280" unicode="Њ" d="M1481 678v-404h137q123 0 185.5 53.5t62.5 151.5q0 51 -17.5 89t-50.5 62.5t-78 36t-102 11.5h-137zM111 1516h649v-275h-160v-291h549v291h-160v275h676v-275h-184v-289h211q137 0 238.5 -39t167 -103.5t97 -148t31.5 -176.5q0 -102 -40 -191t-110.5 -154.5t-169 -102.5 t-214.5 -37h-701v274h158v412h-549v-412h162v-274h-649v274h155v967h-157v275z"/>
<glyph glyph-name="uni040B" horiz-adv-x="2060" unicode="Ћ" d="M1298 274h158l2 91q0 77 -19.5 125.5t-56 74t-90 34.5t-121.5 9q-71 0 -138.5 -6t-135.5 -18v-310h160v-274h-649v274h157v977h-198v-196h-326v461h1393v-461h-328v196h-209v-374q76 12 158 20t159 8q125 0 230.5 -21.5t181.5 -78.5t119 -156.5t43 -255.5v-119h160v-274 h-650v274z"/>
<glyph glyph-name="uni040C" horiz-adv-x="1655" unicode="Ќ" d="M113 1516h649v-275h-160v-441l485 423v293h517v-295h-113l-505 -434l484 -490h123v-297h-503v297l-488 488v-511h160v-274h-649v274h157v967h-157v275zM969 1968h326v-25l-306 -286h-235z"/>
<glyph glyph-name="uni040D" horiz-adv-x="1894" unicode="Ѝ" d="M113 1516h613v-275h-123v-769l684 1046h494v-277h-167v-967h167v-274h-624v274h129v755l-684 -1029h-489v274h157v967h-157v275zM916 1657l-293 286v25h326l196 -311h-229z"/>
<glyph glyph-name="uni040E" horiz-adv-x="1479" unicode="Ў" d="M825 1516h623v-275h-125l-430 -946q-39 -84 -83 -142.5t-95 -95.5t-109.5 -53t-124.5 -16q-45 0 -83 3t-72 9h-209v414h309v-172q33 2 59.5 8t50 20.5t42 35t34.5 48.5l-63 127q-96 193 -189.5 381.5t-189.5 378.5h-129v275h643v-275h-125l205 -504l194 504h-133v275z M755 1638q-95 0 -167 21.5t-125 63t-89.5 101.5t-60.5 138h252q20 -60 67.5 -91.5t122.5 -31.5q72 0 118 29t71 94h250q-22 -77 -58 -137t-89.5 -101.5t-125.5 -63.5t-166 -22z"/>
<glyph glyph-name="uni040F" horiz-adv-x="1829" unicode="Џ" d="M1067 1516h649v-275h-160v-969h160v-272h-645v-348h-309v348h-649v272h157v969h-157v275h649v-275h-160v-969h623v969h-158v275z"/>
<glyph glyph-name="uni0410" horiz-adv-x="1491" unicode="А" d="M589 748h306l-154 493zM893 274h151l-68 218h-466l-68 -218h160v-274h-575v274h113l413 1242h401l404 -1242h110v-274h-575v274z"/>
<glyph glyph-name="uni0411" horiz-adv-x="1386" unicode="Б" d="M600 678v-404h139q123 0 185.5 53.5t62.5 151.5q0 51 -17.5 89t-50 62.5t-77.5 36t-103 11.5h-139zM113 274h155v977h-151v265h1186v-461h-328v196h-375v-299h213q137 0 238.5 -39t167 -103.5t97.5 -148t32 -176.5q0 -102 -40 -191t-111 -154.5t-169 -102.5t-215 -37 h-700v274z"/>
<glyph glyph-name="uni0412" horiz-adv-x="1386" unicode="В" d="M600 1241v-340h238q28 0 53 14t43.5 37.5t29.5 53t11 61.5q0 31 -11 62t-29.5 56t-43.5 40.5t-53 15.5h-238zM600 627v-353h252q29 0 54.5 15t44 39.5t29.5 57t11 67.5q0 37 -11 68.5t-30 55t-44.5 37t-53.5 13.5h-252zM113 274h155v967h-155v277l739 -2 q103 0 188.5 -36.5t147.5 -99t96.5 -146t34.5 -177.5q0 -110 -38.5 -182t-109.5 -116q75 -48 118.5 -118.5t43.5 -171.5q0 -103 -35.5 -189t-97 -148.5t-145.5 -97t-181 -34.5h-761v274z"/>
<glyph glyph-name="uni0413" horiz-adv-x="1305" unicode="Г" d="M113 274h157v977h-157v265h1185v-461h-327v196h-369v-977h160v-274h-649v274z"/>
<glyph glyph-name="uni0414" horiz-adv-x="1890" unicode="Д" d="M807 760q0 -139 -20.5 -264t-75.5 -224h512v971h-416v-483zM164 272h166q55 21 88 58t50 91t22.5 122.5t5.5 150.5l2 549h-195v273h1411v-273h-160v-971h193v-620h-332v348h-919v-348h-332v620z"/>
<glyph glyph-name="uni0415" horiz-adv-x="1380" unicode="Е" d="M113 1516h1206v-517h-326v215h-389v-299h301v-290h-301v-351h389v269h326v-543h-1206v274h159v940h-159v302z"/>
<glyph glyph-name="uni0416" horiz-adv-x="2237" unicode="Ж" d="M796 274h158v371h-142l-248 -370v-275h-504v275h123l384 511l-394 455h-123v275h514v-273l251 -323h139v321h-158v275h649v-275h-159v-321h137l250 323v273h514v-275h-124l-394 -455l385 -511h123v-275h-504v275l-248 370h-139v-371h159v-274h-649v274z"/>
<glyph glyph-name="uni0417" horiz-adv-x="1167" unicode="З" d="M61 563h363v-155q22 -66 71.5 -95.5t125.5 -29.5q43 0 80.5 14t65.5 38.5t44 58.5t16 71q0 41 -14 74.5t-42 58.5t-65.5 39t-87.5 14h-139v273h142q45 0 79.5 12t58 33.5t36 50.5t12.5 63q0 31 -13.5 61t-39 53.5t-61.5 38.5t-79 15q-36 0 -70 -12t-58.5 -33.5t-40 -49.5 t-15.5 -58v-97h-362v302h112q60 110 171.5 178.5t262.5 68.5q107 0 199 -36.5t159.5 -98t106.5 -143.5t39 -170q0 -98 -40 -178t-109 -127q71 -41 121.5 -129t50.5 -201q0 -98 -40 -186t-110.5 -155t-167 -105.5t-207.5 -38.5q-79 0 -153 20.5t-136.5 57t-109.5 88 t-74 114.5h-82v301z"/>
<glyph glyph-name="uni0418" horiz-adv-x="1894" unicode="И" d="M113 1516h613v-275h-123v-769l684 1046h494v-277h-167v-967h167v-274h-624v274h129v755l-684 -1029h-489v274h157v967h-157v275z"/>
<glyph glyph-name="uni0419" horiz-adv-x="1894" unicode="Й" d="M113 1516h613v-275h-123v-769l684 1046h494v-277h-167v-967h167v-274h-624v274h129v755l-684 -1029h-489v274h157v967h-157v275zM978 1636q-95 0 -167 21.5t-125 63t-89.5 101.5t-60.5 138h252q20 -60 67.5 -91.5t122.5 -31.5q72 0 118 29t71 94h250q-22 -77 -58 -137 t-89.5 -101.5t-125.5 -63.5t-166 -22z"/>
<glyph glyph-name="uni041A" horiz-adv-x="1655" unicode="К" d="M113 1516h649v-275h-160v-441l485 423v293h517v-295h-113l-505 -434l484 -490h123v-297h-503v297l-488 488v-511h160v-274h-649v274h157v967h-157v275z"/>
<glyph glyph-name="uni041B" horiz-adv-x="1829" unicode="Л" d="M1067 274h156v969h-416v-475q0 -137 -21.5 -274.5t-74 -247t-142.5 -178t-227 -68.5h-270v414h278v-152q49 23 81 63t48.5 94t22.5 122.5t6 152.5v549h-205v273h1411v-273h-160v-969h162v-274h-649v274z"/>
<glyph glyph-name="uni041C" horiz-adv-x="2345" unicode="М" d="M113 274h141v967h-141v275h624l447 -1094l415 1094h633v-275h-141v-967h139v-274h-567v274h104v872l-454 -1128h-281l-462 1098v-842h113v-274h-570v274z"/>
<glyph glyph-name="uni041D" horiz-adv-x="1890" unicode="Н" d="M1128 1516h650v-275h-160v-967h160v-274h-650v274h158v388h-684v-388h160v-274h-649v274h157v967h-157v275h649v-275h-160v-315h684v315h-158v275z"/>
<glyph glyph-name="uni041E" horiz-adv-x="1599" unicode="О" d="M799 287q87 0 159.5 37.5t124.5 102t80.5 150t28.5 181.5q0 97 -29 183t-81.5 150.5t-124.5 102t-158 37.5t-158 -37.5t-124 -102t-81.5 -150.5t-29.5 -183q0 -96 29.5 -181.5t81.5 -150t124 -102t158 -37.5zM799 -27q-103 0 -197 28t-175.5 79t-148 122.5t-113.5 159 t-73 187.5t-26 209t26 209.5t73 188t113.5 159t148 122.5t175.5 79t197 28t197.5 -28t176 -79t148 -122.5t114 -159t73.5 -188t26 -209.5q0 -108 -26 -208.5t-73.5 -188t-114 -159t-148 -122.5t-176 -79t-197.5 -28z"/>
<glyph glyph-name="uni041F" horiz-adv-x="1829" unicode="П" d="M113 1516h1603v-273h-160v-969h160v-274h-649v274h158v969h-623v-969h160v-274h-649v274h157v969h-157v273z"/>
<glyph glyph-name="uni0420" horiz-adv-x="1401" unicode="Р" d="M602 1241v-407h137q114 0 181 48t67 152q0 97 -63 152t-185 55h-137zM113 1516h700q117 0 215 -36.5t169 -98.5t111 -143t40 -169q0 -106 -31.5 -198.5t-97.5 -160.5t-167 -107.5t-239 -39.5h-211v-289h139v-274h-628v274h157v967h-157v275z"/>
<glyph glyph-name="uni0421" horiz-adv-x="1554" unicode="С" d="M1106 1055q-56 80 -101 113.5t-97 48t-109 14.5q-84 0 -156 -37.5t-124.5 -102t-82.5 -150t-30 -181.5q0 -97 29.5 -182.5t81.5 -149.5t124 -101.5t158 -37.5q60 0 112 19.5t94.5 51.5t74.5 73.5t50 86.5l322 -90q-31 -98 -91 -181.5t-144.5 -144.5t-190 -96t-227.5 -35 q-103 0 -197 28t-175.5 79t-148 123t-113.5 159.5t-73 188t-26 209.5q0 163 57 305.5t156 249t232.5 168t287.5 61.5q123 0 207 -30.5t185 -120.5h224v-338h-309z"/>
<glyph glyph-name="uni0422" horiz-adv-x="1419" unicode="Т" d="M373 274h157v977h-184v-196h-326v461h1379v-461h-328v196h-209v-977h160v-274h-649v274z"/>
<glyph glyph-name="uni0423" horiz-adv-x="1479" unicode="У" d="M825 1516h623v-275h-125l-430 -946q-39 -84 -83 -142.5t-95 -95.5t-109.5 -53t-124.5 -16q-45 0 -83 3t-72 9h-209v414h309v-172q33 2 59.5 8t50 20.5t42 35t34.5 48.5l-63 127q-96 193 -189.5 381.5t-189.5 378.5h-129v275h643v-275h-125l205 -504l194 504h-133v275z "/>
<glyph glyph-name="uni0424" horiz-adv-x="1599" unicode="Ф" d="M402.5 728q21.5 -42 55.5 -67.5t78 -38t87 -12.5h24v441h-24q-43 0 -87 -11.5t-78 -37t-55.5 -68.5t-21.5 -105q0 -59 21.5 -101zM979 1051v-441h27q45 0 89 12.5t78.5 38t55 67.5t20.5 101q0 62 -21.5 105t-56 68.5t-77.5 37t-88 11.5h-27zM514 1587h594v-219h-129v-90 h10q127 0 235.5 -26.5t188.5 -81t125 -139.5t45 -202q0 -114 -42 -199t-120 -140.5t-186.5 -83t-241.5 -27.5h-14v-105h170v-274h-676v274h174v105h-10q-127 0 -234.5 27.5t-186.5 83t-123 140.5t-44 199q0 117 45 201t123 139.5t185.5 82t230.5 26.5h14v90h-133v219z"/>
<glyph glyph-name="uni0425" horiz-adv-x="1577" unicode="Х" d="M878 1516h643v-275h-65l-456 -487l454 -480h63v-274h-643v274h158l-240 258l-242 -258h146v-274h-643v274h81l449 480l-455 487h-71v275h643v-275h-158l249 -265l245 265h-158v275z"/>
<glyph glyph-name="uni0426" horiz-adv-x="1890" unicode="Ц" d="M1067 1516h649v-275h-160v-967h304v-622h-310v348h-1437v274h157v967h-157v275h649v-275h-160v-967h623v967h-158v275z"/>
<glyph glyph-name="uni0427" horiz-adv-x="1708" unicode="Ч" d="M41 1516h649v-275h-147v-209q0 -78 19.5 -126t56 -74.5t90 -35t120.5 -8.5q72 0 139.5 6.5t135.5 18.5v428h-158v275h649v-275h-159v-967h159v-274h-649v274h158v246q-78 -14 -160 -21t-158 -7q-124 0 -229.5 21.5t-181.5 78.5t-119 156.5t-43 255.5v237h-172v275z"/>
<glyph glyph-name="uni0428" horiz-adv-x="2638" unicode="Ш" d="M113 1516h643v-275h-162v-967h514v967h-156v275h643v-275h-155v-967h504v967h-152v275h643v-275h-160v-967h162v-274h-2322v274h147v967h-149v275z"/>
<glyph glyph-name="uni0429" horiz-adv-x="2605" unicode="Щ" d="M1792 1516h643v-275h-160v-967h308v-622h-310v348h-2160v274h149v967h-149v275h643v-275h-162v-967h514v967h-156v275h643v-275h-155v-967h504v967h-152v275z"/>
<glyph glyph-name="uni042A" horiz-adv-x="1634" unicode="Ъ" d="M848 678v-404h139q123 0 185.5 53.5t62.5 151.5q0 51 -17.5 89t-50.5 62.5t-78 36t-102 11.5h-139zM360 274h156v977h-168v-196h-328v461h1004v-265h-176v-299h213q137 0 238.5 -39t167 -103.5t97 -148t31.5 -176.5q0 -102 -40 -191t-110.5 -154.5t-169 -102.5 t-214.5 -37h-701v274z"/>
<glyph glyph-name="uni042B" horiz-adv-x="2130" unicode="Ы" d="M600 678v-404h139q123 0 185.5 53.5t62.5 151.5q0 51 -17.5 89t-50 62.5t-77.5 36t-103 11.5h-139zM1356 1516h649v-275h-160v-967h160v-274h-649v274h157v967h-157v275zM115 1516h676v-275h-191v-289h213q137 0 238.5 -39t167 -103.5t97.5 -148t32 -176.5 q0 -102 -40 -191t-111 -154.5t-169 -102.5t-215 -37h-700v274h155v967h-153v275z"/>
<glyph glyph-name="uni042C" horiz-adv-x="1386" unicode="Ь" d="M600 678v-404h139q123 0 185.5 53.5t62.5 151.5q0 51 -17.5 89t-50 62.5t-77.5 36t-103 11.5h-139zM115 1516h676v-275h-191v-289h213q137 0 238.5 -39t167 -103.5t97.5 -148t32 -176.5q0 -102 -40 -191t-111 -154.5t-169 -102.5t-215 -37h-700v274h155v967h-153v275z "/>
<glyph glyph-name="uni042D" horiz-adv-x="1599" unicode="Э" d="M477 915h705q-15 62 -48.5 119.5t-83 100.5t-113 69.5t-136.5 26.5q-53 0 -99.5 -14.5t-86.5 -39t-70.5 -56t-50.5 -66.5h-310v338h176q41 32 93.5 60t108.5 48.5t117.5 31.5t121.5 11q155 0 289.5 -61.5t232.5 -167t154.5 -248.5t56.5 -307q0 -166 -56.5 -309.5 t-154.5 -249t-232.5 -167t-289.5 -61.5q-123 0 -228.5 35t-189.5 96.5t-144.5 144.5t-91.5 181l322 90q18 -45 50 -87t75 -73.5t95 -51t112 -19.5q80 0 146.5 29.5t116.5 78.5t82 112.5t42 131.5h-711v274z"/>
<glyph glyph-name="uni042E" horiz-adv-x="2342" unicode="Ю" d="M1542 287q88 0 160 37.5t124 102.5t80.5 150t28.5 181t-29.5 182t-81.5 150.5t-124 102.5t-158 38t-157.5 -38t-124 -102.5t-82 -150.5t-29.5 -182t29.5 -181t82 -150t124 -102.5t157.5 -37.5zM113 1516h649v-275h-160v-293h227q29 129 95.5 237.5t160 188.5t210 125 t247.5 45q154 0 288 -61.5t233.5 -168t156.5 -249.5t57 -307t-57 -306.5t-156.5 -249t-233.5 -168t-288 -61.5q-143 0 -270 54.5t-223.5 148.5t-159 222t-76.5 276h-211v-400h160v-274h-649v274h157v967h-157v275z"/>
<glyph glyph-name="uni042F" horiz-adv-x="1530" unicode="Я" d="M553 1055q0 -94 66.5 -137.5t181.5 -43.5h198v367h-198q-123 0 -185.5 -49t-62.5 -137zM842 274h157v330h-153q-117 -4 -173.5 -60.5t-72.5 -183.5l-59 -360h-428l2 274h125l51 218q18 86 58 139t89 80q-59 28 -105 62t-77 79t-47 103.5t-16 134.5q0 84 33.5 161.5 t96 136t154.5 93.5t209 35h789v-275h-144v-967h139v-274h-628v274z"/>
<glyph glyph-name="uni0430" horiz-adv-x="1280" unicode="а" d="M489 211q71 0 129 23t99 56v132h-240q-23 0 -45 -7t-39.5 -20t-28 -32t-10.5 -44q0 -46 33.5 -77t101.5 -31zM717 56q-35 -22 -64 -37.5t-58 -25t-60 -14t-68 -4.5q-93 0 -166.5 25.5t-124 70t-77.5 105t-27 131.5q0 72 27.5 133t79.5 104.5t127.5 68t172.5 24.5 q71 0 129.5 -7.5t108.5 -18.5v32q0 39 -15 67.5t-42 47t-65 27t-83 8.5q-94 0 -165.5 -18.5t-137.5 -53.5l-96 194q102 70 213.5 107t236.5 37q97 0 179.5 -21.5t141.5 -70t92.5 -126.5t33.5 -190v-377h139v-274h-432v56z"/>
<glyph glyph-name="uni0431" horiz-adv-x="1237" unicode="б" d="M621 252q51 0 97 19.5t79.5 54t53 85t19.5 109.5q0 64 -18 114t-50 85t-77 53.5t-98 18.5q-49 0 -96.5 -21.5t-82 -55.5t-56 -76t-21.5 -85v-31q0 -55 20.5 -104t54 -86t79.5 -58.5t96 -21.5zM375 971q45 39 120.5 65.5t166.5 26.5q112 0 206.5 -38t162 -107.5 t105.5 -171t38 -226.5q0 -112 -40 -211.5t-112 -173.5t-174.5 -117t-226.5 -43q-123 0 -223.5 41t-171 112t-109.5 166t-39 206v183v183q0 156 47 269.5t132 190.5t200.5 119t255.5 52l110 8v49h279v-325l-342 -8q-105 -2 -178.5 -23.5t-119.5 -54.5t-66.5 -75t-20.5 -87 v-10z"/>
<glyph glyph-name="uni0432" horiz-adv-x="1370" unicode="в" d="M545 774v-160h262q67 0 102 15.5t35 56.5q0 39 -32.5 63.5t-104.5 24.5h-262zM545 422v-170h276q60 0 100 20.5t40 65.5q0 49 -41 66.5t-99 17.5h-276zM113 0v252h137v522h-137v262h708q207 0 327 -82t120 -221q0 -78 -32 -128t-93 -83q65 -30 102 -80.5t37 -126.5 q0 -71 -31.5 -129.5t-90 -99.5t-139.5 -63.5t-177 -22.5h-731z"/>
<glyph glyph-name="uni0433" horiz-adv-x="1214" unicode="г" d="M113 274h178v498h-178v264h1071v-461h-307v197h-277v-498h162v-274h-649v274z"/>
<glyph glyph-name="uni0434" horiz-adv-x="1614" unicode="д" d="M705 625q-5 -70 -23 -165t-66 -188h390v492h-295zM94 250l82 10q76 16 120 52t68.5 90.5t35 128t16.5 165.5l4 68h-152v272h1200v-272h-153v-492h207v-579h-332v307h-787v-307h-311z"/>
<glyph glyph-name="uni0435" horiz-adv-x="1206" unicode="е" d="M608 831q-56 0 -95.5 -13.5t-66.5 -37t-43 -53.5t-25 -63h433q-7 34 -20 64t-36 53t-58.5 36.5t-88.5 13.5zM369 453l3 -31q11 -45 37.5 -79t62.5 -57t80 -34.5t89 -11.5t85.5 5.5t78.5 15t74 22t73 26.5l110 -205q-57 -35 -104.5 -59.5t-95.5 -40.5t-102 -23.5 t-126 -7.5q-135 0 -240 44.5t-176.5 120.5t-109 178t-37.5 216t39.5 214t111.5 174.5t172 117.5t222 43t216.5 -40.5t159.5 -112t100 -168t38 -207.5q4 -25 4 -49v-10q0 -20 -2 -41h-763z"/>
<glyph glyph-name="uni0436" horiz-adv-x="1931" unicode="ж" d="M829 401h-139l-108 -127h2v-274h-514v274h149l223 252l-200 236h-172v274h514v-274h-6l94 -131h157v131h-133v274h441v-405h120l91 131v274h514v-274h-176l-199 -236l225 -252h148v-274h-281l-340 401h-102v-127h133v-274h-441v401z"/>
<glyph glyph-name="uni0437" horiz-adv-x="1147" unicode="з" d="M719 729q0 53 -45 75.5t-119 22.5q-41 0 -75 -12t-58.5 -30.5t-42 -41t-25.5 -43.5q-4 0 -5 1t-5 1h-274v302h194q58 34 134.5 55.5t174.5 21.5q134 0 222 -26.5t141 -70.5t75.5 -100.5t22.5 -113.5q0 -37 -6 -75t-24.5 -70.5t-51 -58t-88.5 -38.5q54 -12 88.5 -38.5 t55 -58.5t28.5 -66.5t8 -63.5q0 -72 -29.5 -132t-90 -104.5t-153.5 -70t-220 -25.5q-123 0 -211 29t-147.5 78t-93 115.5t-48.5 142.5l283 47q10 -72 68.5 -117t154.5 -45q33 0 64.5 4t56 15.5t39 30t14.5 48.5q0 29 -10 50.5t-32.5 35t-57.5 20.5t-84 7h-88v193h88 q88 0 130 22.5t42 83.5z"/>
<glyph glyph-name="uni0438" horiz-adv-x="1550" unicode="и" d="M92 1036h561v-274h-123v-366l501 640h404v-276h-123v-486h123v-274h-561v274h129v356l-501 -630h-408v274h127v488h-129v274z"/>
<glyph glyph-name="uni0439" horiz-adv-x="1577" unicode="й" d="M92 1036h561v-274h-123v-366l501 640h404v-276h-123v-486h123v-274h-561v274h129v356l-501 -630h-408v274h127v488h-129v274zM845 1157q-95 0 -167 21.5t-125 63t-89.5 101.5t-60.5 138h252q20 -60 67.5 -91.5t122.5 -31.5q72 0 118 29t71 94h250q-22 -77 -58 -137 t-89.5 -101.5t-125.5 -63.5t-166 -22z"/>
<glyph glyph-name="uni043A" horiz-adv-x="1365" unicode="к" d="M92 1036h469v-422h120l105 152v270h500v-274h-170l-203 -254l221 -234h150v-274h-281l-340 399h-102v-125h106v-274h-575v274h161v488h-161v274z"/>
<glyph glyph-name="uni043B" horiz-adv-x="1565" unicode="л" d="M803 274h153v490h-270v-70q0 -57 -4 -129.5t-19.5 -149.5t-46 -152t-84 -133t-133.5 -94t-194 -36h-154v272q111 0 176 28t101 81t44 133t8 182v68h-149v272h1178v-272h-143v-490h186v-274h-649v274z"/>
<glyph glyph-name="uni043C" horiz-adv-x="1997" unicode="м" d="M1280 274h111v309h-2l-396 -498l-397 498h-2v-309h121v-274h-602v274h172v488h-170v274h467l411 -530l410 530h479v-274h-182v-488h182v-274h-602v274z"/>
<glyph glyph-name="uni043D" horiz-adv-x="1542" unicode="н" d="M848 1036h602v-274h-147v-488h147v-274h-602v274h145v156h-440v-156h141v-274h-602v274h152v488h-152v274h602v-274h-141v-121h440v121h-145v274z"/>
<glyph glyph-name="uni043E" d="M371 522q0 -59 20 -108.5t54.5 -85.5t80 -56t97.5 -20q53 0 98.5 19.5t79 55.5t52.5 85.5t19 109.5q0 62 -19 112t-53 85q-32 35 -78 53q-43 18 -94 18h-5.5h-4.5q-48 0 -92 -18q-46 -18 -80.5 -53t-54.5 -85t-20 -112zM72 522q0 113 41 212t114 173t174 117t222 43 t222.5 -43t174.5 -117t113.5 -173t40.5 -212t-39.5 -212.5t-112 -174t-174 -117.5t-225.5 -43q-125 0 -226.5 43t-173.5 117t-111.5 173.5t-39.5 213.5z" unicode="о"/>
<glyph glyph-name="uni043F" horiz-adv-x="1495" unicode="п" d="M92 1036h1311v-272h-154v-490h152v-274h-602v274h141v490h-387v-490h141v-274h-602v274h152v490h-152v272z"/>
<glyph glyph-name="uni0440" horiz-adv-x="1368" unicode="р" d="M750 791q-63 0 -118 -33t-93 -93v-292q32 -51 87 -83t124 -32q51 0 97 19.5t80 55t54 84t20 105.5q0 63 -19.5 113t-53.5 84.5t-80 53t-98 18.5zM119 1036h452v-15q48 21 98 33.5t103 12.5q114 0 212 -43t170 -117t112.5 -173t40.5 -210q0 -112 -39.5 -211t-110.5 -172.5 t-169.5 -116t-215.5 -42.5q-66 0 -123 12.5t-110 35.5v-227h198v-274h-676v274h170v959h-112v274z"/>
<glyph glyph-name="uni0441" horiz-adv-x="1180" unicode="с" d="M856 678q-43 54 -96 82q-46 24 -107 24q-9 0 -18 -1q-10 1 -19 1q-46 0 -86 -17q-48 -20 -82.5 -56t-53.5 -85.5t-19 -111.5q0 -55 20 -104t54.5 -84.5t82 -55.5t103.5 -24q47 4 85.5 19.5t68.5 40t51.5 55t33.5 57.5l275 -76q-17 -60 -58.5 -125t-108 -118.5t-158 -88.5 t-208.5 -35q-119 0 -219 43.5t-172 118.5t-112.5 176t-40.5 217q0 115 41.5 213.5t114.5 172.5q74 73 174 114q92 37 197 37h21q12 1 25 1q71 0 138 -20q79 -23 150 -69h199v-301h-276z"/>
<glyph glyph-name="uni0442" horiz-adv-x="1331" unicode="т" d="M344 274h162v498h-160v-197h-305v461h1249v-461h-307v197h-168v-498h178v-274h-649v274z"/>
<glyph glyph-name="uni0443" horiz-adv-x="1241" unicode="у" d="M692 1036h508v-274h-125l-278 -780q-41 -113 -83 -198t-98.5 -141.5t-133 -85t-187.5 -28.5h-125v274h98q68 0 126.5 38t86.5 120l6 21l-331 780h-105v274h508v-274h-80l150 -389l139 389h-76v274z"/>
<glyph glyph-name="uni0444" horiz-adv-x="1896" unicode="ф" d="M608 258q60 0 108 14.5t81 51.5v399q-33 39 -83 53.5t-106 14.5q-47 0 -89 -18.5t-73.5 -53.5t-50 -84t-18.5 -111q0 -61 18.5 -111.5t50 -84t73.5 -52t89 -18.5zM1290 807q-55 0 -103 -21.5t-83 -60.5v-406q29 -34 77 -54.5t107 -20.5q47 0 89 22.5t74 61.5t50.5 90 t18.5 110q0 60 -18.5 111t-49.5 88t-73 58.5t-89 21.5zM651 1556h453v-524q49 23 100 34t101 11q112 0 208.5 -43t165 -117.5t107.5 -174t39 -212.5q0 -114 -37 -213.5t-103.5 -173t-160.5 -115.5t-209 -42q-60 0 -112 7t-99 23v-213h190v-274h-676v274h179v222 q-52 -21 -104 -32t-105 -11q-117 0 -212 42t-163 115.5t-104.5 173t-36.5 213.5q0 113 36.5 212.5t104.5 172t162 114.5t207 42q59 0 112.5 -8t102.5 -25v248h-146v274z"/>
<glyph glyph-name="uni0445" horiz-adv-x="1235" unicode="х" d="M686 274h59l-129 123l-134 -123h67v-274h-488v274h103l257 252l-238 236h-122v274h488v-274h-47l121 -107l116 107h-55v274h487v-274h-114l-239 -237l253 -251h103v-274h-488v274z"/>
<glyph glyph-name="uni0446" horiz-adv-x="1518" unicode="ц" d="M797 1036h602v-274h-150v-488h189v-581h-310v307h-1036v274h152v488h-152v274h602v-274h-141v-488h387v488h-143v274z"/>
<glyph glyph-name="uni0447" horiz-adv-x="1413" unicode="ч" d="M16 1036h576v-274h-133v-21q0 -39 11 -67.5t34.5 -47t61.5 -27.5t91 -9q41 0 90.5 4t90.5 10v158h-138v274h594v-274h-147v-488h147v-274h-622v274h166v115q-47 -6 -99.5 -10t-117.5 -4q-117 0 -205 17.5t-147.5 59.5t-89 111.5t-29.5 175.5v23h-134v274z"/>
<glyph glyph-name="uni0448" horiz-adv-x="2000" unicode="ш" d="M92 1036h460v-762h297v488h-142v274h451v-762h290v488h-135v274h593v-274h-148v-488h150v-274h-1816v274h150v488h-150v274z"/>
<glyph glyph-name="uni0449" horiz-adv-x="2036" unicode="щ" d="M1313 1036h592v-274h-147v-488h198v-581h-309v307h-1555v274h150v488h-150v274h460v-762h297v488h-142v274h451v-762h290v488h-135v274z"/>
<glyph glyph-name="uni044A" horiz-adv-x="1479" unicode="ъ" d="M760 455v-191h258q47 0 71.5 27.5t24.5 64.5q0 33 -24.5 66t-71.5 33h-258zM289 264h162v510h-175v-196h-260v458h910v-262h-166v-90h188q101 0 189 -16.5t152.5 -56.5t101 -104.5t36.5 -158.5t-37.5 -159.5t-103 -107.5t-152.5 -61.5t-186 -19.5h-659v264z"/>
<glyph glyph-name="uni044B" horiz-adv-x="2058" unicode="ы" d="M584 455v-191h258q47 0 71.5 27.5t24.5 64.5q0 33 -24.5 66t-71.5 33h-258zM137 1036h623v-274h-176v-78h188q100 0 188.5 -16.5t153 -56.5t101 -104.5t36.5 -158.5t-37.5 -159.5t-103.5 -107.5t-153 -61.5t-185 -19.5h-659v264h161v498h-137v274zM1323 1036h623v-274 h-158v-488h158v-274h-623v274h156v488h-156v274z"/>
<glyph glyph-name="uni044C" horiz-adv-x="1303" unicode="ь" d="M584 455v-191h258q47 0 71.5 27.5t24.5 64.5q0 33 -24.5 66t-71.5 33h-258zM137 1036h623v-274h-176v-78h188q100 0 188.5 -16.5t153 -56.5t101 -104.5t36.5 -158.5t-37.5 -159.5t-103.5 -107.5t-153 -61.5t-185 -19.5h-659v264h161v498h-137v274z"/>
<glyph glyph-name="uni044D" horiz-adv-x="1180" unicode="э" d="M483 659h406q-15 39 -41.5 72t-62 56.5t-78.5 36t-91 12.5q-92 0 -158.5 -41t-95.5 -103h-247v301h198q72 41 151 64.5t163 23.5q116 0 216.5 -42t173.5 -116.5t113.5 -175t40.5 -217.5q0 -116 -40.5 -216.5t-112.5 -176.5t-172.5 -119t-218.5 -43q-115 0 -207 32 t-161 83t-113 113.5t-60 124.5l246 69q12 -35 35.5 -66.5t58.5 -56t80 -39t98 -14.5q117 0 193.5 59.5t97.5 153.5h-412v225z"/>
<glyph glyph-name="uni044E" horiz-adv-x="1843" unicode="ю" d="M995 522q0 -59 19.5 -108t53.5 -85t79 -56.5t94 -20.5q53 0 98 19.5t79 55t53.5 86t19.5 109.5q0 62 -19.5 112t-53.5 85t-79 53.5t-98 18.5q-49 0 -94 -18.5t-79 -53.5t-53.5 -85t-19.5 -112zM92 1036h576v-274h-111v-121h172q19 94 64 172t113.5 134.5t157.5 88 t198 31.5q112 0 209.5 -43t169 -116.5t111.5 -173t40 -212.5q0 -112 -39 -211.5t-109.5 -174.5t-169 -118t-217.5 -43q-114 0 -206 34t-161.5 97t-107.5 146t-53 178h-172v-156h111v-274h-576v274h156v488h-156v274z"/>
<glyph glyph-name="uni044F" horiz-adv-x="1247" unicode="я" d="M397 682q0 -45 45 -63.5t115 -18.5h174v170h-174q-76 0 -118 -17.5t-42 -70.5zM614 274h117v117h-100q-78 -4 -119 -36.5t-57 -106.5l-54 -248h-374v274h118l19 64q14 47 37.5 83t56.5 56q-39 21 -67.5 45.5t-47 54t-28 66.5t-9.5 80q0 68 25 126t74 100t120.5 66.5 t166.5 24.5h663v-270h-127v-496h127v-274h-541v274z"/>
<glyph glyph-name="uni0450" horiz-adv-x="1186" unicode="ѐ" d="M588 831q-56 0 -95.5 -13.5t-66.5 -37t-43 -53.5t-25 -63h433q-7 34 -20 64t-36 53t-58.5 36.5t-88.5 13.5zM349 453l3 -31q11 -45 37.5 -79t62.5 -57t80 -34.5t89 -11.5t85.5 5.5t78.5 15t74 22t73 26.5l110 -205q-57 -35 -104.5 -59.5t-95.5 -40.5t-102 -23.5 t-126 -7.5q-135 0 -240 44.5t-176.5 120.5t-109 178t-37.5 216t39.5 214t111.5 174.5t172 117.5t222 43t216.5 -40.5t159.5 -112t100 -168t38 -207.5q4 -25 4 -49v-10q0 -20 -2 -41h-763zM500 1178l-293 286v25h326l196 -311h-229z"/>
<glyph glyph-name="uni0451" horiz-adv-x="1186" unicode="ё" d="M588 831q-56 0 -95.5 -13.5t-66.5 -37t-43 -53.5t-25 -63h433q-7 34 -20 64t-36 53t-58.5 36.5t-88.5 13.5zM349 453l3 -31q11 -45 37.5 -79t62.5 -57t80 -34.5t89 -11.5t85.5 5.5t78.5 15t74 22t73 26.5l110 -205q-57 -35 -104.5 -59.5t-95.5 -40.5t-102 -23.5 t-126 -7.5q-135 0 -240 44.5t-176.5 120.5t-109 178t-37.5 216t39.5 214t111.5 174.5t172 117.5t222 43t216.5 -40.5t159.5 -112t100 -168t38 -207.5q4 -25 4 -49v-10q0 -20 -2 -41h-763zM166 1342q0 37 13.5 69.5t37.5 56.5t56.5 38t70.5 14q36 0 68 -14t56 -38t38 -56.5 t14 -69.5t-14 -69.5t-38 -56.5t-56 -38t-68 -14q-38 0 -70.5 14t-56.5 38t-37.5 56.5t-13.5 69.5zM645 1342q0 37 13.5 69.5t37.5 56.5t56.5 38t70.5 14q36 0 68 -14t56 -38t38 -56.5t14 -69.5t-14 -69.5t-38 -56.5t-56 -38t-68 -14q-38 0 -70.5 14t-56.5 38t-37.5 56.5 t-13.5 69.5z"/>
<glyph glyph-name="uni0452" horiz-adv-x="1386" unicode="ђ" d="M51 1556h473v-272h507v-168h-507v-214q60 53 134.5 83.5t179.5 30.5q186 0 286.5 -104.5t100.5 -304.5v-625q0 -238 -122 -344.5t-335 -106.5l-8 227q71 4 106 57.5t35 145.5v584q0 89 -46 139t-122 50q-47 0 -98 -21.5t-111 -83.5v-355h181v-274h-644v274h156v822h-166 v168h166v59h-166v233z"/>
<glyph glyph-name="uni0453" horiz-adv-x="1214" unicode="ѓ" d="M113 274h178v498h-178v264h1071v-461h-307v197h-277v-498h162v-274h-649v274zM811 1489h326v-25l-306 -286h-235z"/>
<glyph glyph-name="uni0454" horiz-adv-x="1180" unicode="є" d="M852 692q-43 49 -96.5 77t-124.5 28q-80 0 -140.5 -38t-91.5 -102h314v-262h-312q17 -30 40.5 -56t53 -43t64.5 -26.5t72 -9.5q47 0 86 15.5t68.5 40t51 55t33.5 61.5l275 -80q-17 -61 -59 -127.5t-108.5 -122t-156.5 -91.5t-205 -36q-118 0 -218.5 43t-172 119 t-112.5 176.5t-41 216.5q0 117 41 217.5t113.5 175t173 116.5t216.5 42q84 0 162 -23.5t150 -64.5h200v-301h-139h-68.5h-68.5z"/>
<glyph glyph-name="uni0455" horiz-adv-x="1102" unicode="ѕ" d="M725.5 765q-15.5 22 -45.5 38.5t-73.5 26.5t-98.5 10q-21 0 -45 -3.5t-44.5 -12.5t-34 -24.5t-13.5 -39.5q0 -12 3.5 -23t13.5 -21t27.5 -18.5t45.5 -13.5l188 -37q102 -20 171 -50t111 -70t60.5 -89t18.5 -106q0 -89 -41.5 -156t-109 -111.5t-152 -67t-170.5 -22.5 q-56 0 -101.5 7t-82 19t-65 28.5t-52.5 36.5h-181v278h283v-6q1 -29 18 -50.5t44.5 -36.5t62.5 -22.5t74 -7.5q90 0 131 23.5t41 60.5q0 29 -20 49.5t-71 32.5l-192 41q-181 35 -273 116.5t-92 209.5q0 75 35 136.5t95 105t140.5 67.5t172.5 24q63 0 112 -7.5t88 -19.5 t68.5 -28.5t52.5 -34.5h174v-278h-258q0 24 -15.5 46z"/>
<glyph glyph-name="uni0456" horiz-adv-x="791" unicode="і" d="M220 1370q0 37 13.5 69.5t37.5 56.5t56.5 38t70.5 14q36 0 68 -14t56 -38t38 -56.5t14 -69.5t-14 -69.5t-38 -56.5t-56 -38t-68 -14q-38 0 -70.5 14t-56.5 38t-37.5 56.5t-13.5 69.5zM80 1036h465v-762h144v-274h-609v274h156v488h-156v274z"/>
<glyph glyph-name="uni0457" horiz-adv-x="791" unicode="ї" d="M80 1037l467 -1v-762h142v-274h-608v274h156v488h-157v275zM405 1342q0 66 46 113t113 47q33 0 61.5 -12t50 -33.5t34 -51.5t12.5 -63q0 -32 -12.5 -62t-34 -51.5t-50 -33.5t-61.5 -12q-67 0 -113 47t-46 112zM28 1342q0 66 46 113t113 47q33 0 62 -12t50.5 -33.5 t33.5 -51.5t12 -63q0 -32 -12 -62t-33.5 -51.5t-50.5 -33.5t-62 -12q-67 0 -113 47t-46 112z"/>
<glyph glyph-name="uni0458" horiz-adv-x="621" unicode="ј" d="M182 1370q0 37 13.5 69.5t37.5 56.5t56.5 38t70.5 14q36 0 68.5 -14t57 -38t39 -56.5t14.5 -69.5t-14.5 -69.5t-39 -56.5t-57 -38t-68.5 -14q-38 0 -70.5 14t-56.5 38t-37.5 56.5t-13.5 69.5zM51 1036h455v-1054q0 -119 -29.5 -204t-86 -140t-139.5 -81t-190 -26l-4 227 q72 3 107 57.5t35 145.5v801h-148v274z"/>
<glyph glyph-name="uni0459" horiz-adv-x="1931" unicode="љ" d="M1212 455v-191h207q72 0 110 17.5t38 74.5q0 33 -24.5 66t-72.5 33h-258zM231 1036h1178v-272h-197v-80h189q100 0 188 -16.5t152.5 -56.5t101.5 -104.5t37 -158.5t-38 -159.5t-103.5 -107.5t-152.5 -61.5t-185 -19.5h-660v264h162v500h-217v-70q0 -57 -4 -131 t-19.5 -150.5t-46 -150.5t-84 -132t-133.5 -94t-194 -36h-77h-77v272h21.5h22.5t21.5 1t18.5 3q72 9 115 36.5t66.5 84t30.5 145.5t7 222h-123v272z"/>
<glyph glyph-name="uni045A" horiz-adv-x="2040" unicode="њ" d="M1321 455v-191h258q47 0 71.5 27.5t24.5 64.5q0 33 -24.5 66t-71.5 33h-258zM850 264h162v191h-459v-181h141v-274h-602v274h152v488h-152v274h602v-274h-141v-82h459v82h-162v274h602v-274h-131v-78h188q101 0 189 -16.5t152.5 -56.5t101.5 -104.5t37 -158.5t-38 -159.5 t-103.5 -107.5t-152.5 -61.5t-186 -19.5h-659v264z"/>
<glyph glyph-name="uni045B" horiz-adv-x="1386" unicode="ћ" d="M51 1556h473v-272h497v-168h-497v-216q60 53 129.5 84t155.5 31q174 0 279.5 -104.5t105.5 -305.5v-331h152v-274h-462v274v10l-1 251q0 87 -43 137t-111 50q-45 0 -98 -25.5t-107 -72.5v-350h152v-274h-608v274h149v822h-166v168h166v59h-166v233z"/>
<glyph glyph-name="uni045C" horiz-adv-x="1365" unicode="ќ" d="M92 1036h469v-422h120l105 152v270h500v-274h-170l-203 -254l221 -234h150v-274h-281l-340 399h-102v-125h106v-274h-575v274h161v488h-161v274zM746 1489h326v-25l-306 -286h-235z"/>
<glyph glyph-name="uni045D" horiz-adv-x="1577" unicode="ѝ" d="M92 1036h561v-274h-123v-366l501 640h404v-276h-123v-486h123v-274h-561v274h129v356l-501 -630h-408v274h127v488h-129v274zM760 1178l-293 286v25h326l196 -311h-229z"/>
<glyph glyph-name="uni045E" horiz-adv-x="1241" unicode="ў" d="M692 1036h508v-274h-125l-278 -780q-41 -113 -83 -198t-98.5 -141.5t-133 -85t-187.5 -28.5h-125v274h98q68 0 126.5 38t86.5 120l6 21l-331 780h-105v274h508v-274h-80l150 -389l139 389h-76v274zM622 1157q-95 0 -167 21.5t-125 63t-89.5 101.5t-60.5 138h252 q20 -60 67.5 -91.5t122.5 -31.5q72 0 118 29t71 94h250q-22 -77 -58 -137t-89.5 -101.5t-125.5 -63.5t-166 -22z"/>
<glyph glyph-name="uni045F" horiz-adv-x="1491" unicode="џ" d="M797 1036h602v-274h-150v-490h150v-272h-498v-348h-309v348h-500v272h152v490h-152v274h602v-274h-141v-490h387v490h-143v274z"/>
<glyph glyph-name="uni0490" horiz-adv-x="1305" unicode="Ґ" d="M113 274h157v977h-157v265h833v296h307v-561h-651v-977h160v-274h-649v274z"/>
<glyph glyph-name="uni0491" horiz-adv-x="1235" unicode="ґ" d="M113 274h178v498h-178v264h721v307h307v-571h-541v-498h162v-274h-649v274z"/>
<glyph glyph-name="uni04B0" horiz-adv-x="1536" unicode="Ұ" d="M842 1516h649v-275h-113l-450 -612v-4h422v-265h-422v-86h184v-274h-676v274h168v86h-397v265h397v8l-424 608h-133v275h649v-275h-127l203 -348l215 348h-145v275z"/>
<glyph glyph-name="uni04B1" horiz-adv-x="1257" unicode="ұ" d="M676 1036h541v-274h-138l-307 -758h383v-234h-385v-241h-305v241h-363v234h359l-305 758h-115v274h541v-274h-125l168 -445l163 445h-112v274z"/>
<glyph glyph-name="endash" horiz-adv-x="1229" unicode="–" d="M102 733h1024v-274h-1024v274z"/>
<glyph glyph-name="emdash" horiz-adv-x="1843" unicode="—" d="M0 733h1843v-274h-1843v274z"/>
<glyph glyph-name="quoteleft" horiz-adv-x="530" unicode="‘" d="M305 1651l205 -78l-184 -569l-306 106z"/>
<glyph glyph-name="quoteright" horiz-adv-x="532" unicode="’" d="M205 1634l305 -106l-285 -541l-205 78z"/>
<glyph glyph-name="quotesinglbase" horiz-adv-x="532" unicode="‚" d="M205 283l305 -107l-285 -541l-205 78z"/>
<glyph glyph-name="quotedblleft" horiz-adv-x="938" unicode="“" d="M274 1663l222 -92l-242 -572l-285 107zM737 1657l221 -84l-215 -584l-284 107z"/>
<glyph glyph-name="quotedblright" horiz-adv-x="981" unicode="”" d="M678 989l-221 92l241 572l285 -107zM215 995l-221 84l215 584l285 -107z"/>
<glyph glyph-name="quotedblbase" horiz-adv-x="981" unicode="„" d="M678 -398l-221 92l241 572l285 -107zM215 -392l-221 84l215 584l285 -107z"/>
<glyph glyph-name="dagger" horiz-adv-x="1300" unicode="†" d="M139 1036h348v480h330v-480h346v-274h-346v-1233h-330v1233h-348v274z"/>
<glyph glyph-name="daggerdbl" horiz-adv-x="1300" unicode="‡" d="M139 1036h348v480h330v-480h346v-274h-346v-488h346v-274h-346v-471h-330v471h-348v274h348v488h-348v274z"/>
<glyph glyph-name="bullet" horiz-adv-x="1024" unicode="•" d="M180 778q0 69 26.5 129t71.5 104.5t105.5 70.5t128.5 26t128 -26t105 -70.5t71 -104.5t26 -129q0 -68 -26 -128.5t-71 -105.5t-105 -71.5t-128 -26.5t-128.5 26.5t-105.5 71.5t-71.5 105.5t-26.5 128.5z"/>
<glyph glyph-name="ellipsis" horiz-adv-x="1315" unicode="…" d="M907 143q0 37 14.5 69t40 55t59.5 36.5t73 13.5q37 0 71.5 -13.5t61 -36.5t42 -55t15.5 -69q0 -35 -15.5 -66.5t-42 -55.5t-61 -38t-71.5 -14q-39 0 -73 14t-59.5 38t-40 55.5t-14.5 66.5zM469 143q0 37 14.5 69t40 55t59.5 36.5t72 13.5t72.5 -13.5t61 -36.5t42 -55 t15.5 -69q0 -35 -15.5 -66.5t-42 -55.5t-61 -38t-72.5 -14t-72 14t-59.5 38t-40 55.5t-14.5 66.5zM31 143q0 37 14.5 69t40 55t59.5 36.5t72 13.5q37 0 72 -13.5t61 -36.5t42 -55t16 -69q0 -35 -16 -66.5t-42 -55.5t-61 -38t-72 -14q-38 0 -72 14t-59.5 38t-40 55.5 t-14.5 66.5z"/>
<glyph glyph-name="perthousand" horiz-adv-x="2681" unicode="‰" d="M1403 516q-60 0 -99.5 -38t-39.5 -99q0 -57 39.5 -98t99.5 -41q29 0 54.5 11t44 29.5t29.5 44t11 54.5q0 61 -40 99t-99 38zM1024 379q0 74 27.5 141.5t79 117.5t120 80t152.5 30q82 0 151.5 -30t120.5 -80t79 -117.5t28 -141.5t-28 -140.5t-77 -117.5t-118.5 -81 t-155.5 -30t-155.5 30t-119 80t-77 117.5t-27.5 141.5zM2226 516q-59 0 -99 -38t-40 -99q0 -57 40 -98t99 -41q29 0 54.5 11t44 29.5t29.5 44t11 54.5q0 61 -39.5 99t-99.5 38zM1847 379q0 74 28 141.5t79 117.5t119.5 80t152.5 30q82 0 151.5 -30t121 -80t79 -117.5 t27.5 -141.5t-27.5 -140.5t-77 -117.5t-119 -81t-155.5 -30t-155.5 30t-118.5 80t-77 117.5t-28 141.5zM1370 1540h266l-1040 -1556h-266zM590 1305q-60 0 -99.5 -38t-39.5 -100q0 -57 39.5 -98t99.5 -41q28 0 54 11.5t44.5 29.5t29.5 44t11 54q0 62 -40 100t-99 38z M211 1167q0 74 27.5 141.5t79 118t120 80t152.5 29.5q82 0 151.5 -29.5t120.5 -80t79 -118t28 -141.5q0 -73 -28 -139.5t-77 -118t-118.5 -81t-155.5 -29.5t-155.5 29.5t-119 79.5t-77 118t-27.5 141z"/>
<glyph glyph-name="guilsinglleft" horiz-adv-x="598" unicode="‹" d="M567 223h-229l-256 370v74l260 369h223l-211 -406z"/>
<glyph glyph-name="guilsinglright" horiz-adv-x="594" unicode="›" d="M244 630l-211 406h223l260 -369v-74l-256 -370h-229z"/>
<glyph glyph-name="fraction" horiz-adv-x="1670" unicode="⁄" d="M1322 1577h256l-1245 -1638h-262z"/>
<glyph glyph-name="foursuperior" horiz-adv-x="1145" unicode="⁴" d="M238 1178l260 397h215l-264 -404h169v148h183v-148h104v-159h-104v-172h-183v172h-378z"/>
<glyph glyph-name="Euro" horiz-adv-x="1554" unicode="€" d="M1106 1055q-41 71 -122 123.5t-185 52.5q-49 0 -94.5 -13.5t-85 -38t-74.5 -58.5t-62 -77h471l-147 -284h-401v-31t2 -31h493l-147 -284h-226q52 -60 120.5 -92.5t150.5 -32.5q59 0 111.5 19.5t95.5 51t74.5 73.5t49.5 87l322 -90q-31 -98 -91.5 -181t-144 -144.5 t-189 -96.5t-228.5 -35q-154 0 -288 61.5t-232.5 168t-155.5 250t-57 307.5q0 162 57 305t155.5 249.5t232.5 168t288 61.5q59 0 120.5 -11t118 -31.5t108.5 -48.5t93 -60h176v-338h-309z"/>
<glyph glyph-name="uni2113" horiz-adv-x="1130" unicode="ℓ" d="M647 991q15 15 35 41.5t39.5 57t33 59.5t13.5 47q0 8 -1 16.5t-5 18.5q-6 16 -18.5 29.5t-34.5 13.5q-25 0 -49.5 -17.5t-44 -58.5t-32 -109.5t-12.5 -170.5zM571 356q0 -67 38 -91.5t91 -24.5q41 0 82 22.5t66 42.5l115 -211q-15 -12 -42.5 -31.5t-69.5 -38t-97.5 -31.5 t-122.5 -13q-62 0 -120 17t-105.5 52t-81 90.5t-45.5 132.5l-76 -71l-162 207l233 225v254q0 137 33 259t93.5 212t145.5 143t189 53q72 0 129.5 -18t98.5 -56t63.5 -96.5t22.5 -136.5q0 -80 -19.5 -145.5t-59.5 -129t-100.5 -131t-146.5 -147.5l-152 -143v-195z"/>
<glyph glyph-name="uni2116" horiz-adv-x="2580" unicode="№" d="M2009 667q45 -44 111 -44q65 0 108 44t43 95q0 55 -43 95t-108 40q-66 0 -111 -40t-45 -95q0 -51 45 -95zM1745 274h743v-274h-743v274zM1767.5 901.5q28.5 65.5 78.5 116.5t120 80.5t154 29.5q82 0 151.5 -30.5t119.5 -80.5t79 -116.5t29 -138.5q0 -74 -28 -140.5 t-78 -116.5t-119.5 -81t-153.5 -31q-86 0 -157 31t-120 81t-76.5 116.5t-27.5 140.5t28.5 139.5zM1094 1516h675v-275h-245v-1241h-332l-631 979v-705h250v-274h-676v274h103v967h-123v277h458l627 -996v719h-106v275z"/>
<glyph glyph-name="trademark" horiz-adv-x="2165" unicode="™" d="M152 1034h135v330h-82v-92h-195v284h795v-284h-197v92h-82v-330h86v-194h-460v194zM805 1034h113v318h-66v204h383l197 -241l233 241h360v-204h-106v-318h106v-194h-440v194h94v248l-194 -238h-133l-195 228l-2 -238h90v-194h-440v194z"/>
<glyph glyph-name="uni2126" horiz-adv-x="1933" unicode="Ω" d="M1571 274v142h260v-416h-746v596q21 8 67 27.5t92 55.5t82 92t36 140q0 80 -39 140.5t-97.5 100.5t-127 60.5t-129.5 20.5q-60 0 -128.5 -20.5t-127 -60.5t-98.5 -100.5t-40 -140.5q0 -86 36 -142t82 -92t92 -54.5t67 -26.5v-596h-746v416h261v-142h194v181 q-55 22 -114.5 65t-106.5 102.5t-78 133t-31 155.5q0 154 59.5 273t161 199.5t235.5 122.5t282 42q147 0 281 -42t235.5 -122.5t161 -199.5t59.5 -273q0 -82 -30.5 -155.5t-78 -133t-106.5 -102.5t-115 -65v-181h195z"/>
<glyph glyph-name="estimated" horiz-adv-x="1671" unicode="℮" d="M825 1247q-86 0 -168 -18.5t-145 -47t-102 -65.5t-39 -76v-340q0 -32 30 -32h852q23 0 29 8t6 24v340q0 39 -43 77t-110.5 66.5t-149.5 46t-160 17.5zM829 -31q-153 0 -286 46t-230.5 132t-154 209t-56.5 277q0 164 60.5 289t160 208.5t230.5 126.5t272 43 q168 0 301.5 -49t227.5 -139t146 -217t59 -281h-1160q-12 0 -20 -5t-8 -27v-338q0 -29 32.5 -67t93 -71.5t144.5 -58t188 -24.5q146 0 268 58t195 150h133q-131 -141 -275 -201.5t-321 -60.5z"/>
<glyph glyph-name="partialdiff" horiz-adv-x="1260" unicode="∂" d="M637 711q-48 0 -91 -15q-42 -15 -74 -42t-50 -65t-19 -85q0 -49 20 -87q21 -38 53 -65q32 -26 72 -41q40 -14 83 -14q59 0 101 20q42 19 70 50t40 68q14 37 14 71q0 36 -10 67q-10 30 -23 56q-32 41 -80 62q-48 20 -106 20zM305 1534h350l375 -678q24 -43 46 -85t40 -85 t27 -88q10 -45 10 -96q1 -105 -41 -196t-114 -158t-166 -105q-95 -38 -201 -39q-108 0 -204 39q-96 38 -167 106q-70 68 -112 161t-42 202q0 89 32 168t86 142q55 62 129 105q74 42 159 58q23 5 48 8t52 1z"/>
<glyph glyph-name="uni2206" horiz-adv-x="1556" unicode="∆" d="M1061 326l-287 757l-278 -757h565zM600 1583h350l557 -1479v-104h-1460v102z"/>
<glyph glyph-name="product" horiz-adv-x="1706" unicode="∏" d="M129 1516h1384v-275h-141v-1438h141v-274h-608v274h135v1438h-438v-1438h135v-274h-608v274h141v1438h-141v275z"/>
<glyph glyph-name="summation" horiz-adv-x="1618" unicode="∑" d="M1182 72h301v-543h-1401v268l530 738l-520 737v244h1391v-517h-322v240h-659l493 -700l-522 -734h709v267z"/>
<glyph glyph-name="minus" horiz-adv-x="1229" unicode="−" d="M102 733h1024v-274h-1024v274z"/>
<glyph glyph-name="divisionslash" horiz-adv-x="1300" unicode="∕" d="M1042 1577h256l-1245 -1638h-262z"/>
<glyph glyph-name="radical" horiz-adv-x="1481" unicode="√" d="M248 760h-211v274h452l117 -313q12 -33 27.5 -79t32.5 -87q18 -49 36 -100h3q16 49 32 100q15 41 30 88t30 82l297 788h387l-629 -1513h-320z"/>
<glyph glyph-name="infinity" horiz-adv-x="1706" unicode="∞" d="M502 623q71 0 118.5 41t92.5 131l4 8q-17 31 -39.5 61.5t-51 53t-60 37t-64.5 14.5q-37 0 -68 -13.5t-53.5 -37t-34.5 -55.5t-12 -68q0 -35 12 -67t34.5 -55.5t53.5 -36.5t68 -13zM1192 969q-78 0 -127 -45t-88 -123q0 -2 4 -6q45 -93 94 -132.5t117 -39.5q35 0 65.5 13 t54 36.5t38 55.5t14.5 67q0 36 -14.5 68t-38 55.5t-54 37t-65.5 13.5zM498 352q-92 0 -172 34t-138.5 93.5t-92.5 140t-34 175.5q0 92 34 173t92.5 141t138.5 95t172 35q120 0 204 -59.5t150 -153.5q72 98 160 155.5t202 57.5q89 0 165.5 -36t134 -96t90 -141t32.5 -171 t-32.5 -170t-90 -140.5t-134 -96.5t-165.5 -36q-124 0 -211.5 57.5t-156.5 157.5q-66 -98 -149 -156.5t-199 -58.5z"/>
<glyph glyph-name="integral" horiz-adv-x="815" unicode="∫" d="M530 -100q0 -90 -31.5 -160t-85 -117t-124 -70.5t-146.5 -23.5q-114 0 -180.5 29.5t-95.5 56.5l115 211q22 -16 51.5 -26.5t70.5 -10.5q54 0 91.5 35t37.5 102v1282q0 90 32 160t85 117t123 70.5t148 23.5q114 0 180.5 -29.5t95.5 -56.5l-115 -211q-22 16 -52 26.5 t-71 10.5q-53 0 -91 -35t-38 -102v-1282z"/>
<glyph glyph-name="approxequal" horiz-adv-x="905" unicode="≈" d="M-8 345q0 30 5 66t16.5 72.5t31.5 70.5t50 60.5t72 42.5t97 16q24 0 55.5 -11t66.5 -27t72 -35t71.5 -35t64 -26t51.5 -10q47 0 69.5 27.5t30.5 87.5l185 -41q0 -45 -12.5 -100.5t-45.5 -104.5t-90 -84t-147 -35q-55 0 -108 23.5t-101.5 50t-90.5 48.5t-75 22 q-19 0 -36 -5.5t-30 -19t-21 -35.5t-9 -55zM-15 774q0 30 5 66t16.5 72.5t31.5 70.5t50 60.5t72 42.5t97 16q24 0 55.5 -11t66.5 -27t72 -35t71.5 -35t64 -26t51.5 -10q47 0 69.5 27.5t30.5 87.5l185 -41q0 -45 -12.5 -100.5t-45.5 -104.5t-90 -84t-147 -35q-55 0 -108 23.5 t-101.5 50t-90.5 48.5t-75 22q-19 0 -36 -5.5t-30 -19t-21 -35.5t-9 -55z"/>
<glyph glyph-name="notequal" horiz-adv-x="995" unicode="≠" d="M61 997h414l109 299h278l-108 -299h180v-286h-283l-51 -144h334v-286h-436l-76 -215h-283l78 215h-156v286h258l54 144h-312v286z"/>
<glyph glyph-name="lessequal" horiz-adv-x="956" unicode="≤" d="M29 422h772v-267h-772v267zM31 1034l755 275v-256l-448 -135l448 -144v-250l-755 287v223z"/>
<glyph glyph-name="greaterequal" horiz-adv-x="979" unicode="≥" d="M129 422h780v-267h-780v267zM899 811l-756 -287v250l449 144l-449 135v256l756 -275v-223z"/>
<glyph glyph-name="lozenge" horiz-adv-x="1296" unicode="◊" d="M627 406l223 358l-223 344l-195 -344zM80 774l442 744h228l454 -744l-461 -774h-219z"/>
<glyph glyph-name="fi" horiz-adv-x="1536" unicode="ﬁ" d="M1016 1370q0 74 51 126t127 52q37 0 68.5 -14t55 -37.5t38 -56.5t14.5 -70t-14.5 -69.5t-38 -56t-55 -38t-68.5 -14.5q-76 0 -127 52t-51 126zM877 1036h464v-762h144v-274h-608v274h155v488h-155v274zM76 1036h157v172q0 90 32 160t85 117t123 70.5t148 23.5 q114 0 180.5 -29.5t95.5 -56.5l-115 -211q-22 16 -52 26.5t-71 10.5q-53 0 -91 -35t-38 -102v-146h189v-262h-189v-500h191v-274h-643v274h155v500h-157v262z"/>
<glyph glyph-name="fl" horiz-adv-x="1300" unicode="ﬂ" d="M530 1036h189v-262h-189v-500h191v-274h-643v274h155v500h-157v262h157v172q0 90 32 160t85 117t123 70.5t148 23.5q49 0 89 -7t72 -18v2h308v-1282h159v-274h-467v1282q-22 16 -52 26.5t-71 10.5q-53 0 -91 -35t-38 -102v-146z"/>
<glyph glyph-name="fourinferior" d="M205 102h731v1311h-731v-1311zM102 1516h936v-1516h-936v1516z" horiz-adv-x="1141"/>
<glyph glyph-name="commabelow" d="M139 -29l289 -104l-197 -338l-206 72z" horiz-adv-x="532"/>
<glyph glyph-name="commaaccent" d="M285 1112l-289 105l197 337l206 -71z" horiz-adv-x="340"/>
<glyph glyph-name="macron#1" d="M770 1176h-688v215h688v-215z" horiz-adv-x="831"/>
<glyph glyph-name="dieresis.i" d="M492 1343q0 66 46 113t113 47q33 0 61.5 -12t50 -33.5t34 -51.5t12.5 -63q0 -32 -12.5 -62t-34 -51.5t-50 -33.5t-61.5 -12q-67 0 -113 47t-46 112zM115 1343q0 66 46 113t113 47q33 0 62 -12t50.5 -33.5t33.5 -51.5t12 -63q0 -32 -12 -62t-33.5 -51.5t-50.5 -33.5 t-62 -12q-67 0 -113 47t-46 112z" horiz-adv-x="940"/>
<glyph glyph-name="circumflex.i" d="M86 1176l229 325h203l232 -325h-207l-125 153l-123 -153h-209z" horiz-adv-x="827"/>
<glyph glyph-name="breve.i" d="M483 1157q-96 0 -167.5 21.5t-124 62.5t-89 101.5t-61.5 138.5h252q20 -60 67.5 -91.5t122.5 -31.5q72 0 118 28.5t71 94.5h250q-23 -78 -59 -137.5t-89 -101.5t-124.5 -63.5t-166.5 -21.5z" horiz-adv-x="987"/>
<glyph glyph-name="caron.i" d="M872 1462l-272 -325h-240l-274 325h246l147 -153l146 153h247z" horiz-adv-x="1100"/>
<glyph glyph-name="cyr.dotlessi" d="M61 1036h623v-274h-158v-488h158v-274h-623v274h156v488h-156v274z" horiz-adv-x="721"/>
<glyph glyph-name="Ohm" d="M1571 274v142h260v-416h-746v596q21 8 67 27.5t92 55.5t82 92t36 140q0 80 -39 140.5t-97.5 100.5t-127 60.5t-129.5 20.5q-60 0 -128.5 -20.5t-127 -60.5t-98.5 -100.5t-40 -140.5q0 -86 36 -142t82 -92t92 -54.5t67 -26.5v-596h-746v416h261v-142h194v181 q-55 22 -114.5 65t-106.5 102.5t-78 133t-31 155.5q0 154 59.5 273t161 199.5t235.5 122.5t282 42q147 0 281 -42t235.5 -122.5t161 -199.5t59.5 -273q0 -82 -30.5 -155.5t-78 -133t-106.5 -102.5t-115 -65v-181h195z" horiz-adv-x="1933"/>
<glyph glyph-name="one.fract" d="M672 1034h129v248l-139 -65v233l237 129l113 -2v-543h121v-194h-461v194z" horiz-adv-x="2800"/>
<glyph glyph-name="two.fract" d="M1659 193l270 221q43 35 50.5 54t7.5 26q0 22 -11.5 32.5t-36.5 10.5q-34 0 -47.5 -20.5t-13.5 -43.5h-225q0 72 21.5 124t61.5 86t95 50.5t119 16.5q49 0 100 -13.5t91 -42t65.5 -74t25.5 -110.5q0 -53 -20.5 -78.5t-26.5 -32.5l-203 -174h250v-225h-573v193z" horiz-adv-x="2800"/>
<glyph glyph-name="three.fract" d="M590 1335q0 21 -11 37t-48 16q-23 0 -40.5 -15t-17.5 -56h-219v12q0 50 16 94q18 49 53.5 86t89.5 57.5t128 20.5q55 0 106.5 -18.5t89 -50t61.5 -75.5t24 -94q0 -47 -15.5 -79.5t-32.5 -53.5q25 -20 43.5 -62t18.5 -83q0 -47 -22.5 -93t-61.5 -81t-94.5 -56.5 t-118.5 -21.5q-74 0 -130 21.5t-94 58.5t-57.5 88t-19.5 111h219q0 -29 19.5 -55.5t56.5 -26.5q35 0 53 23.5t18 47.5q0 17 -13 36.5t-54 19.5h-103v133h113q25 0 34 18.5t9 40.5z" horiz-adv-x="1000"/>
<glyph glyph-name="four.fract" d="M1604 348l280 416h215l-282 -422h168v166h202v-166h105v-160h-105v-182h-202v182h-379z" horiz-adv-x="2800"/>
<glyph glyph-name="OE.ss01" d="M465 569q31 -88 84 -153.5t124.5 -103.5t153.5 -38h127v967h-127q-82 0 -153.5 -37t-124.5 -101.5t-84 -153.5t-31 -189q0 -103 31 -191zM825 0q-155 0 -291.5 59.5t-236.5 163t-157.5 241.5t-57.5 296t57.5 295t157.5 239.5t236.5 162t291.5 59.5h1176v-517h-326v240 h-389v-324h301v-290h-301v-351h389v269h326v-543h-1176z" horiz-adv-x="2062"/>
</font>
</defs>
</svg>
